<?xml version="1.0" encoding="UTF-8" standalone="no"?>
<!DOCTYPE svg PUBLIC "-//W3C//DTD SVG 1.1//EN" "http://www.w3.org/Graphics/SVG/1.1/DTD/svg11.dtd"><svg width="100%" height="100%" viewBox="0 0 612 792" version="1.1" xmlns="http://www.w3.org/2000/svg" xmlns:xlink="http://www.w3.org/1999/xlink" xml:space="preserve" style="fill-rule:evenodd;clip-rule:evenodd;"><path d="M388.542,32.514l0.1,5.3l-37.3,-2.3l37.2,-3" style="fill:#79ad4d;fill-rule:nonzero;"/><path d="M388.542,32.514l0.2,0l0.1,5.6l-37.5,-2.3l0,-0.4l37.5,-3l0,0.2l-0.2,0l0,0.2l-34.1,2.8l33.9,2.1l0,-5.1l0.2,0l0,0.2l0,-0.2" style="fill:#292929;fill-rule:nonzero;"/><path d="M389.142,13.114c-30.2,3.6 -80.8,2.1 -124.4,0.1c-6.7,-0.3 -0.4,11.7 -0.4,11.7c0,0 97.2,-3.9 124.5,-0.4c23.7,3 0.3,-11.4 0.3,-11.4" style="fill:#fdee9f;fill-rule:nonzero;"/><path d="M389.142,13.114l0,0.2c-13.3,1.6 -30.4,2.2 -49.2,2.2c-24.1,0 -50.7,-1 -75.2,-2l-0.2,0c-1,0 -1.7,0.3 -2.1,0.8c-0.4,0.5 -0.6,1.2 -0.6,2.1c0,1.7 0.7,3.8 1.3,5.5c0.3,0.9 0.7,1.6 0.9,2.1c0.3,0.5 0.4,0.8 0.4,0.8l-0.2,0.1l0,-0.2c0,0 46.4,-1.8 84.1,-1.8c16.8,0 31.9,0.4 40.4,1.4c2.2,0.3 4,0.4 5.5,0.4c1.9,0 3.1,-0.2 3.9,-0.6c0.8,-0.4 1,-0.8 1,-1.3c0,-0.7 -0.6,-1.8 -1.5,-2.8c-1.4,-1.6 -3.6,-3.3 -5.4,-4.6c-0.9,-0.6 -1.7,-1.2 -2.3,-1.6c-0.6,-0.4 -0.9,-0.6 -0.9,-0.6l0.1,-0.2l0,0.2l0,-0.2l0.1,-0.2c0,0 2.6,1.6 5.2,3.6c1.3,1 2.6,2.1 3.6,3.2c1,1.1 1.7,2.1 1.7,3.1c0,0.7 -0.4,1.3 -1.3,1.7c-0.9,0.4 -2.2,0.6 -4,0.6c-1.5,0 -3.3,-0.1 -5.5,-0.4c-8.4,-1.1 -23.5,-1.4 -40.3,-1.4c-18.8,0 -39.9,0.5 -56.2,0.9c-8.2,0.2 -15.1,0.5 -20.1,0.6c-2.5,0.1 -4.4,0.2 -5.8,0.2c-1.3,0.1 -2.1,0.1 -2.1,0.1l-0.1,0l-0.1,-0.1c0,0 -2.7,-5.1 -2.7,-8.7c0,-0.9 0.2,-1.7 0.7,-2.4c0.5,-0.6 1.3,-1 2.4,-1l0.2,0c24.5,1.1 51.2,2.1 75.2,2.1c18.8,0 35.9,-0.6 49.1,-2.2l0.2,0l-0.1,0.2" style="fill:#292929;fill-rule:nonzero;"/><path d="M389.542,16.114c-30.2,1.8 -80.8,1 -124.4,0.1c-6.7,-0.1 -0.4,5.8 -0.4,5.8c0,0 97.2,-1.9 124.5,-0.2c23.7,1.5 0.3,-5.7 0.3,-5.7" style="fill:#ffed87;fill-rule:nonzero;"/><path d="M389.542,16.114l0,0.2c-13.3,0.8 -30.4,1.1 -49.2,1.1c-24.1,0 -50.7,-0.5 -75.2,-1l-0.2,0c-1,0 -1.7,0.2 -2.1,0.4c-0.4,0.2 -0.5,0.5 -0.5,0.9c0,0.8 0.6,1.8 1.3,2.7c0.3,0.4 0.7,0.8 0.9,1.1c0.2,0.3 0.4,0.4 0.4,0.4l-0.2,0.2l0,-0.2c0,0 46.4,-0.9 84.1,-0.9c16.8,0 31.9,0.2 40.4,0.7c2.2,0.1 4,0.2 5.5,0.2c1.9,0 3.1,-0.1 3.9,-0.3c0.4,-0.1 0.7,-0.2 0.8,-0.3c0.2,-0.1 0.2,-0.2 0.2,-0.2c0,-0.1 -0.1,-0.3 -0.4,-0.5c-0.9,-0.8 -3.4,-1.9 -5.6,-2.7c-1.1,-0.4 -2.1,-0.8 -2.9,-1c-0.8,-0.3 -1.3,-0.4 -1.3,-0.4l0.1,-0.2l0,0.2l0,-0.2l0.1,-0.2c0,0 2.6,0.8 5.2,1.8c1.3,0.5 2.6,1.1 3.6,1.6c0.5,0.3 0.9,0.5 1.2,0.8c0.3,0.3 0.5,0.5 0.5,0.9c0,0.2 -0.1,0.5 -0.4,0.6c-0.3,0.2 -0.9,0.4 -1.7,0.5c-0.8,0.1 -1.9,0.2 -3.3,0.2c-1.5,0 -3.3,-0.1 -5.5,-0.2c-8.4,-0.5 -23.5,-0.7 -40.4,-0.7c-18.8,0 -39.9,0.2 -56.2,0.5c-8.2,0.1 -15.1,0.2 -20.1,0.3c-2.5,0 -4.4,0.1 -5.8,0.1c-1.3,0 -2.1,0 -2.1,0l-0.1,0l-0.1,-0.1c0,0 -0.7,-0.6 -1.4,-1.5c-0.7,-0.9 -1.4,-2 -1.4,-2.9c0,-0.5 0.2,-1 0.7,-1.3c0.5,-0.3 1.3,-0.5 2.3,-0.5l0.2,0c24.5,0.5 51.2,1 75.2,1c18.8,0 35.9,-0.3 49.2,-1.1l-0.1,0.2" style="fill:#d1c46d;fill-rule:nonzero;"/><path d="M221.742,26.514c-49,4.3 -128.3,4.3 -177.3,0c-49,-4.3 -49,-11.2 0,-15.5c49,-4.3 128.3,-4.3 177.3,0c49,4.3 49,11.2 0,15.5" style="fill:#f8a591;fill-rule:nonzero;stroke:#292929;stroke-width:0.4px;"/><path d="M412.742,28.514c-5.5,5.5 -14.5,5.5 -20.1,0c-5.5,-5.5 -5.5,-14.5 0,-20.1c5.5,-5.5 14.5,-5.5 20.1,0c5.5,5.5 5.5,14.5 0,20.1" style="fill:#1f5ea8;fill-rule:nonzero;"/><path d="M412.942,28.714c-2.8,2.8 -6.5,4.2 -10.2,4.2c-3.7,0 -7.4,-1.4 -10.2,-4.2c-2.8,-2.8 -4.2,-6.5 -4.2,-10.2c0,-3.7 1.4,-7.4 4.2,-10.2c2.8,-2.8 6.5,-4.2 10.2,-4.2c3.7,0 7.4,1.4 10.2,4.2c2.8,2.8 4.2,6.5 4.2,10.2c0,3.7 -1.4,7.4 -4.2,10.2l-0.3,-0.3c2.7,-2.7 4.1,-6.3 4.1,-9.9c0,-3.6 -1.4,-7.1 -4.1,-9.9c-2.7,-2.7 -6.3,-4.1 -9.9,-4.1c-3.6,0 -7.1,1.4 -9.9,4.1c-2.7,2.7 -4.1,6.3 -4.1,9.9c0,3.6 1.4,7.2 4.1,9.9c2.7,2.7 6.3,4.1 9.9,4.1c3.6,0 7.2,-1.4 9.9,-4.1l0.3,0.3" style="fill:#292929;fill-rule:nonzero;"/><path d="M100.642,24.014l0,2.8l21.8,-8l-21.8,-8l0,2.8l-29,0l0,10.4" style="fill:#f69278;fill-rule:nonzero;"/><path d="M383.842,32.714l0.9,-8.4c1.1,0.1 2.1,0.2 3,0.3l0.2,7.7l-4.2,0.3m2.2,-19.5l1.1,-9.9l0.3,9.8c-0.5,0.1 -0.9,0.1 -1.4,0.2" style="fill:#b3cc94;fill-rule:nonzero;"/><path d="M383.342,37.114l0.4,-4l4.3,-0.3l0.1,4.5l-4.8,-0.2" style="fill:#79ad4d;fill-rule:nonzero;"/><path d="M383.742,33.114l0.1,-0.4l4.2,-0.3l0,0.4l-4.3,0.3" style="fill:#4c6142;fill-rule:nonzero;"/><path d="M384.842,23.914l0.2,-2c0.9,0 1.8,0.1 2.7,0.1l0.1,2.2c-0.9,-0.1 -1.9,-0.2 -3,-0.3m0.9,-7.7l0.3,-2.5c0.5,-0.1 1,-0.1 1.5,-0.2l0.1,2.5c-0.6,0 -1.2,0.1 -1.8,0.1" style="fill:#b4c86d;fill-rule:nonzero;"/><path d="M384.742,24.314l0,-0.4c1,0.1 2,0.2 3,0.3l0,0.4c-0.9,-0.1 -1.9,-0.2 -3,-0.3m1.2,-10.6l0.1,-0.5c0.5,0 0.9,-0.1 1.4,-0.2l0,0.4c-0.5,0.1 -1,0.1 -1.5,0.2" style="fill:#4c6142;fill-rule:nonzero;"/><path d="M385.042,21.414l0.5,-4.8c0.6,0 1.3,-0.1 1.9,-0.1l0.2,5.1c-0.8,0 -1.7,-0.1 -2.6,-0.1" style="fill:#b5c761;fill-rule:nonzero;"/><path d="M385.042,21.814l0.1,-0.4c0.9,0 1.8,0.1 2.6,0.1l0,0.4c-0.8,0 -1.7,-0.1 -2.7,-0.1m0.6,-5.3l0.1,-0.4c0.6,0 1.2,-0.1 1.8,-0.1l0,0.4c-0.6,0 -1.3,0.1 -1.9,0.1" style="fill:#a3b757;fill-rule:nonzero;"/><path d="M383.342,32.714l0.9,-8.4c0.1,0 0.3,0 0.4,0l-0.9,8.4l-0.4,0m2.2,-19.4l1.5,-13.1l0.4,0l0.4,12.8c-0.1,0 -0.3,0 -0.4,0.1l-0.3,-9.8l-1.1,9.9c-0.1,0 -0.3,0 -0.5,0m2.2,11.3c0.2,0 0.3,0 0.4,0.1l0.2,7.6l-0.4,0l-0.2,-7.7" style="fill:#666464;fill-rule:nonzero;"/><path d="M382.842,37.314l0.5,-4.1l0.5,0l-0.4,4l4.8,0.2l-0.1,-4.5l0.3,0l0,4.8l-0.2,0l0.2,0l0,0.1l-5.5,-0.3" style="fill:#475740;fill-rule:nonzero;"/><path d="M382.842,37.514l0,-0.3l5.5,0.3l0,-0.1l0,-4.8l-0.3,0l0,-0.4l0.4,0l0.2,5.4l-0.2,0l-5.6,-0.2m0.5,-4.4l0.1,-0.4l0.4,0l0,0.4l-0.4,0" style="fill:#292929;fill-rule:nonzero;"/><path d="M384.342,23.814l0.2,-2c0.1,0 0.3,0 0.4,0l-0.2,2c-0.1,0 -0.3,0 -0.4,0m0.9,-7.7l0.3,-2.4c0.2,0 0.3,0 0.5,0l-0.3,2.5c-0.1,0 -0.3,0 -0.4,0m2.2,-2.6c0.1,0 0.3,0 0.4,0l0.1,2.5c-0.1,0 -0.3,0 -0.4,0l-0.1,-2.5m0.3,8.5c0.2,0 0.3,0 0.4,0l0.1,2.2c-0.1,0 -0.3,0 -0.4,-0.1l-0.1,-2.2" style="fill:#666252;fill-rule:nonzero;"/><path d="M384.342,24.314l0.1,-0.4c0.1,0 0.3,0 0.4,0l0,0.4c-0.1,0 -0.3,0 -0.4,0m1.2,-10.6l0.1,-0.4c0.2,0 0.3,0 0.5,0l-0.1,0.5c-0.1,0 -0.3,0 -0.5,0m1.9,-0.6c0.1,0 0.3,0 0.4,0l0,0.4c-0.1,0 -0.3,0 -0.4,0.1l0,-0.4m0.3,11.1c0.2,0 0.3,0 0.4,0.1l0,0.4c-0.1,0 -0.3,0 -0.4,-0.1l0,-0.4" style="fill:#292929;fill-rule:nonzero;"/><path d="M384.642,21.414l0.5,-4.8c0.2,0 0.3,0 0.4,0l-0.5,4.8c-0.1,0 -0.3,0 -0.4,0m2.9,-4.9c0.1,0 0.3,0 0.4,0l0.2,5.1c-0.1,0 -0.3,0 -0.4,0l-0.2,-5.1" style="fill:#66624d;fill-rule:nonzero;"/><path d="M384.542,21.814l0.1,-0.4c0.1,0 0.3,0 0.4,0l0,0.4c-0.1,0 -0.3,0 -0.4,0m0.6,-5.2l0,-0.4c0.2,0 0.3,0 0.5,0l-0.1,0.4c-0.1,0 -0.3,0 -0.4,0m2.3,-0.6c0.1,0 0.3,0 0.4,0l0,0.4c-0.1,0 -0.3,0 -0.4,0l0,-0.4m0.2,5.5c0.2,0 0.3,0 0.4,0l0,0.4c-0.1,0 -0.3,0 -0.4,0l0,-0.4" style="fill:#5c5a48;fill-rule:nonzero;"/><path d="M386.542,35.914c-0.3,0.3 -0.9,0.3 -1.2,0c-0.3,-0.3 -0.3,-0.9 0,-1.2c0.3,-0.3 0.9,-0.3 1.2,0c0.3,0.3 0.3,0.9 0,1.2" style="fill:#292929;fill-rule:nonzero;stroke:#292929;stroke-width:0.4px;"/><path d="M69.942,13.614l0,-2.8l20.6,8l-20.6,8l0,-2.8l-45.2,0l0,-10.4" style="fill:#f8b1a3;fill-rule:nonzero;"/><path d="M157.342,13.614l0,-2.8l-21.8,8l21.8,8l0,-2.8l58.6,0l0,-10.4" style="fill:#f69278;fill-rule:nonzero;"/><path d="M192.142,13.614l0,-2.8l-21.8,8l21.8,8l0,-2.8l51.5,0l0,-10.4" style="fill:#f8b1a3;fill-rule:nonzero;"/><path d="M265.542,28.514c-5.5,5.5 -14.5,5.5 -20.1,0c-5.5,-5.5 -5.5,-14.5 0,-20.1c5.5,-5.5 14.5,-5.5 20.1,0c5.5,5.5 5.5,14.5 0,20.1" style="fill:#b23d37;fill-rule:nonzero;stroke:#292929;stroke-width:0.4px;"/><path d="M7.742,9.514l0,19.2" style="fill:none;stroke:#292929;stroke-width:1px;"/><path d="M-0.058,22.214l7.7,6.4" style="fill:none;stroke:#292929;stroke-width:0.4px;"/><path d="M-0.058,3.714l7.7,6.4" style="fill:none;stroke:#292929;stroke-width:0.4px;"/><path d="M-0.058,12.914l7.7,6.4" style="fill:none;stroke:#292929;stroke-width:0.4px;"/><path d="M-0.058,17.314l7.7,6.4" style="fill:none;stroke:#292929;stroke-width:0.4px;"/><path d="M-0.058,8.614l7.7,6.4" style="fill:none;stroke:#292929;stroke-width:0.4px;"/></svg>
