<?xml version="1.0" encoding="UTF-8" standalone="no"?><!DOCTYPE svg PUBLIC "-//W3C//DTD SVG 1.1//EN" "http://www.w3.org/Graphics/SVG/1.1/DTD/svg11.dtd"><svg width="100%" height="100%" viewBox="0 0 1280 800" version="1.1" xmlns="http://www.w3.org/2000/svg" xmlns:xlink="http://www.w3.org/1999/xlink" xml:space="preserve" style="fill-rule:evenodd;clip-rule:evenodd;stroke-linecap:round;stroke-linejoin:round;stroke-miterlimit:1.5;"><path d="M1028.65,339.106l0,20.105l-26.481,0l0,-20.105m-8.757,0l22.205,-20.06l22.206,20.06" style="fill:#dbe7ff;"/><path d="M195.799,430.347c-33.342,1.751 -36.961,-90.615 4.42,-99.004c41.328,-8.378 40.382,41.001 58.171,50.721c13.781,7.53 386.33,23.523 533.531,5.574c11.036,-1.346 15.952,18.559 15.952,27.045c0,8.486 -2.807,12.092 -11.439,12.092c0,0 -490.524,-2.208 -600.635,3.572Z" style="fill:#fffdef;stroke:#000;stroke-width:0.5px;"/><path d="M206.865,424.88c-29.53,2.061 -32.415,-23.943 7.706,-26.382c40.071,-2.437 39.154,11.922 56.401,14.748c13.362,2.19 508.003,1.621 508.003,1.621c8.37,0 18.3,5.396 18.3,7.864c0,2.467 -5.555,1.792 -13.924,1.792c0,0 -458.09,-7.906 -576.486,0.357Z" style="fill:#fffce5;"/><path d="M810.239,379.132c8.886,0 65.59,15.523 80.95,28.117c4.994,4.095 10.309,0.972 10.254,0.828c-11.906,-31.426 -58.367,-44.005 -93.039,-47.691c-38.271,-4.069 -141.148,-4.131 -141.148,-4.131c-69.009,0.346 -134.984,-8.443 -41.279,12.984c-94.022,23.137 -26.38,13.305 41.279,12.998l142.983,-3.105Z" style="fill:#fff6cd;stroke:#000;stroke-width:0.5px;"/><path d="M197.167,387.154c-3.491,0 -6.951,-8.381 -6.784,-18.458c0.149,-9.052 4.227,-17.24 6.784,-17.24c0,0 29.551,0.567 37.96,-1c12.033,-2.243 35.835,-16.259 10.958,18.849c24.961,37.911 0.884,21.175 -10.958,18.849c-8.399,-1.65 -37.96,-1 -37.96,-1" style="fill:#fff6cd;stroke:#000;stroke-width:0.5px;"/><path d="M778.3,377.004c4.751,-0.039 2.384,-7.812 9.179,-7.966" style="fill:none;stroke:#000;stroke-width:1px;"/><text x="689.413px" y="349.168px" style="font-family:'ArialMT', 'Arial', sans-serif;font-size:16px;">Spring</text><path d="M644.086,376.992c-4.602,-0.033 -2.318,-7.674 -8.862,-7.585" style="fill:none;stroke:#000;stroke-width:1px;"/><path d="M425.543,317.246c143.842,0.157 202.308,22.16 202.308,51.917c0,29.758 -65.888,49.563 -202.308,49.918c-147.403,0.383 -199.154,-20.16 -199.154,-49.918c0,-29.757 58.553,-52.07 199.154,-51.917Z" style="fill:#ffe3dd;stroke:#000;stroke-width:0.5px;"/><path d="M508.754,344.902l69.27,0l0,48.128l-69.27,0m0,15.915l-69.118,-40.357l69.118,-40.356" style="fill:#ffd9d0;"/><path d="M510.464,350.685l19.578,-0.009" style="fill:none;stroke:#000;stroke-width:1px;"/><rect x="414.572" y="343.32" width="95.983" height="14.948" style="fill:#bde6b6;stroke:#000;stroke-width:1px;"/><rect x="286.797" y="335.979" width="128.098" height="29.015" style="fill:#8fd682;stroke:#000;stroke-width:1px;"/><rect x="290.797" y="332.551" width="4.364" height="3.428" style="fill:#519d44;stroke:#000;stroke-width:1px;"/><rect x="406.797" y="332.551" width="4.364" height="3.428" style="fill:#519d44;stroke:#000;stroke-width:1px;"/><path d="M266.658,350.898l19.963,0" style="fill:none;stroke:#000;stroke-width:1px;"/><text x="321.275px" y="355.875px" style="font-family:'ArialMT', 'Arial', sans-serif;font-size:16px;">Actuator</text><text x="390.288px" y="304.313px" style="font-family:'Arial-BoldMT', 'Arial', sans-serif;font-weight:700;font-size:20px;">Muscle</text><text x="805.837px" y="304.313px" style="font-family:'Arial-BoldMT', 'Arial', sans-serif;font-weight:700;font-size:20px;">Appendage</text><text x="678.656px" y="304.313px" style="font-family:'Arial-BoldMT', 'Arial', sans-serif;font-weight:700;font-size:20px;">T<tspan x="689.388px 700.511px " y="304.313px 304.313px ">en</tspan>don</text><text x="970.125px" y="304.313px" style="font-family:'Arial-BoldMT', 'Arial', sans-serif;font-weight:700;font-size:20px;">Projectile</text><path d="M431.961,384.684l0,-11.705l-145.164,0l0,29.015l145.164,0l0,-11.288" style="fill:#f89794;stroke:#000;stroke-width:1px;"/><path d="M266.621,387.898l20,0" style="fill:none;stroke:#000;stroke-width:1px;"/><path d="M190.292,369.421l76.276,0" style="fill:none;stroke:#000;stroke-width:1px;"/><path d="M595.892,369.421l39.541,-0.017" style="fill:none;stroke:#000;stroke-width:1px;"/><path d="M530.394,369.421l20.169,0" style="fill:none;stroke:#000;stroke-width:1px;"/><path d="M414.184,387.729l115.919,-0.053" style="fill:none;stroke:#000;stroke-width:1px;"/><text x="321.855px" y="391.875px" style="font-family:'ArialMT', 'Arial', sans-serif;font-size:16px;">Damper</text><path d="M413.87,377.447l0,20.498" style="fill:none;stroke:#000;stroke-width:2px;"/><path d="M266.546,350.956l0,36.858" style="fill:none;stroke:#000;stroke-width:1px;"/><path d="M530.127,350.694l0,36.991" style="fill:none;stroke:#000;stroke-width:1px;"/><circle cx="577.114" cy="369.487" r="26.649" style="fill:#f89794;stroke:#000;stroke-width:1px;"/><text x="557.548px" y="374.149px" style="font-family:'ArialMT', 'Arial', sans-serif;font-size:16px;">Mass</text><path d="M787.272,369.052c0,0 86.077,-5.449 108.932,36.832" style="fill:none;stroke:#000;stroke-width:1px;"/><circle cx="1015.96" cy="379.379" r="31.912" style="fill:#79a6ff;stroke:#000;stroke-width:1px;"/><text x="996.304px" y="383.699px" style="font-family:'ArialMT', 'Arial', sans-serif;font-size:16px;">Mass</text><path d="M787.105,404.427c-1.249,-12.799 3.333,-25.873 15.109,-28.003c15.791,-2.858 67.487,0.515 88.358,28.041c6.571,6.962 140.011,7.383 152.66,2.103c5.07,-2.117 5.406,5.165 5.406,8.486c0,3.32 1.043,13.494 -5.406,11.438c-11.918,-3.8 -194.209,2.861 -241.726,0c-7.239,-0.436 -11.852,-6.976 -13.611,-16.046l5.651,-2.773l-6.441,-3.246Z" style="fill:#fffdef;stroke:#000;stroke-width:1px;"/><g><circle cx="807.686" cy="407.834" r="5.364" style="fill:none;stroke:#000;stroke-width:1px;"/><g><path d="M807.723,395.761c6.633,0 12.018,5.385 12.018,12.018" style="fill:none;stroke:#000;stroke-width:1.5px;"/><path d="M802.972,395.686l4.913,-1.737l0,3.474l-4.913,-1.737Z" style="stroke:#000;stroke-width:1px;"/></g></g><path d="M460.302,350.681l16.857,0.12" style="fill:none;stroke:#000;stroke-width:1.5px;"/><circle cx="895.81" cy="406.079" r="2.29" style="stroke:#000;stroke-width:1.5px;"/><circle cx="190.403" cy="369.442" r="2.29" style="stroke:#000;stroke-width:1.5px;"/><text x="832.342px" y="412.607px" style="font-family:'ArialMT', 'Arial', sans-serif;font-size:16px;">Lever</text><text x="734.259px" y="412.607px" style="font-family:'ArialMT', 'Arial', sans-serif;font-size:16px;">Latch</text><path d="M456.551,350.606l4.913,-1.737l0,3.474l-4.913,-1.737Z" style="stroke:#000;stroke-width:1px;"/><g><g><path d="M650.273,376.997c-3.177,0.055 -6.485,-3.441 -7.383,-7.801c-0.897,-4.361 0.953,-7.946 4.13,-8" style="fill:none;stroke:#000;stroke-width:1px;"/><path d="M643.943,376.997c3.177,0.055 6.485,-3.441 7.383,-7.801c0.897,-4.361 -0.953,-7.946 -4.13,-8" style="fill:none;stroke:#000;stroke-width:1px;"/></g><g><path d="M656.374,376.997c-3.177,0.055 -6.485,-3.441 -7.383,-7.801c-0.897,-4.361 0.954,-7.946 4.131,-8" style="fill:none;stroke:#000;stroke-width:1px;"/><path d="M650.045,376.997c3.176,0.055 6.484,-3.441 7.382,-7.801c0.897,-4.361 -0.953,-7.946 -4.13,-8" style="fill:none;stroke:#000;stroke-width:1px;"/></g><g><path d="M662.475,376.997c-3.177,0.055 -6.485,-3.441 -7.383,-7.801c-0.897,-4.361 0.954,-7.946 4.131,-8" style="fill:none;stroke:#000;stroke-width:1px;"/><path d="M656.146,376.997c3.177,0.055 6.485,-3.441 7.382,-7.801c0.897,-4.361 -0.953,-7.946 -4.13,-8" style="fill:none;stroke:#000;stroke-width:1px;"/></g><g><path d="M668.576,376.997c-3.177,0.055 -6.485,-3.441 -7.382,-7.801c-0.898,-4.361 0.953,-7.946 4.13,-8" style="fill:none;stroke:#000;stroke-width:1px;"/><path d="M662.247,376.997c3.177,0.055 6.485,-3.441 7.382,-7.801c0.898,-4.361 -0.953,-7.946 -4.13,-8" style="fill:none;stroke:#000;stroke-width:1px;"/></g><g><path d="M674.677,376.997c-3.177,0.055 -6.485,-3.441 -7.382,-7.801c-0.898,-4.361 0.953,-7.946 4.13,-8" style="fill:none;stroke:#000;stroke-width:1px;"/><path d="M668.348,376.997c3.177,0.055 6.485,-3.441 7.382,-7.801c0.898,-4.361 -0.953,-7.946 -4.13,-8" style="fill:none;stroke:#000;stroke-width:1px;"/></g><g><path d="M680.778,376.997c-3.177,0.055 -6.485,-3.441 -7.382,-7.801c-0.898,-4.361 0.953,-7.946 4.13,-8" style="fill:none;stroke:#000;stroke-width:1px;"/><path d="M674.449,376.997c3.177,0.055 6.485,-3.441 7.382,-7.801c0.898,-4.361 -0.953,-7.946 -4.13,-8" style="fill:none;stroke:#000;stroke-width:1px;"/></g><g><path d="M686.879,376.997c-3.177,0.055 -6.485,-3.441 -7.382,-7.801c-0.898,-4.361 0.953,-7.946 4.13,-8" style="fill:none;stroke:#000;stroke-width:1px;"/><path d="M680.55,376.997c3.177,0.055 6.485,-3.441 7.383,-7.801c0.897,-4.361 -0.954,-7.946 -4.131,-8" style="fill:none;stroke:#000;stroke-width:1px;"/></g><g><path d="M692.98,376.997c-3.177,0.055 -6.484,-3.441 -7.382,-7.801c-0.897,-4.361 0.953,-7.946 4.13,-8" style="fill:none;stroke:#000;stroke-width:1px;"/><path d="M686.651,376.997c3.177,0.055 6.485,-3.441 7.383,-7.801c0.897,-4.361 -0.954,-7.946 -4.131,-8" style="fill:none;stroke:#000;stroke-width:1px;"/></g><g><path d="M699.082,376.997c-3.177,0.055 -6.485,-3.441 -7.383,-7.801c-0.897,-4.361 0.953,-7.946 4.13,-8" style="fill:none;stroke:#000;stroke-width:1px;"/><path d="M692.752,376.997c3.177,0.055 6.485,-3.441 7.383,-7.801c0.897,-4.361 -0.953,-7.946 -4.13,-8" style="fill:none;stroke:#000;stroke-width:1px;"/></g><g><path d="M705.183,376.997c-3.177,0.055 -6.485,-3.441 -7.383,-7.801c-0.897,-4.361 0.954,-7.946 4.131,-8" style="fill:none;stroke:#000;stroke-width:1px;"/><path d="M698.853,376.997c3.177,0.055 6.485,-3.441 7.383,-7.801c0.897,-4.361 -0.953,-7.946 -4.13,-8" style="fill:none;stroke:#000;stroke-width:1px;"/></g><g><path d="M717.385,376.997c-3.177,0.055 -6.485,-3.441 -7.382,-7.801c-0.898,-4.361 0.953,-7.946 4.13,-8" style="fill:none;stroke:#000;stroke-width:1px;"/><path d="M711.056,376.997c3.177,0.055 6.485,-3.441 7.382,-7.801c0.898,-4.361 -0.953,-7.946 -4.13,-8" style="fill:none;stroke:#000;stroke-width:1px;"/></g><g><path d="M723.486,376.997c-3.177,0.055 -6.485,-3.441 -7.382,-7.801c-0.898,-4.361 0.953,-7.946 4.13,-8" style="fill:none;stroke:#000;stroke-width:1px;"/><path d="M717.157,376.997c3.177,0.055 6.485,-3.441 7.382,-7.801c0.898,-4.361 -0.953,-7.946 -4.13,-8" style="fill:none;stroke:#000;stroke-width:1px;"/></g><g><path d="M711.284,376.997c-3.177,0.055 -6.485,-3.441 -7.383,-7.801c-0.897,-4.361 0.954,-7.946 4.131,-8" style="fill:none;stroke:#000;stroke-width:1px;"/><path d="M704.955,376.997c3.177,0.055 6.485,-3.441 7.382,-7.801c0.897,-4.361 -0.953,-7.946 -4.13,-8" style="fill:none;stroke:#000;stroke-width:1px;"/></g><g><path d="M729.587,376.997c-3.177,0.055 -6.485,-3.441 -7.382,-7.801c-0.898,-4.361 0.953,-7.946 4.13,-8" style="fill:none;stroke:#000;stroke-width:1px;"/><path d="M723.258,376.997c3.177,0.055 6.485,-3.441 7.382,-7.801c0.898,-4.361 -0.953,-7.946 -4.13,-8" style="fill:none;stroke:#000;stroke-width:1px;"/></g><g><path d="M735.688,376.997c-3.177,0.055 -6.485,-3.441 -7.382,-7.801c-0.898,-4.361 0.953,-7.946 4.13,-8" style="fill:none;stroke:#000;stroke-width:1px;"/><path d="M729.359,376.997c3.177,0.055 6.485,-3.441 7.382,-7.801c0.898,-4.361 -0.953,-7.946 -4.13,-8" style="fill:none;stroke:#000;stroke-width:1px;"/></g><g><path d="M741.789,376.997c-3.177,0.055 -6.484,-3.441 -7.382,-7.801c-0.897,-4.361 0.953,-7.946 4.13,-8" style="fill:none;stroke:#000;stroke-width:1px;"/><path d="M735.46,376.997c3.177,0.055 6.485,-3.441 7.383,-7.801c0.897,-4.361 -0.954,-7.946 -4.131,-8" style="fill:none;stroke:#000;stroke-width:1px;"/></g><g><path d="M747.891,376.997c-3.177,0.055 -6.485,-3.441 -7.383,-7.801c-0.897,-4.361 0.953,-7.946 4.13,-8" style="fill:none;stroke:#000;stroke-width:1px;"/><path d="M741.561,376.997c3.177,0.055 6.485,-3.441 7.383,-7.801c0.897,-4.361 -0.954,-7.946 -4.131,-8" style="fill:none;stroke:#000;stroke-width:1px;"/></g><g><path d="M753.992,376.997c-3.177,0.055 -6.485,-3.441 -7.383,-7.801c-0.897,-4.361 0.953,-7.946 4.13,-8" style="fill:none;stroke:#000;stroke-width:1px;"/><path d="M747.662,376.997c3.177,0.055 6.485,-3.441 7.383,-7.801c0.897,-4.361 -0.953,-7.946 -4.13,-8" style="fill:none;stroke:#000;stroke-width:1px;"/></g><g><path d="M760.093,376.997c-3.177,0.055 -6.485,-3.441 -7.383,-7.801c-0.897,-4.361 0.954,-7.946 4.131,-8" style="fill:none;stroke:#000;stroke-width:1px;"/><path d="M753.764,376.997c3.177,0.055 6.484,-3.441 7.382,-7.801c0.897,-4.361 -0.953,-7.946 -4.13,-8" style="fill:none;stroke:#000;stroke-width:1px;"/></g><g><path d="M766.194,376.997c-3.177,0.055 -6.485,-3.441 -7.382,-7.801c-0.898,-4.361 0.953,-7.946 4.13,-8" style="fill:none;stroke:#000;stroke-width:1px;"/><path d="M759.865,376.997c3.177,0.055 6.485,-3.441 7.382,-7.801c0.898,-4.361 -0.953,-7.946 -4.13,-8" style="fill:none;stroke:#000;stroke-width:1px;"/></g><g><path d="M772.295,376.997c-3.177,0.055 -6.485,-3.441 -7.382,-7.801c-0.898,-4.361 0.953,-7.946 4.13,-8" style="fill:none;stroke:#000;stroke-width:1px;"/><path d="M765.966,376.997c3.177,0.055 6.485,-3.441 7.382,-7.801c0.898,-4.361 -0.953,-7.946 -4.13,-8" style="fill:none;stroke:#000;stroke-width:1px;"/></g><g><path d="M778.396,376.997c-3.177,0.055 -6.485,-3.441 -7.382,-7.801c-0.898,-4.361 0.953,-7.946 4.13,-8" style="fill:none;stroke:#000;stroke-width:1px;"/><path d="M772.067,376.997c3.177,0.055 6.485,-3.441 7.382,-7.801c0.898,-4.361 -0.953,-7.946 -4.13,-8" style="fill:none;stroke:#000;stroke-width:1px;"/></g></g><path d="M788.989,407.586l-8.766,4.303l0,-8.606l8.766,4.303Z" style="fill:#4fb353;stroke:#000;stroke-width:0.5px;"/></svg>
