<?xml version="1.0" encoding="UTF-8" standalone="no"?><!DOCTYPE svg PUBLIC "-//W3C//DTD SVG 1.1//EN" "http://www.w3.org/Graphics/SVG/1.1/DTD/svg11.dtd"><svg width="100%" height="100%" viewBox="0 0 900 150" version="1.1" xmlns="http://www.w3.org/2000/svg" xmlns:xlink="http://www.w3.org/1999/xlink" xml:space="preserve" style="fill-rule:evenodd;clip-rule:evenodd;stroke-linecap:round;stroke-linejoin:round;stroke-miterlimit:1.5;"><path d="M862.861,54.327l0,20.105l-26.481,0l0,-20.105m-8.756,0l22.205,-20.06l22.205,20.06" style="fill:#dbe7ff;"/><path d="M30.013,145.568c-33.343,1.751 -36.962,-90.615 4.419,-99.004c41.328,-8.378 40.382,41.001 58.171,50.721c13.781,7.53 386.33,23.523 533.531,5.573c11.036,-1.345 15.952,18.56 15.952,27.046c0,8.486 -2.807,12.091 -11.439,12.091c0,0 -490.524,-2.207 -600.634,3.573Z" style="fill:#fcfcfc;stroke:#000;stroke-width:0.5px;"/><path d="M644.453,94.353c8.885,0 65.589,15.523 80.949,28.117c4.994,4.095 10.309,0.972 10.254,0.828c-11.906,-31.426 -58.367,-44.005 -93.039,-47.691c-38.27,-4.07 -141.148,-4.131 -141.148,-4.131c-69.008,0.346 -134.984,-8.443 -41.279,12.983c-94.022,23.138 -26.38,13.306 41.279,12.999l142.984,-3.105Z" style="fill:#fff6cd;stroke:#000;stroke-width:0.5px;"/><path d="M31.38,102.375c-3.491,0 -6.951,-8.381 -6.784,-18.458c0.149,-9.052 4.227,-17.24 6.784,-17.24c0,0 29.551,0.567 37.96,-1c12.033,-2.243 35.836,-16.259 10.958,18.849c24.962,37.911 0.884,21.175 -10.958,18.849c-8.399,-1.65 -37.96,-1 -37.96,-1" style="fill:#fff6cd;stroke:#000;stroke-width:0.5px;"/><path d="M612.513,92.225c4.751,-0.039 2.384,-7.812 9.179,-7.966" style="fill:none;stroke:#000;stroke-width:1px;"/><text x="521.626px" y="64.389px" style="font-family:'ArialMT', 'Arial', sans-serif;font-size:16px;">Spring</text><path d="M478.299,92.213c-4.602,-0.034 -2.318,-7.674 -8.862,-7.586" style="fill:none;stroke:#000;stroke-width:1px;"/><path d="M259.757,32.467c143.842,0.157 202.307,22.16 202.307,51.917c0,29.758 -65.887,49.563 -202.307,49.918c-147.404,0.383 -199.155,-20.16 -199.155,-49.918c0,-29.757 58.553,-52.07 199.155,-51.917Z" style="fill:#ffe3dd;stroke:#000;stroke-width:0.5px;"/><path d="M345.159,60.123l67.078,0l0,48.128l-67.078,0m0,15.915l-68.055,-41.493l68.055,-39.22" style="fill:#ffd9d0;"/><path d="M344.677,65.906l19.578,-0.009" style="fill:none;stroke:#000;stroke-width:1px;"/><rect x="248.785" y="58.541" width="95.983" height="14.948" style="fill:#bde6b6;stroke:#000;stroke-width:1px;"/><rect x="121.01" y="51.2" width="128.098" height="29.015" style="fill:#8fd682;stroke:#000;stroke-width:1px;"/><rect x="125.01" y="47.772" width="4.364" height="3.428" style="fill:#519d44;stroke:#000;stroke-width:1px;"/><rect x="241.01" y="47.772" width="4.364" height="3.428" style="fill:#519d44;stroke:#000;stroke-width:1px;"/><path d="M100.872,66.119l19.963,0" style="fill:none;stroke:#000;stroke-width:1px;"/><text x="155.489px" y="71.095px" style="font-family:'ArialMT', 'Arial', sans-serif;font-size:16px;">Actuator</text><text x="224.501px" y="19.534px" style="font-family:'Arial-BoldMT', 'Arial', sans-serif;font-weight:700;font-size:20px;">Muscle</text><text x="640.05px" y="19.534px" style="font-family:'Arial-BoldMT', 'Arial', sans-serif;font-weight:700;font-size:20px;">Appendage</text><text x="508.869px" y="19.534px" style="font-family:'Arial-BoldMT', 'Arial', sans-serif;font-weight:700;font-size:20px;">T<tspan x="519.601px 530.724px " y="19.534px 19.534px ">en</tspan>don</text><text x="804.338px" y="19.534px" style="font-family:'Arial-BoldMT', 'Arial', sans-serif;font-weight:700;font-size:20px;">Projectile</text><path d="M266.175,99.905l0,-11.705l-145.165,0l0,29.015l145.165,0l0,-11.289" style="fill:#f89794;stroke:#000;stroke-width:1px;"/><path d="M100.834,103.119l20.001,0" style="fill:none;stroke:#000;stroke-width:1px;"/><path d="M24.505,84.642l76.276,0" style="fill:none;stroke:#000;stroke-width:1px;"/><path d="M430.105,84.642l39.541,-0.017" style="fill:none;stroke:#000;stroke-width:1px;"/><path d="M364.607,84.642l20.17,0" style="fill:none;stroke:#000;stroke-width:1px;"/><path d="M248.397,102.95l115.919,-0.053" style="fill:none;stroke:#000;stroke-width:1px;"/><text x="156.068px" y="107.095px" style="font-family:'ArialMT', 'Arial', sans-serif;font-size:16px;">Damper</text><path d="M248.083,92.668l0,20.498" style="fill:none;stroke:#000;stroke-width:2px;"/><path d="M100.759,66.177l0,36.858" style="fill:none;stroke:#000;stroke-width:1px;"/><path d="M364.341,65.915l0,36.991" style="fill:none;stroke:#000;stroke-width:1px;"/><circle cx="411.327" cy="84.708" r="26.649" style="fill:#f89794;stroke:#000;stroke-width:1px;"/><text x="391.762px" y="89.37px" style="font-family:'ArialMT', 'Arial', sans-serif;font-size:16px;">Mass</text><path d="M621.485,84.273c0,0 86.077,-5.449 108.932,36.832" style="fill:none;stroke:#000;stroke-width:1px;"/><circle cx="850.172" cy="94.6" r="31.912" style="fill:#79a6ff;stroke:#000;stroke-width:1px;"/><text x="830.517px" y="98.92px" style="font-family:'ArialMT', 'Arial', sans-serif;font-size:16px;">Mass</text><path d="M621.319,119.648c-1.25,-12.799 3.333,-25.873 15.108,-28.003c15.791,-2.858 67.487,0.515 88.358,28.041c6.571,6.962 140.011,7.383 152.66,2.103c5.07,-2.117 5.407,5.165 5.407,8.486c0,3.32 1.043,13.494 -5.407,11.438c-11.918,-3.8 -194.208,2.861 -241.725,0c-7.239,-0.436 -11.853,-6.976 -13.612,-16.046l5.651,-2.773l-6.44,-3.246Z" style="fill:#fffdef;stroke:#000;stroke-width:1px;"/><g><circle cx="641.899" cy="123.055" r="5.364" style="fill:none;stroke:#000;stroke-width:1px;"/><g><path d="M641.936,110.982c6.633,0 12.018,5.385 12.018,12.018" style="fill:none;stroke:#000;stroke-width:1.5px;"/><path d="M637.185,110.907l4.913,-1.737l0,3.474l-4.913,-1.737Z" style="stroke:#000;stroke-width:1px;"/></g></g><path d="M294.515,65.902l16.857,0.12" style="fill:none;stroke:#000;stroke-width:1.5px;"/><circle cx="730.023" cy="121.3" r="2.29" style="stroke:#000;stroke-width:1.5px;"/><circle cx="24.616" cy="84.663" r="2.29" style="stroke:#000;stroke-width:1.5px;"/><text x="666.555px" y="127.828px" style="font-family:'ArialMT', 'Arial', sans-serif;font-size:16px;">Lever</text><text x="568.472px" y="127.828px" style="font-family:'ArialMT', 'Arial', sans-serif;font-size:16px;">Latch</text><path d="M290.764,65.827l4.913,-1.737l0,3.473l-4.913,-1.736Z" style="stroke:#000;stroke-width:1px;"/><g><g><path d="M484.486,92.218c-3.177,0.055 -6.485,-3.441 -7.383,-7.801c-0.897,-4.361 0.954,-7.946 4.131,-8" style="fill:none;stroke:#000;stroke-width:1px;"/><path d="M478.157,92.218c3.177,0.055 6.484,-3.441 7.382,-7.801c0.897,-4.361 -0.953,-7.946 -4.13,-8" style="fill:none;stroke:#000;stroke-width:1px;"/></g><g><path d="M490.587,92.218c-3.177,0.055 -6.485,-3.441 -7.382,-7.801c-0.898,-4.361 0.953,-7.946 4.13,-8" style="fill:none;stroke:#000;stroke-width:1px;"/><path d="M484.258,92.218c3.177,0.055 6.485,-3.441 7.382,-7.801c0.898,-4.361 -0.953,-7.946 -4.13,-8" style="fill:none;stroke:#000;stroke-width:1px;"/></g><g><path d="M496.688,92.218c-3.177,0.055 -6.485,-3.441 -7.382,-7.801c-0.898,-4.361 0.953,-7.946 4.13,-8" style="fill:none;stroke:#000;stroke-width:1px;"/><path d="M490.359,92.218c3.177,0.055 6.485,-3.441 7.382,-7.801c0.898,-4.361 -0.953,-7.946 -4.13,-8" style="fill:none;stroke:#000;stroke-width:1px;"/></g><g><path d="M502.789,92.218c-3.177,0.055 -6.485,-3.441 -7.382,-7.801c-0.898,-4.361 0.953,-7.946 4.13,-8" style="fill:none;stroke:#000;stroke-width:1px;"/><path d="M496.46,92.218c3.177,0.055 6.485,-3.441 7.382,-7.801c0.898,-4.361 -0.953,-7.946 -4.13,-8" style="fill:none;stroke:#000;stroke-width:1px;"/></g><g><path d="M508.89,92.218c-3.177,0.055 -6.485,-3.441 -7.382,-7.801c-0.898,-4.361 0.953,-7.946 4.13,-8" style="fill:none;stroke:#000;stroke-width:1px;"/><path d="M502.561,92.218c3.177,0.055 6.485,-3.441 7.382,-7.801c0.898,-4.361 -0.953,-7.946 -4.13,-8" style="fill:none;stroke:#000;stroke-width:1px;"/></g><g><path d="M514.991,92.218c-3.177,0.055 -6.485,-3.441 -7.382,-7.801c-0.897,-4.361 0.953,-7.946 4.13,-8" style="fill:none;stroke:#000;stroke-width:1px;"/><path d="M508.662,92.218c3.177,0.055 6.485,-3.441 7.383,-7.801c0.897,-4.361 -0.954,-7.946 -4.131,-8" style="fill:none;stroke:#000;stroke-width:1px;"/></g><g><path d="M521.093,92.218c-3.177,0.055 -6.485,-3.441 -7.383,-7.801c-0.897,-4.361 0.953,-7.946 4.13,-8" style="fill:none;stroke:#000;stroke-width:1px;"/><path d="M514.763,92.218c3.177,0.055 6.485,-3.441 7.383,-7.801c0.897,-4.361 -0.954,-7.946 -4.131,-8" style="fill:none;stroke:#000;stroke-width:1px;"/></g><g><path d="M527.194,92.218c-3.177,0.055 -6.485,-3.441 -7.383,-7.801c-0.897,-4.361 0.953,-7.946 4.13,-8" style="fill:none;stroke:#000;stroke-width:1px;"/><path d="M520.864,92.218c3.177,0.055 6.485,-3.441 7.383,-7.801c0.897,-4.361 -0.953,-7.946 -4.13,-8" style="fill:none;stroke:#000;stroke-width:1px;"/></g><g><path d="M533.295,92.218c-3.177,0.055 -6.485,-3.441 -7.383,-7.801c-0.897,-4.361 0.954,-7.946 4.131,-8" style="fill:none;stroke:#000;stroke-width:1px;"/><path d="M526.966,92.218c3.177,0.055 6.484,-3.441 7.382,-7.801c0.897,-4.361 -0.953,-7.946 -4.13,-8" style="fill:none;stroke:#000;stroke-width:1px;"/></g><g><path d="M539.396,92.218c-3.177,0.055 -6.485,-3.441 -7.383,-7.801c-0.897,-4.361 0.954,-7.946 4.131,-8" style="fill:none;stroke:#000;stroke-width:1px;"/><path d="M533.067,92.218c3.177,0.055 6.485,-3.441 7.382,-7.801c0.898,-4.361 -0.953,-7.946 -4.13,-8" style="fill:none;stroke:#000;stroke-width:1px;"/></g><g><path d="M551.598,92.218c-3.177,0.055 -6.485,-3.441 -7.382,-7.801c-0.898,-4.361 0.953,-7.946 4.13,-8" style="fill:none;stroke:#000;stroke-width:1px;"/><path d="M545.269,92.218c3.177,0.055 6.485,-3.441 7.382,-7.801c0.898,-4.361 -0.953,-7.946 -4.13,-8" style="fill:none;stroke:#000;stroke-width:1px;"/></g><g><path d="M557.699,92.218c-3.177,0.055 -6.485,-3.441 -7.382,-7.801c-0.898,-4.361 0.953,-7.946 4.13,-8" style="fill:none;stroke:#000;stroke-width:1px;"/><path d="M551.37,92.218c3.177,0.055 6.485,-3.441 7.382,-7.801c0.898,-4.361 -0.953,-7.946 -4.13,-8" style="fill:none;stroke:#000;stroke-width:1px;"/></g><g><path d="M545.497,92.218c-3.177,0.055 -6.485,-3.441 -7.382,-7.801c-0.898,-4.361 0.953,-7.946 4.13,-8" style="fill:none;stroke:#000;stroke-width:1px;"/><path d="M539.168,92.218c3.177,0.055 6.485,-3.441 7.382,-7.801c0.898,-4.361 -0.953,-7.946 -4.13,-8" style="fill:none;stroke:#000;stroke-width:1px;"/></g><g><path d="M563.8,92.218c-3.177,0.055 -6.485,-3.441 -7.382,-7.801c-0.897,-4.361 0.953,-7.946 4.13,-8" style="fill:none;stroke:#000;stroke-width:1px;"/><path d="M557.471,92.218c3.177,0.055 6.485,-3.441 7.383,-7.801c0.897,-4.361 -0.954,-7.946 -4.131,-8" style="fill:none;stroke:#000;stroke-width:1px;"/></g><g><path d="M569.901,92.218c-3.176,0.055 -6.484,-3.441 -7.382,-7.801c-0.897,-4.361 0.953,-7.946 4.13,-8" style="fill:none;stroke:#000;stroke-width:1px;"/><path d="M563.572,92.218c3.177,0.055 6.485,-3.441 7.383,-7.801c0.897,-4.361 -0.954,-7.946 -4.131,-8" style="fill:none;stroke:#000;stroke-width:1px;"/></g><g><path d="M576.003,92.218c-3.177,0.055 -6.485,-3.441 -7.383,-7.801c-0.897,-4.361 0.953,-7.946 4.13,-8" style="fill:none;stroke:#000;stroke-width:1px;"/><path d="M569.673,92.218c3.177,0.055 6.485,-3.441 7.383,-7.801c0.897,-4.361 -0.953,-7.946 -4.13,-8" style="fill:none;stroke:#000;stroke-width:1px;"/></g><g><path d="M582.104,92.218c-3.177,0.055 -6.485,-3.441 -7.383,-7.801c-0.897,-4.361 0.954,-7.946 4.131,-8" style="fill:none;stroke:#000;stroke-width:1px;"/><path d="M575.774,92.218c3.177,0.055 6.485,-3.441 7.383,-7.801c0.897,-4.361 -0.953,-7.946 -4.13,-8" style="fill:none;stroke:#000;stroke-width:1px;"/></g><g><path d="M588.205,92.218c-3.177,0.055 -6.485,-3.441 -7.383,-7.801c-0.897,-4.361 0.954,-7.946 4.131,-8" style="fill:none;stroke:#000;stroke-width:1px;"/><path d="M581.876,92.218c3.177,0.055 6.485,-3.441 7.382,-7.801c0.897,-4.361 -0.953,-7.946 -4.13,-8" style="fill:none;stroke:#000;stroke-width:1px;"/></g><g><path d="M594.306,92.218c-3.177,0.055 -6.485,-3.441 -7.382,-7.801c-0.898,-4.361 0.953,-7.946 4.13,-8" style="fill:none;stroke:#000;stroke-width:1px;"/><path d="M587.977,92.218c3.177,0.055 6.485,-3.441 7.382,-7.801c0.898,-4.361 -0.953,-7.946 -4.13,-8" style="fill:none;stroke:#000;stroke-width:1px;"/></g><g><path d="M600.407,92.218c-3.177,0.055 -6.485,-3.441 -7.382,-7.801c-0.898,-4.361 0.953,-7.946 4.13,-8" style="fill:none;stroke:#000;stroke-width:1px;"/><path d="M594.078,92.218c3.177,0.055 6.485,-3.441 7.382,-7.801c0.898,-4.361 -0.953,-7.946 -4.13,-8" style="fill:none;stroke:#000;stroke-width:1px;"/></g><g><path d="M606.508,92.218c-3.177,0.055 -6.485,-3.441 -7.382,-7.801c-0.898,-4.361 0.953,-7.946 4.13,-8" style="fill:none;stroke:#000;stroke-width:1px;"/><path d="M600.179,92.218c3.177,0.055 6.485,-3.441 7.382,-7.801c0.898,-4.361 -0.953,-7.946 -4.13,-8" style="fill:none;stroke:#000;stroke-width:1px;"/></g><g><path d="M612.609,92.218c-3.177,0.055 -6.485,-3.441 -7.382,-7.801c-0.898,-4.361 0.953,-7.946 4.13,-8" style="fill:none;stroke:#000;stroke-width:1px;"/><path d="M606.28,92.218c3.177,0.055 6.485,-3.441 7.382,-7.801c0.898,-4.361 -0.953,-7.946 -4.13,-8" style="fill:none;stroke:#000;stroke-width:1px;"/></g></g><path d="M623.202,122.807l-8.765,4.303l0,-8.606l8.765,4.303Z" style="fill:#4fb353;stroke:#000;stroke-width:0.5px;"/></svg>
