<?xml version="1.0" encoding="UTF-8" standalone="no"?>
<!DOCTYPE svg PUBLIC "-//W3C//DTD SVG 1.1//EN" "http://www.w3.org/Graphics/SVG/1.1/DTD/svg11.dtd">
<svg width="100%" height="100%" viewBox="0 0 900 150" version="1.1" xmlns="http://www.w3.org/2000/svg" xmlns:xlink="http://www.w3.org/1999/xlink" xml:space="preserve" style="fill-rule:evenodd;clip-rule:evenodd;stroke-linecap:round;stroke-linejoin:round;stroke-miterlimit:1.5;">
    <path d="M862.861,54.327l0,20.105l-26.481,0l0,-20.105m-8.756,0l22.205,-20.06l22.205,20.06" style="fill:#dbe7ff;"/>
    <path d="M30.013,145.568c-33.343,1.751 -36.962,-90.615 4.419,-99.004c41.328,-8.378 37.967,49.077 58.171,50.721c352.623,28.692 462.215,13.967 539.055,3.635c11.019,-1.481 10.428,20.498 10.428,28.984c0,8.486 -2.807,12.091 -11.439,12.091c0,0 -490.524,-2.207 -600.634,3.573Z" style="fill:#fafafa;stroke:#000;stroke-width:0.5px;"/>
    <path d="M651.05,95.017c32.663,-0.248 58.992,23.175 74.352,39.783c4.994,5.4 10.196,-0.967 10.217,-1.164c0.109,-1.042 0.486,-1.974 0.473,-2.982c-0.794,-57.939 -131.985,-58.15 -200.062,-59.75c-35.815,-0.842 -69.242,-5.389 -104.02,-14.432c-17.783,-4.624 -16.299,14.791 28.18,28.202c-57.596,18.691 -54.882,30.682 -28.596,24.838c16.42,-3.651 52.176,-8.585 103.708,-10.262c44.876,-1.46 81.116,-3.971 115.748,-4.233Z" style="fill:#fff6cd;stroke:#000;stroke-width:0.5px;"/>
    <path d="M31.38,105.366c-3.491,0 -6.951,-9.647 -6.784,-21.248c0.149,-10.42 4.227,-19.846 6.784,-19.846c0,0 29.551,0.653 37.96,-1.151c12.033,-2.582 35.836,-18.716 10.958,21.698c24.962,43.641 0.884,24.376 -10.958,21.698c-8.399,-1.899 -37.96,-1.151 -37.96,-1.151" style="fill:#fff6cd;stroke:#000;stroke-width:0.5px;"/>
    <path d="M259.757,32.467c143.842,0.157 202.307,22.16 202.307,51.917c0,29.758 -65.887,49.563 -202.307,49.918c-147.404,0.383 -199.155,-20.16 -199.155,-49.918c0,-29.757 58.553,-52.07 199.155,-51.917Z" style="fill:#ffe3dd;stroke:#000;stroke-width:0.5px;"/>
    <text x="515.211px" y="60.027px" style="font-family:'ArialMT', 'Arial', sans-serif;font-size:16px;">Spring</text>
    <g>
        <path d="M478.932,76.596c-0.137,-1.052 -1.135,-1.8 -2.229,-1.668c-1.093,0.131 -1.87,1.092 -1.733,2.144" style="fill:none;stroke:#000;stroke-width:1px;"/>
        <path d="M482.927,76.596c-0.136,-1.052 -1.135,-1.8 -2.228,-1.668c-1.094,0.131 -1.87,1.092 -1.734,2.144" style="fill:none;stroke:#000;stroke-width:1px;"/>
        <path d="M486.922,76.596c-0.136,-1.052 -1.135,-1.8 -2.228,-1.668c-1.093,0.131 -1.87,1.092 -1.734,2.144" style="fill:none;stroke:#000;stroke-width:1px;"/>
        <path d="M490.918,76.596c-0.137,-1.052 -1.135,-1.8 -2.228,-1.668c-1.094,0.131 -1.871,1.092 -1.734,2.144" style="fill:none;stroke:#000;stroke-width:1px;"/>
        <path d="M494.913,76.596c-0.136,-1.052 -1.135,-1.8 -2.228,-1.668c-1.093,0.131 -1.87,1.092 -1.734,2.144" style="fill:none;stroke:#000;stroke-width:1px;"/>
        <path d="M498.909,76.596c-0.137,-1.052 -1.135,-1.8 -2.229,-1.668c-1.093,0.131 -1.87,1.092 -1.733,2.144" style="fill:none;stroke:#000;stroke-width:1px;"/>
        <path d="M502.904,76.596c-0.136,-1.052 -1.135,-1.8 -2.228,-1.668c-1.094,0.131 -1.87,1.092 -1.734,2.144" style="fill:none;stroke:#000;stroke-width:1px;"/>
        <path d="M526.877,76.596c-0.137,-1.052 -1.135,-1.8 -2.229,-1.668c-1.093,0.131 -1.87,1.092 -1.734,2.144" style="fill:none;stroke:#000;stroke-width:1px;"/>
        <path d="M550.849,76.596c-0.137,-1.052 -1.135,-1.8 -2.228,-1.668c-1.094,0.131 -1.871,1.092 -1.734,2.144" style="fill:none;stroke:#000;stroke-width:1px;"/>
        <path d="M574.821,76.596c-0.136,-1.052 -1.135,-1.8 -2.228,-1.668c-1.093,0.131 -1.87,1.092 -1.734,2.144" style="fill:none;stroke:#000;stroke-width:1px;"/>
        <path d="M506.899,76.596c-0.136,-1.052 -1.134,-1.8 -2.228,-1.668c-1.093,0.131 -1.87,1.092 -1.734,2.144" style="fill:none;stroke:#000;stroke-width:1px;"/>
        <path d="M530.872,76.596c-0.137,-1.052 -1.135,-1.8 -2.228,-1.668c-1.094,0.131 -1.871,1.092 -1.734,2.144" style="fill:none;stroke:#000;stroke-width:1px;"/>
        <path d="M554.844,76.596c-0.136,-1.052 -1.135,-1.8 -2.228,-1.668c-1.093,0.131 -1.87,1.092 -1.734,2.144" style="fill:none;stroke:#000;stroke-width:1px;"/>
        <path d="M578.817,76.596c-0.137,-1.052 -1.135,-1.8 -2.229,-1.668c-1.093,0.131 -1.87,1.092 -1.733,2.144" style="fill:none;stroke:#000;stroke-width:1px;"/>
        <path d="M510.895,76.596c-0.137,-1.052 -1.135,-1.8 -2.228,-1.668c-1.094,0.131 -1.871,1.092 -1.734,2.144" style="fill:none;stroke:#000;stroke-width:1px;"/>
        <path d="M534.867,76.596c-0.136,-1.052 -1.135,-1.8 -2.228,-1.668c-1.093,0.131 -1.87,1.092 -1.734,2.144" style="fill:none;stroke:#000;stroke-width:1px;"/>
        <path d="M558.84,76.596c-0.137,-1.052 -1.135,-1.8 -2.229,-1.668c-1.093,0.131 -1.87,1.092 -1.733,2.144" style="fill:none;stroke:#000;stroke-width:1px;"/>
        <path d="M582.812,76.596c-0.136,-1.052 -1.135,-1.8 -2.228,-1.668c-1.094,0.131 -1.87,1.092 -1.734,2.144" style="fill:none;stroke:#000;stroke-width:1px;"/>
        <path d="M514.89,76.596c-0.136,-1.052 -1.135,-1.8 -2.228,-1.668c-1.093,0.131 -1.87,1.092 -1.734,2.144" style="fill:none;stroke:#000;stroke-width:1px;"/>
        <path d="M538.863,76.596c-0.137,-1.052 -1.135,-1.8 -2.229,-1.668c-1.093,0.131 -1.87,1.092 -1.733,2.144" style="fill:none;stroke:#000;stroke-width:1px;"/>
        <path d="M562.835,76.596c-0.136,-1.052 -1.135,-1.8 -2.228,-1.668c-1.094,0.131 -1.87,1.092 -1.734,2.144" style="fill:none;stroke:#000;stroke-width:1px;"/>
        <path d="M586.808,76.596c-0.137,-1.052 -1.135,-1.8 -2.229,-1.668c-1.093,0.131 -1.87,1.092 -1.734,2.144" style="fill:none;stroke:#000;stroke-width:1px;"/>
        <path d="M518.886,76.596c-0.137,-1.052 -1.135,-1.8 -2.229,-1.668c-1.093,0.131 -1.87,1.092 -1.733,2.144" style="fill:none;stroke:#000;stroke-width:1px;"/>
        <path d="M542.858,76.596c-0.136,-1.052 -1.135,-1.8 -2.228,-1.668c-1.094,0.131 -1.87,1.092 -1.734,2.144" style="fill:none;stroke:#000;stroke-width:1px;"/>
        <path d="M566.831,76.596c-0.137,-1.052 -1.135,-1.8 -2.229,-1.668c-1.093,0.131 -1.87,1.092 -1.734,2.144" style="fill:none;stroke:#000;stroke-width:1px;"/>
        <path d="M590.803,76.596c-0.137,-1.052 -1.135,-1.8 -2.228,-1.668c-1.094,0.131 -1.871,1.092 -1.734,2.144" style="fill:none;stroke:#000;stroke-width:1px;"/>
        <path d="M522.881,76.596c-0.136,-1.052 -1.135,-1.8 -2.228,-1.668c-1.094,0.131 -1.87,1.092 -1.734,2.144" style="fill:none;stroke:#000;stroke-width:1px;"/>
        <path d="M546.854,76.596c-0.137,-1.052 -1.135,-1.8 -2.229,-1.668c-1.093,0.131 -1.87,1.092 -1.734,2.144" style="fill:none;stroke:#000;stroke-width:1px;"/>
        <path d="M570.826,76.596c-0.137,-1.052 -1.135,-1.8 -2.228,-1.668c-1.094,0.131 -1.871,1.092 -1.734,2.144" style="fill:none;stroke:#000;stroke-width:1px;"/>
        <path d="M594.897,77.014c-0.064,-1.34 -1.234,-2.218 -2.327,-2.086c-1.093,0.131 -1.87,1.092 -1.734,2.144" style="fill:none;stroke:#000;stroke-width:1px;"/>
        <path d="M481.775,92.765c-0.136,1.012 -1.135,1.732 -2.228,1.605c-0.913,-0.105 -1.606,-0.768 -1.73,-1.573c-0.013,-0.089 -0.91,-4.954 -1.699,-9.278c-0.627,-3.441 -1.186,-6.538 -1.176,-6.612" style="fill:none;stroke:#000;stroke-width:1px;"/>
        <path d="M476.36,86.372c-0.571,0.891 -1.809,1.224 -2.765,0.745c-0.797,-0.401 -1.147,-1.243 -0.908,-2.028c0.026,-0.087 1.332,-4.882 2.5,-9.14" style="fill:none;stroke:#000;stroke-width:1px;"/>
        <path d="M600.312,82.84c0.571,-0.891 1.809,-1.225 2.764,-0.745c0.798,0.401 1.148,1.243 0.909,2.028c-0.026,0.086 -1.332,4.882 -2.5,9.14" style="fill:none;stroke:#000;stroke-width:1px;"/>
        <path d="M594.858,76.5c0.137,-1.012 1.135,-1.732 2.229,-1.605c0.913,0.105 1.605,0.768 1.729,1.573c0.025,0.159 2.825,15.868 2.802,16.035" style="fill:none;stroke:#000;stroke-width:1px;"/>
        <path d="M485.771,92.765c-0.137,1.012 -1.135,1.732 -2.229,1.605c-1.093,-0.126 -1.87,-1.051 -1.734,-2.063" style="fill:none;stroke:#000;stroke-width:1px;"/>
        <path d="M489.766,92.765c-0.137,1.012 -1.135,1.732 -2.228,1.605c-1.094,-0.126 -1.871,-1.051 -1.734,-2.063" style="fill:none;stroke:#000;stroke-width:1px;"/>
        <path d="M493.761,92.765c-0.136,1.012 -1.135,1.732 -2.228,1.605c-1.093,-0.126 -1.87,-1.051 -1.734,-2.063" style="fill:none;stroke:#000;stroke-width:1px;"/>
        <path d="M497.757,92.765c-0.137,1.012 -1.135,1.732 -2.229,1.605c-1.093,-0.126 -1.87,-1.051 -1.733,-2.063" style="fill:none;stroke:#000;stroke-width:1px;"/>
        <path d="M501.752,92.765c-0.136,1.012 -1.135,1.732 -2.228,1.605c-1.094,-0.126 -1.87,-1.051 -1.734,-2.063" style="fill:none;stroke:#000;stroke-width:1px;"/>
        <path d="M525.725,92.765c-0.137,1.012 -1.135,1.732 -2.229,1.605c-1.093,-0.126 -1.87,-1.051 -1.733,-2.063" style="fill:none;stroke:#000;stroke-width:1px;"/>
        <path d="M549.697,92.765c-0.136,1.012 -1.135,1.732 -2.228,1.605c-1.094,-0.126 -1.871,-1.051 -1.734,-2.063" style="fill:none;stroke:#000;stroke-width:1px;"/>
        <path d="M573.669,92.765c-0.136,1.012 -1.135,1.732 -2.228,1.605c-1.093,-0.126 -1.87,-1.051 -1.734,-2.063" style="fill:none;stroke:#000;stroke-width:1px;"/>
        <path d="M597.642,92.765c-0.137,1.012 -1.135,1.732 -2.228,1.605c-1.094,-0.126 -1.871,-1.051 -1.734,-2.063" style="fill:none;stroke:#000;stroke-width:1px;"/>
        <path d="M505.748,92.765c-0.137,1.012 -1.135,1.732 -2.229,1.605c-1.093,-0.126 -1.87,-1.051 -1.733,-2.063" style="fill:none;stroke:#000;stroke-width:1px;"/>
        <path d="M529.72,92.765c-0.136,1.012 -1.135,1.732 -2.228,1.605c-1.094,-0.126 -1.871,-1.051 -1.734,-2.063" style="fill:none;stroke:#000;stroke-width:1px;"/>
        <path d="M553.692,92.765c-0.136,1.012 -1.135,1.732 -2.228,1.605c-1.093,-0.126 -1.87,-1.051 -1.734,-2.063" style="fill:none;stroke:#000;stroke-width:1px;"/>
        <path d="M577.665,92.765c-0.137,1.012 -1.135,1.732 -2.228,1.605c-1.094,-0.126 -1.871,-1.051 -1.734,-2.063" style="fill:none;stroke:#000;stroke-width:1px;"/>
        <path d="M601.637,92.765c-0.136,1.012 -1.135,1.732 -2.228,1.605c-1.093,-0.126 -1.87,-1.051 -1.734,-2.063" style="fill:none;stroke:#000;stroke-width:1px;"/>
        <path d="M509.743,92.765c-0.137,1.012 -1.135,1.732 -2.228,1.605c-1.094,-0.126 -1.871,-1.051 -1.734,-2.063" style="fill:none;stroke:#000;stroke-width:1px;"/>
        <path d="M533.715,92.765c-0.136,1.012 -1.135,1.732 -2.228,1.605c-1.093,-0.126 -1.87,-1.051 -1.734,-2.063" style="fill:none;stroke:#000;stroke-width:1px;"/>
        <path d="M557.688,92.765c-0.137,1.012 -1.135,1.732 -2.229,1.605c-1.093,-0.126 -1.87,-1.051 -1.733,-2.063" style="fill:none;stroke:#000;stroke-width:1px;"/>
        <path d="M581.66,92.765c-0.136,1.012 -1.135,1.732 -2.228,1.605c-1.093,-0.126 -1.87,-1.051 -1.734,-2.063" style="fill:none;stroke:#000;stroke-width:1px;"/>
        <path d="M513.738,92.765c-0.136,1.012 -1.135,1.732 -2.228,1.605c-1.093,-0.126 -1.87,-1.051 -1.734,-2.063" style="fill:none;stroke:#000;stroke-width:1px;"/>
        <path d="M537.711,92.765c-0.137,1.012 -1.135,1.732 -2.229,1.605c-1.093,-0.126 -1.87,-1.051 -1.733,-2.063" style="fill:none;stroke:#000;stroke-width:1px;"/>
        <path d="M561.683,92.765c-0.136,1.012 -1.135,1.732 -2.228,1.605c-1.093,-0.126 -1.87,-1.051 -1.734,-2.063" style="fill:none;stroke:#000;stroke-width:1px;"/>
        <path d="M585.656,92.765c-0.137,1.012 -1.135,1.732 -2.229,1.605c-1.093,-0.126 -1.87,-1.051 -1.733,-2.063" style="fill:none;stroke:#000;stroke-width:1px;"/>
        <path d="M517.734,92.765c-0.137,1.012 -1.135,1.732 -2.229,1.605c-1.093,-0.126 -1.87,-1.051 -1.733,-2.063" style="fill:none;stroke:#000;stroke-width:1px;"/>
        <path d="M541.706,92.765c-0.136,1.012 -1.135,1.732 -2.228,1.605c-1.093,-0.126 -1.87,-1.051 -1.734,-2.063" style="fill:none;stroke:#000;stroke-width:1px;"/>
        <path d="M565.679,92.765c-0.137,1.012 -1.135,1.732 -2.229,1.605c-1.093,-0.126 -1.87,-1.051 -1.733,-2.063" style="fill:none;stroke:#000;stroke-width:1px;"/>
        <path d="M589.651,92.765c-0.136,1.012 -1.135,1.732 -2.228,1.605c-1.094,-0.126 -1.87,-1.051 -1.734,-2.063" style="fill:none;stroke:#000;stroke-width:1px;"/>
        <path d="M521.729,92.765c-0.136,1.012 -1.135,1.732 -2.228,1.605c-1.094,-0.126 -1.87,-1.051 -1.734,-2.063" style="fill:none;stroke:#000;stroke-width:1px;"/>
        <path d="M545.702,92.765c-0.137,1.012 -1.135,1.732 -2.229,1.605c-1.093,-0.126 -1.87,-1.051 -1.733,-2.063" style="fill:none;stroke:#000;stroke-width:1px;"/>
        <path d="M569.674,92.765c-0.136,1.012 -1.135,1.732 -2.228,1.605c-1.094,-0.126 -1.871,-1.051 -1.734,-2.063" style="fill:none;stroke:#000;stroke-width:1px;"/>
        <path d="M593.646,92.765c-0.136,1.012 -1.135,1.732 -2.228,1.605c-1.093,-0.126 -1.87,-1.051 -1.734,-2.063" style="fill:none;stroke:#000;stroke-width:1px;"/>
        <path d="M478.963,77.106l2.859,15.174" style="fill:#9c9c9c;stroke:#000;stroke-width:0.3px;"/>
        <path d="M514.952,77.106l2.858,15.174" style="fill:#9c9c9c;stroke:#000;stroke-width:0.3px;"/>
        <g>
            <path d="M574.894,77.106l2.859,15.174" style="fill:#9c9c9c;stroke:#000;stroke-width:0.3px;"/>
            <path d="M594.84,77.106l2.859,15.174" style="fill:#9c9c9c;stroke:#000;stroke-width:0.3px;"/>
            <path d="M566.887,77.106l2.859,15.174" style="fill:#9c9c9c;stroke:#000;stroke-width:0.3px;"/>
            <path d="M582.887,77.106l2.859,15.174" style="fill:#9c9c9c;stroke:#000;stroke-width:0.3px;"/>
            <path d="M562.898,77.08l2.859,15.174" style="fill:#9c9c9c;stroke:#000;stroke-width:0.3px;"/>
            <path d="M578.898,77.08l2.859,15.174" style="fill:#9c9c9c;stroke:#000;stroke-width:0.3px;"/>
            <path d="M570.885,77.08l2.859,15.174" style="fill:#9c9c9c;stroke:#000;stroke-width:0.3px;"/>
            <path d="M590.83,77.08l2.859,15.174" style="fill:#9c9c9c;stroke:#000;stroke-width:0.3px;"/>
            <path d="M586.885,77.08l2.858,15.174" style="fill:#9c9c9c;stroke:#000;stroke-width:0.3px;"/>
        </g>
        <path d="M494.963,77.106l2.859,15.174" style="fill:#9c9c9c;stroke:#000;stroke-width:0.3px;"/>
        <path d="M530.951,77.106l2.859,15.174" style="fill:#9c9c9c;stroke:#000;stroke-width:0.3px;"/>
        <path d="M486.956,77.106l2.859,15.174" style="fill:#9c9c9c;stroke:#000;stroke-width:0.3px;"/>
        <path d="M522.944,77.106l2.859,15.174" style="fill:#9c9c9c;stroke:#000;stroke-width:0.3px;"/>
        <path d="M502.956,77.106l2.858,15.174" style="fill:#9c9c9c;stroke:#000;stroke-width:0.3px;"/>
        <path d="M538.944,77.106l2.859,15.174" style="fill:#9c9c9c;stroke:#000;stroke-width:0.3px;"/>
        <path d="M550.916,77.106l2.859,15.174" style="fill:#9c9c9c;stroke:#000;stroke-width:0.3px;"/>
        <path d="M482.967,77.08l2.858,15.174" style="fill:#9c9c9c;stroke:#000;stroke-width:0.3px;"/>
        <path d="M518.955,77.08l2.859,15.174" style="fill:#9c9c9c;stroke:#000;stroke-width:0.3px;"/>
        <path d="M498.966,77.08l2.859,15.174" style="fill:#9c9c9c;stroke:#000;stroke-width:0.3px;"/>
        <path d="M534.955,77.08l2.859,15.174" style="fill:#9c9c9c;stroke:#000;stroke-width:0.3px;"/>
        <path d="M490.953,77.08l2.859,15.174" style="fill:#9c9c9c;stroke:#000;stroke-width:0.3px;"/>
        <path d="M526.942,77.08l2.859,15.174" style="fill:#9c9c9c;stroke:#000;stroke-width:0.3px;"/>
        <path d="M510.899,77.08l2.859,15.174" style="fill:#9c9c9c;stroke:#000;stroke-width:0.3px;"/>
        <path d="M546.887,77.08l2.859,15.174" style="fill:#9c9c9c;stroke:#000;stroke-width:0.3px;"/>
        <path d="M558.859,77.08l2.859,15.174" style="fill:#9c9c9c;stroke:#000;stroke-width:0.3px;"/>
        <path d="M506.953,77.08l2.859,15.174" style="fill:#9c9c9c;stroke:#000;stroke-width:0.3px;"/>
        <path d="M542.942,77.08l2.859,15.174" style="fill:#9c9c9c;stroke:#000;stroke-width:0.3px;"/>
        <path d="M554.913,77.08l2.859,15.174" style="fill:#9c9c9c;stroke:#000;stroke-width:0.3px;"/>
    </g>
    <path d="M345.159,60.123l67.078,0l0,48.128l-67.078,0m0,15.915l-68.055,-41.493l68.055,-39.22" style="fill:#ffd9d0;"/>
    <path d="M344.677,65.906l19.578,-0.009" style="fill:none;stroke:#000;stroke-width:1px;"/>
    <rect x="248.785" y="58.541" width="95.983" height="14.948" style="fill:#bde6b6;stroke:#000;stroke-width:1px;"/>
    <rect x="249.758" y="59.226" width="94.397" height="2.738" style="fill:#d7efd2;"/>
    <rect x="249.758" y="70.226" width="94.397" height="2.738" style="fill:#acdfa2;"/>
    <rect x="121.01" y="51.2" width="128.098" height="29.015" style="fill:#8fd682;stroke:#000;stroke-width:1px;"/>
    <rect x="125.01" y="47.772" width="4.364" height="3.428" style="fill:#519d44;stroke:#000;stroke-width:1px;"/>
    <rect x="241.01" y="47.772" width="4.364" height="3.428" style="fill:#519d44;stroke:#000;stroke-width:1px;"/>
    <path d="M100.872,66.119l19.963,0" style="fill:none;stroke:#000;stroke-width:1px;"/>
    <text x="155.489px" y="71.095px" style="font-family:'ArialMT', 'Arial', sans-serif;font-size:16px;">Actuator</text>
    <text x="224.501px" y="19.534px" style="font-family:'Arial-BoldMT', 'Arial', sans-serif;font-weight:700;font-size:20px;">Muscle</text>
    <text x="640.05px" y="19.534px" style="font-family:'Arial-BoldMT', 'Arial', sans-serif;font-weight:700;font-size:20px;">Appendage</text>
    <text x="502.975px" y="19.534px" style="font-family:'Arial-BoldMT', 'Arial', sans-serif;font-weight:700;font-size:20px;">T<tspan x="513.707px 524.83px " y="19.534px 19.534px ">en</tspan>don</text>
    <text x="804.338px" y="19.534px" style="font-family:'Arial-BoldMT', 'Arial', sans-serif;font-weight:700;font-size:20px;">Projectile</text>
    <path d="M266.175,99.905l0,-11.705l-145.165,0l0,29.015l145.165,0l0,-11.289" style="fill:#f89794;stroke:#000;stroke-width:1px;"/>
    <path d="M100.834,103.119l20.001,0" style="fill:none;stroke:#000;stroke-width:1px;"/>
    <path d="M24.505,84.642l76.276,0" style="fill:none;stroke:#000;stroke-width:1px;"/>
    <path d="M427.835,84.711l44.992,-0.098" style="fill:none;stroke:#000;stroke-width:1px;"/>
    <path d="M364.607,84.642l20.17,0" style="fill:none;stroke:#000;stroke-width:1px;"/>
    <path d="M248.397,102.95l115.919,-0.053" style="fill:none;stroke:#000;stroke-width:1px;"/>
    <text x="156.068px" y="107.095px" style="font-family:'ArialMT', 'Arial', sans-serif;font-size:16px;">Damper</text>
    <path d="M100.759,66.177l0,36.858" style="fill:none;stroke:#000;stroke-width:1px;"/>
    <path d="M364.341,65.915l0,36.991" style="fill:none;stroke:#000;stroke-width:1px;"/>
    <circle cx="411.327" cy="84.708" r="26.649" style="fill:#f89794;stroke:#000;stroke-width:1px;"/>
    <path d="M411.406,59.453c14.708,0 14.699,5.656 -0.009,5.656c-14.708,0 -14.698,-5.656 0.009,-5.656Z" style="fill:#f9a09e;"/>
    <path d="M411.566,105.876c6.491,0.001 22.585,-8.224 10.927,1.562c-1.709,1.435 -6.405,3.322 -10.42,3.322c-0.266,-0.058 -1.188,-0.058 -1.455,0c-4.014,0 -8.711,-1.887 -10.419,-3.322c-11.658,-9.786 4.472,-1.563 11.367,-1.562Z" style="fill:#f78b89;"/>
    <text x="391.762px" y="89.37px" style="font-family:'ArialMT', 'Arial', sans-serif;font-size:16px;">Mass</text>
    <path d="M604.126,83.892c0,0 25.659,0.112 42.964,0.602c34.516,0.977 73.19,14.266 83.2,36.796" style="fill:none;stroke:#000;stroke-width:1px;"/>
    <circle cx="850.172" cy="94.6" r="31.912" style="fill:#79a6ff;stroke:#000;stroke-width:1px;"/>
    <path d="M850.309,120.661c7.899,0.002 27.488,-10.009 13.299,1.902c-2.08,1.746 -7.796,4.043 -12.682,4.043c-0.325,-0.07 -1.447,-0.07 -1.772,0c-4.886,0 -10.602,-2.297 -12.682,-4.043c-14.189,-11.911 5.444,-1.903 13.837,-1.902Z" style="fill:#649aff;"/>
    <path d="M621.319,119.648c-1.25,-12.799 3.333,-25.873 15.108,-28.003c15.791,-2.858 67.487,0.515 88.358,28.041c6.571,6.962 140.011,7.383 152.66,2.103c5.07,-2.117 5.407,5.165 5.407,8.486c0,3.32 1.043,13.494 -5.407,11.438c-11.918,-3.8 -194.208,2.861 -241.725,0c-7.239,-0.436 -11.853,-6.976 -13.612,-16.046l5.651,-2.773l-6.44,-3.246Z" style="fill:#fffdef;stroke:#000;stroke-width:1px;"/>
    <g>
        <circle cx="641.899" cy="123.055" r="5.364" style="fill:none;stroke:#000;stroke-width:1px;"/>
        <g>
            <path d="M641.936,110.982c6.633,0 12.018,5.385 12.018,12.018" style="fill:none;stroke:#000;stroke-width:1.5px;"/>
            <path d="M637.185,110.907l4.913,-1.737l0,3.474l-4.913,-1.737Z" style="stroke:#000;stroke-width:1px;"/>
        </g>
    </g>
    <rect x="121.596" y="88.802" width="143.862" height="4.122" style="fill:#fab2b1;"/>
    <path d="M294.515,65.902l16.857,0.12" style="fill:none;stroke:#000;stroke-width:1.5px;"/>
    <rect x="121.641" y="112.753" width="143.862" height="3.844" style="fill:#f78280;"/>
    <circle cx="730.023" cy="121.3" r="2.29" style="stroke:#000;stroke-width:1.5px;"/>
    <circle cx="24.616" cy="84.663" r="2.29" style="stroke:#000;stroke-width:1.5px;"/>
    <text x="666.555px" y="127.828px" style="font-family:'ArialMT', 'Arial', sans-serif;font-size:16px;">Lever</text>
    <text x="568.472px" y="127.828px" style="font-family:'ArialMT', 'Arial', sans-serif;font-size:16px;">Latch</text>
    <path d="M290.764,65.827l4.913,-1.737l0,3.473l-4.913,-1.736Z" style="stroke:#000;stroke-width:1px;"/>
    <path d="M623.202,122.807l-8.765,4.303l0,-8.606l8.765,4.303Z" style="fill:#4fb353;stroke:#000;stroke-width:0.5px;"/>
    <rect x="121.596" y="51.802" width="126.831" height="4.122" style="fill:#b7e5ae;"/>
    <rect x="121.635" y="75.753" width="126.831" height="3.844" style="fill:#77cd66;"/>
    <path d="M248.083,92.668l0,20.498" style="fill:none;stroke:#000;stroke-width:2px;"/>
    <path d="M850.114,64.159c17.901,0 17.89,6.884 -0.011,6.884c-17.902,0 -17.891,-6.884 0.011,-6.884Z" style="fill:#8ab3ff;"/>
    <text x="830.517px" y="98.92px" style="font-family:'ArialMT', 'Arial', sans-serif;font-size:16px;">Mass</text>
</svg>
