<?xml version="1.0" encoding="UTF-8" standalone="no"?><!DOCTYPE svg PUBLIC "-//W3C//DTD SVG 1.1//EN" "http://www.w3.org/Graphics/SVG/1.1/DTD/svg11.dtd"><svg width="100%" height="100%" viewBox="0 0 1280 800" version="1.1" xmlns="http://www.w3.org/2000/svg" xmlns:xlink="http://www.w3.org/1999/xlink" xml:space="preserve" style="fill-rule:evenodd;clip-rule:evenodd;stroke-linecap:round;stroke-linejoin:round;stroke-miterlimit:1.5;"><path d="M810.239,391.532c22.783,0 22.783,-45.923 0,-45.923l-142.983,0c-69.009,0.73 -134.984,-22.201 -41.279,22.962c-94.022,48.769 -26.38,23.608 41.279,22.961l142.983,0Z" style="fill:#fff6cd;stroke:#000;stroke-width:0.5px;"/><path d="M183.478,391.532c-7.432,0 -7.432,-45.923 0,-45.923l46.645,0c22.513,0.73 44.035,-22.201 13.466,22.962c30.673,48.769 8.606,23.608 -13.466,22.961l-46.645,0Z" style="fill:#fff6cd;stroke:#000;stroke-width:0.5px;"/><g><g><g><g><path d="M653.001,382.601c-5.856,-0.059 -11.344,-5.521 -12.292,-13.165c-0.949,-7.643 2.977,-14.475 8.856,-14.533" style="fill:none;stroke:#000;stroke-width:1px;"/></g><g><path d="M646.405,382.602c-6.002,-0.019 -5.699,-13.192 -10.791,-13.158" style="fill:none;stroke:#000;stroke-width:1px;"/></g><g><path d="M785.614,382.602c6.002,-0.019 5.699,-13.192 10.791,-13.158" style="fill:none;stroke:#000;stroke-width:1px;"/></g><g><path d="M645.997,382.601c5.856,-0.059 11.344,-5.521 12.292,-13.165c0.948,-7.643 -2.977,-14.475 -8.856,-14.533" style="fill:none;stroke:#000;stroke-width:1px;"/></g></g><g><g><path d="M659.981,382.601c-5.856,-0.059 -11.344,-5.521 -12.292,-13.165c-0.948,-7.643 2.977,-14.475 8.856,-14.533" style="fill:none;stroke:#000;stroke-width:1px;"/></g><g><path d="M652.977,382.601c5.856,-0.059 11.344,-5.521 12.292,-13.165c0.948,-7.643 -2.977,-14.475 -8.856,-14.533" style="fill:none;stroke:#000;stroke-width:1px;"/></g></g><g><g><path d="M666.962,382.601c-5.857,-0.059 -11.344,-5.521 -12.292,-13.165c-0.949,-7.643 2.976,-14.475 8.856,-14.533" style="fill:none;stroke:#000;stroke-width:1px;"/></g><g><path d="M659.958,382.601c5.856,-0.059 11.343,-5.521 12.292,-13.165c0.948,-7.643 -2.977,-14.475 -8.856,-14.533" style="fill:none;stroke:#000;stroke-width:1px;"/></g></g><g><g><path d="M673.942,382.601c-5.856,-0.059 -11.344,-5.521 -12.292,-13.165c-0.948,-7.643 2.977,-14.475 8.856,-14.533" style="fill:none;stroke:#000;stroke-width:1px;"/></g><g><path d="M666.938,382.601c5.856,-0.059 11.344,-5.521 12.292,-13.165c0.948,-7.643 -2.977,-14.475 -8.856,-14.533" style="fill:none;stroke:#000;stroke-width:1px;"/></g></g><g><g><path d="M680.923,382.601c-5.857,-0.059 -11.344,-5.521 -12.293,-13.165c-0.948,-7.643 2.977,-14.475 8.856,-14.533" style="fill:none;stroke:#000;stroke-width:1px;"/></g><g><path d="M673.919,382.601c5.856,-0.059 11.343,-5.521 12.292,-13.165c0.948,-7.643 -2.977,-14.475 -8.856,-14.533" style="fill:none;stroke:#000;stroke-width:1px;"/></g></g><g><g><path d="M687.903,382.601c-5.856,-0.059 -11.344,-5.521 -12.292,-13.165c-0.948,-7.643 2.977,-14.475 8.856,-14.533" style="fill:none;stroke:#000;stroke-width:1px;"/></g><g><path d="M680.899,382.601c5.856,-0.059 11.344,-5.521 12.292,-13.165c0.948,-7.643 -2.977,-14.475 -8.856,-14.533" style="fill:none;stroke:#000;stroke-width:1px;"/></g></g><g><g><path d="M694.884,382.601c-5.857,-0.059 -11.344,-5.521 -12.293,-13.165c-0.948,-7.643 2.977,-14.475 8.856,-14.533" style="fill:none;stroke:#000;stroke-width:1px;"/></g><g><path d="M687.879,382.601c5.857,-0.059 11.344,-5.521 12.293,-13.165c0.948,-7.643 -2.977,-14.475 -8.856,-14.533" style="fill:none;stroke:#000;stroke-width:1px;"/></g></g><g><g><path d="M701.864,382.601c-5.856,-0.059 -11.344,-5.521 -12.292,-13.165c-0.948,-7.643 2.977,-14.475 8.856,-14.533" style="fill:none;stroke:#000;stroke-width:1px;"/></g><g><path d="M694.86,382.601c5.856,-0.059 11.344,-5.521 12.292,-13.165c0.948,-7.643 -2.977,-14.475 -8.856,-14.533" style="fill:none;stroke:#000;stroke-width:1px;"/></g></g><g><g><path d="M708.844,382.601c-5.856,-0.059 -11.343,-5.521 -12.292,-13.165c-0.948,-7.643 2.977,-14.475 8.856,-14.533" style="fill:none;stroke:#000;stroke-width:1px;"/></g><g><path d="M701.84,382.601c5.857,-0.059 11.344,-5.521 12.293,-13.165c0.948,-7.643 -2.977,-14.475 -8.856,-14.533" style="fill:none;stroke:#000;stroke-width:1px;"/></g></g><g><g><path d="M715.825,382.601c-5.856,-0.059 -11.344,-5.521 -12.292,-13.165c-0.948,-7.643 2.977,-14.475 8.856,-14.533" style="fill:none;stroke:#000;stroke-width:1px;"/></g><g><path d="M708.821,382.601c5.856,-0.059 11.344,-5.521 12.292,-13.165c0.948,-7.643 -2.977,-14.475 -8.856,-14.533" style="fill:none;stroke:#000;stroke-width:1px;"/></g></g></g><g><g><g><path d="M723.001,382.601c-5.856,-0.059 -11.344,-5.521 -12.292,-13.165c-0.949,-7.643 2.977,-14.475 8.856,-14.533" style="fill:none;stroke:#000;stroke-width:1px;"/></g><g><path d="M715.997,382.601c5.856,-0.059 11.344,-5.521 12.292,-13.165c0.948,-7.643 -2.977,-14.475 -8.856,-14.533" style="fill:none;stroke:#000;stroke-width:1px;"/></g></g><g><g><path d="M729.981,382.601c-5.856,-0.059 -11.344,-5.521 -12.292,-13.165c-0.948,-7.643 2.977,-14.475 8.856,-14.533" style="fill:none;stroke:#000;stroke-width:1px;"/></g><g><path d="M722.977,382.601c5.856,-0.059 11.344,-5.521 12.292,-13.165c0.948,-7.643 -2.977,-14.475 -8.856,-14.533" style="fill:none;stroke:#000;stroke-width:1px;"/></g></g><g><g><path d="M736.962,382.601c-5.857,-0.059 -11.344,-5.521 -12.292,-13.165c-0.949,-7.643 2.976,-14.475 8.856,-14.533" style="fill:none;stroke:#000;stroke-width:1px;"/></g><g><path d="M729.958,382.601c5.856,-0.059 11.343,-5.521 12.292,-13.165c0.948,-7.643 -2.977,-14.475 -8.856,-14.533" style="fill:none;stroke:#000;stroke-width:1px;"/></g></g><g><g><path d="M743.942,382.601c-5.856,-0.059 -11.344,-5.521 -12.292,-13.165c-0.948,-7.643 2.977,-14.475 8.856,-14.533" style="fill:none;stroke:#000;stroke-width:1px;"/></g><g><path d="M736.938,382.601c5.856,-0.059 11.344,-5.521 12.292,-13.165c0.948,-7.643 -2.977,-14.475 -8.856,-14.533" style="fill:none;stroke:#000;stroke-width:1px;"/></g></g><g><g><path d="M750.923,382.601c-5.857,-0.059 -11.344,-5.521 -12.293,-13.165c-0.948,-7.643 2.977,-14.475 8.856,-14.533" style="fill:none;stroke:#000;stroke-width:1px;"/></g><g><path d="M743.919,382.601c5.856,-0.059 11.343,-5.521 12.292,-13.165c0.948,-7.643 -2.977,-14.475 -8.856,-14.533" style="fill:none;stroke:#000;stroke-width:1px;"/></g></g><g><g><path d="M757.903,382.601c-5.856,-0.059 -11.344,-5.521 -12.292,-13.165c-0.948,-7.643 2.977,-14.475 8.856,-14.533" style="fill:none;stroke:#000;stroke-width:1px;"/></g><g><path d="M750.899,382.601c5.856,-0.059 11.344,-5.521 12.292,-13.165c0.948,-7.643 -2.977,-14.475 -8.856,-14.533" style="fill:none;stroke:#000;stroke-width:1px;"/></g></g><g><g><path d="M764.884,382.601c-5.857,-0.059 -11.344,-5.521 -12.293,-13.165c-0.948,-7.643 2.977,-14.475 8.856,-14.533" style="fill:none;stroke:#000;stroke-width:1px;"/></g><g><path d="M757.879,382.601c5.857,-0.059 11.344,-5.521 12.293,-13.165c0.948,-7.643 -2.977,-14.475 -8.856,-14.533" style="fill:none;stroke:#000;stroke-width:1px;"/></g></g><g><g><path d="M771.864,382.601c-5.856,-0.059 -11.344,-5.521 -12.292,-13.165c-0.948,-7.643 2.977,-14.475 8.856,-14.533" style="fill:none;stroke:#000;stroke-width:1px;"/></g><g><path d="M764.86,382.601c5.856,-0.059 11.344,-5.521 12.292,-13.165c0.948,-7.643 -2.977,-14.475 -8.856,-14.533" style="fill:none;stroke:#000;stroke-width:1px;"/></g></g><g><g><path d="M778.844,382.601c-5.856,-0.059 -11.343,-5.521 -12.292,-13.165c-0.948,-7.643 2.977,-14.475 8.856,-14.533" style="fill:none;stroke:#000;stroke-width:1px;"/></g><g><path d="M771.84,382.601c5.857,-0.059 11.344,-5.521 12.293,-13.165c0.948,-7.643 -2.977,-14.475 -8.856,-14.533" style="fill:none;stroke:#000;stroke-width:1px;"/></g></g><g><g><path d="M785.825,382.601c-5.856,-0.059 -11.344,-5.521 -12.292,-13.165c-0.948,-7.643 2.977,-14.475 8.856,-14.533" style="fill:none;stroke:#000;stroke-width:1px;"/></g><g><path d="M778.821,382.601c5.856,-0.059 11.344,-5.521 12.292,-13.165c0.948,-7.643 -2.977,-14.475 -8.856,-14.533" style="fill:none;stroke:#000;stroke-width:1px;"/></g></g></g></g><g><path d="M740.967,363.868c0,-2.825 -2.294,-5.119 -5.119,-5.119l-39.146,0c-2.825,0 -5.119,2.294 -5.119,5.119l0,10.238c0,2.825 2.294,5.119 5.119,5.119l39.146,0c2.825,0 5.119,-2.294 5.119,-5.119l0,-10.238Z" style="fill:#fff6cd;"/><text x="692.583px" y="373.78px" style="font-family:'ArialMT', 'Arial', sans-serif;font-size:16px;">Spring</text></g><path d="M425.543,315.246c125.581,0 202.308,24.16 202.308,53.917c0,29.758 -76.727,53.918 -202.308,53.918c-125.58,0 -199.154,-24.16 -199.154,-53.918c0,-29.757 73.574,-53.917 199.154,-53.917Z" style="fill:#ffe3dd;stroke:#000;stroke-width:0.5px;"/><rect x="414.572" y="343.32" width="105.437" height="14.948" style="fill:#e7f0ff;stroke:#000;stroke-width:1px;"/><rect x="415.665" y="343.97" width="103.779" height="2.435" style="fill:#f3f8ff;"/><rect x="286.797" y="335.979" width="128.098" height="29.015" style="fill:#cde1ff;stroke:#000;stroke-width:1px;"/><rect x="290.797" y="332.551" width="4.364" height="3.428" style="fill:#8ab6fa;stroke:#000;stroke-width:1px;"/><rect x="406.797" y="332.551" width="4.364" height="3.428" style="fill:#8ab6fa;stroke:#000;stroke-width:1px;"/><path d="M263.628,350.898l22.993,0" style="fill:none;stroke:#000;stroke-width:1px;"/><path d="M520.259,350.677l8.842,0" style="fill:none;stroke:#000;stroke-width:1px;"/><text x="322.275px" y="355.875px" style="font-family:'ArialMT', 'Arial', sans-serif;font-size:16px;">Actuator</text><text x="390.288px" y="304.313px" style="font-family:'Arial-BoldMT', 'Arial', sans-serif;font-weight:700;font-size:20px;">Muscle</text><text x="837.332px" y="304.313px" style="font-family:'Arial-BoldMT', 'Arial', sans-serif;font-weight:700;font-size:20px;">Lever</text><text x="682.656px" y="304.313px" style="font-family:'Arial-BoldMT', 'Arial', sans-serif;font-weight:700;font-size:20px;">T<tspan x="693.388px 704.511px " y="304.313px 304.313px ">en</tspan>don</text><text x="962.125px" y="304.313px" style="font-family:'Arial-BoldMT', 'Arial', sans-serif;font-weight:700;font-size:20px;">Projectile</text><path d="M431.961,384.684l0,-11.705l-145.164,0l0,29.015l145.164,0l0,-11.288" style="fill:#fff2cd;stroke:#000;stroke-width:1px;"/><path d="M263.628,387.898l22.993,0" style="fill:none;stroke:#000;stroke-width:1px;"/><path d="M214.579,369.421l48.863,0" style="fill:none;stroke:#000;stroke-width:1px;"/><path d="M595.892,369.421l39.941,0" style="fill:none;stroke:#000;stroke-width:1px;"/><path d="M529.389,369.421l12.974,0" style="fill:none;stroke:#000;stroke-width:1px;"/><path d="M414.184,387.729l114.954,-0.053" style="fill:none;stroke:#000;stroke-width:1px;"/><text x="323.855px" y="391.875px" style="font-family:'ArialMT', 'Arial', sans-serif;font-size:16px;">Damper</text><path d="M413.87,377.447l0,20.498" style="fill:none;stroke:#000;stroke-width:2px;"/><path d="M263.546,350.956l0,37" style="fill:none;stroke:#000;stroke-width:1px;"/><path d="M529.127,350.694l0,36.991" style="fill:none;stroke:#000;stroke-width:1px;"/><g><circle cx="569.114" cy="369.487" r="26.649" style="fill:#feaeae;stroke:#000;stroke-width:1px;"/><text x="549.548px" y="374.149px" style="font-family:'ArialMT', 'Arial', sans-serif;font-size:16px;">Mass</text></g><circle cx="201.801" cy="369.466" r="12.242" style="fill:#e0e0e0;stroke:#000;stroke-width:0.5px;"/><g><g><path d="M201.845,377.819c-3.36,0.004 -5.121,-1.7 -6.088,-5.548" style="fill:none;stroke:#000;stroke-width:1.35px;"/><path d="M195.314,370.427l2.157,2.239l-3.002,0.752l0.845,-2.991Z"/></g><g><path d="M201.901,377.819c3.36,0.004 5.121,-1.7 6.088,-5.548" style="fill:none;stroke:#000;stroke-width:1.35px;"/><path d="M208.432,370.427l-2.157,2.239l3.002,0.752l-0.845,-2.991Z"/></g><path d="M201.85,377.674l0,-13.403" style="fill:none;stroke:#000;stroke-width:1.35px;"/><path d="M205.368,366.155l-7.022,0" style="fill:none;stroke:#000;stroke-width:1.35px;"/><circle cx="201.886" cy="362.824" r="1.433" style="fill:none;stroke:#000;stroke-width:1.35px;"/></g><path d="M1036.92,402.148c0,-8.87 -7.201,-16.071 -16.071,-16.071l-167.129,0l-33.526,0c-8.869,0 -16.071,7.201 -16.071,16.071c0,8.869 7.202,16.071 16.071,16.071l200.655,0c8.87,0 16.071,-7.202 16.071,-16.071Z" style="fill:#cde1ff;stroke:#000;stroke-width:0.5px;"/><path d="M854.026,386.066c-19.487,0.245 -17.891,-24.282 -17.891,-24.282c0,-8.87 -7.202,-16.071 -16.071,-16.071c-8.87,0 -16.072,7.201 -16.072,16.071l0,40.364c0,8.869 7.202,16.071 16.072,16.071" style="fill:#cde1ff;stroke:#000;stroke-width:0.5px;"/><rect x="814.11" y="364.677" width="11.705" height="44.083" style="fill:#fff;stroke:#000;stroke-width:0.5px;"/><path d="M814.279,408.751l209.791,0l0,-11.66l-197.824,0" style="fill:#d9d9d9;stroke:#000;stroke-width:0.5px;"/><path d="M814.279,408.751l138.153,0l0,-11.66l-124.726,0" style="fill:#ededed;stroke:#000;stroke-width:0.5px;"/><path d="M814.279,408.751l70.13,0l0,-11.66l-58.449,0l-0.162,0l-0.025,0l-0.004,0" style="fill:#fff;stroke:#000;stroke-width:0.5px;"/><circle cx="820.339" cy="402.131" r="2.945" style="stroke:#000;stroke-width:2.5px;"/><circle cx="819.678" cy="369.386" r="1.028" style="stroke:#000;stroke-width:0.5px;"/><path d="M795.892,369.421l23.729,0" style="fill:none;stroke:#000;stroke-width:1px;"/><g><circle cx="1004.96" cy="364.379" r="31.912" style="fill:#acf39d;stroke:#000;stroke-width:1px;"/><text x="985.304px" y="368.699px" style="font-family:'ArialMT', 'Arial', sans-serif;font-size:16px;">Mass</text></g></svg>
