<?xml version="1.0" encoding="UTF-8" standalone="no"?><!DOCTYPE svg PUBLIC "-//W3C//DTD SVG 1.1//EN" "http://www.w3.org/Graphics/SVG/1.1/DTD/svg11.dtd"><svg width="100%" height="100%" viewBox="0 0 900 150" version="1.1" xmlns="http://www.w3.org/2000/svg" xmlns:xlink="http://www.w3.org/1999/xlink" xml:space="preserve" style="fill-rule:evenodd;clip-rule:evenodd;stroke-linecap:round;stroke-linejoin:round;stroke-miterlimit:1.5;"><path d="M862.861,54.327l0,20.105l-26.481,0l0,-20.105m-8.756,0l22.205,-20.06l22.205,20.06" style="fill:#dbe7ff;"/><path d="M30.013,145.568c-33.343,1.751 -36.962,-90.615 4.419,-99.004c41.328,-8.378 37.967,49.077 58.171,50.721c352.623,28.692 462.215,13.967 539.055,3.635c11.019,-1.481 10.428,20.498 10.428,28.984c0,8.486 -2.807,12.091 -11.439,12.091c0,0 -490.524,-2.207 -600.634,3.573Z" style="fill:#fafafa;stroke:#000;stroke-width:0.5px;"/><path d="M651.05,95.017c32.663,-0.248 58.992,23.175 74.352,39.783c4.994,5.4 10.196,-0.967 10.217,-1.164c0.109,-1.042 0.486,-1.974 0.473,-2.982c-0.794,-57.939 -131.985,-58.15 -200.062,-59.75c-35.815,-0.842 -69.242,-5.389 -104.02,-14.432c-17.783,-4.624 -16.299,14.791 28.18,28.202c-57.596,18.691 -54.882,30.682 -28.596,24.838c16.42,-3.651 52.176,-8.585 103.708,-10.262c44.876,-1.46 81.116,-3.971 115.748,-4.233Z" style="fill:#fff6cd;stroke:#000;stroke-width:0.5px;"/><path d="M31.38,105.366c-3.491,0 -6.951,-9.647 -6.784,-21.248c0.149,-10.42 4.227,-19.846 6.784,-19.846c0,0 29.551,0.653 37.96,-1.151c12.033,-2.582 35.836,-18.716 10.958,21.698c24.962,43.641 0.884,24.376 -10.958,21.698c-8.399,-1.899 -37.96,-1.151 -37.96,-1.151" style="fill:#fff6cd;stroke:#000;stroke-width:0.5px;"/><path d="M259.757,32.467c143.842,0.157 202.307,22.16 202.307,51.917c0,29.758 -65.887,49.563 -202.307,49.918c-147.404,0.383 -199.155,-20.16 -199.155,-49.918c0,-29.757 58.553,-52.07 199.155,-51.917Z" style="fill:#ffe3dd;stroke:#000;stroke-width:0.5px;"/><text x="515.211px" y="62.027px" style="font-family:'ArialMT', 'Arial', sans-serif;font-size:16px;">Spring</text><g><path d="M479.014,76.445c-0.137,-1.052 -1.135,-1.8 -2.229,-1.668c-1.093,0.131 -1.87,1.092 -1.733,2.144" style="fill:none;stroke:#000;stroke-width:1px;"/><path d="M483.009,76.445c-0.136,-1.052 -1.135,-1.8 -2.228,-1.668c-1.094,0.131 -1.87,1.092 -1.734,2.144" style="fill:none;stroke:#000;stroke-width:1px;"/><path d="M487.004,76.445c-0.136,-1.052 -1.134,-1.8 -2.228,-1.668c-1.093,0.131 -1.87,1.092 -1.734,2.144" style="fill:none;stroke:#000;stroke-width:1px;"/><path d="M491,76.445c-0.137,-1.052 -1.135,-1.8 -2.228,-1.668c-1.094,0.131 -1.871,1.092 -1.734,2.144" style="fill:none;stroke:#000;stroke-width:1px;"/><path d="M494.995,76.445c-0.136,-1.052 -1.135,-1.8 -2.228,-1.668c-1.093,0.131 -1.87,1.092 -1.734,2.144" style="fill:none;stroke:#000;stroke-width:1px;"/><path d="M498.991,76.445c-0.137,-1.052 -1.135,-1.8 -2.229,-1.668c-1.093,0.131 -1.87,1.092 -1.733,2.144" style="fill:none;stroke:#000;stroke-width:1px;"/><path d="M502.986,76.445c-0.136,-1.052 -1.135,-1.8 -2.228,-1.668c-1.094,0.131 -1.87,1.092 -1.734,2.144" style="fill:none;stroke:#000;stroke-width:1px;"/><path d="M526.959,76.445c-0.137,-1.052 -1.135,-1.8 -2.229,-1.668c-1.093,0.131 -1.87,1.092 -1.734,2.144" style="fill:none;stroke:#000;stroke-width:1px;"/><path d="M550.931,76.445c-0.137,-1.052 -1.135,-1.8 -2.228,-1.668c-1.094,0.131 -1.871,1.092 -1.734,2.144" style="fill:none;stroke:#000;stroke-width:1px;"/><path d="M574.903,76.445c-0.136,-1.052 -1.135,-1.8 -2.228,-1.668c-1.093,0.131 -1.87,1.092 -1.734,2.144" style="fill:none;stroke:#000;stroke-width:1px;"/><path d="M506.982,76.445c-0.137,-1.052 -1.135,-1.8 -2.229,-1.668c-1.093,0.131 -1.87,1.092 -1.734,2.144" style="fill:none;stroke:#000;stroke-width:1px;"/><path d="M530.954,76.445c-0.137,-1.052 -1.135,-1.8 -2.228,-1.668c-1.094,0.131 -1.871,1.092 -1.734,2.144" style="fill:none;stroke:#000;stroke-width:1px;"/><path d="M554.926,76.445c-0.136,-1.052 -1.135,-1.8 -2.228,-1.668c-1.093,0.131 -1.87,1.092 -1.734,2.144" style="fill:none;stroke:#000;stroke-width:1px;"/><path d="M578.899,76.445c-0.137,-1.052 -1.135,-1.8 -2.229,-1.668c-1.093,0.131 -1.87,1.092 -1.733,2.144" style="fill:none;stroke:#000;stroke-width:1px;"/><path d="M510.977,76.445c-0.137,-1.052 -1.135,-1.8 -2.228,-1.668c-1.094,0.131 -1.871,1.092 -1.734,2.144" style="fill:none;stroke:#000;stroke-width:1px;"/><path d="M534.949,76.445c-0.136,-1.052 -1.135,-1.8 -2.228,-1.668c-1.093,0.131 -1.87,1.092 -1.734,2.144" style="fill:none;stroke:#000;stroke-width:1px;"/><path d="M558.922,76.445c-0.137,-1.052 -1.135,-1.8 -2.229,-1.668c-1.093,0.131 -1.87,1.092 -1.733,2.144" style="fill:none;stroke:#000;stroke-width:1px;"/><path d="M582.894,76.445c-0.136,-1.052 -1.135,-1.8 -2.228,-1.668c-1.094,0.131 -1.87,1.092 -1.734,2.144" style="fill:none;stroke:#000;stroke-width:1px;"/><path d="M514.972,76.445c-0.136,-1.052 -1.135,-1.8 -2.228,-1.668c-1.093,0.131 -1.87,1.092 -1.734,2.144" style="fill:none;stroke:#000;stroke-width:1px;"/><path d="M538.945,76.445c-0.137,-1.052 -1.135,-1.8 -2.229,-1.668c-1.093,0.131 -1.87,1.092 -1.733,2.144" style="fill:none;stroke:#000;stroke-width:1px;"/><path d="M562.917,76.445c-0.136,-1.052 -1.135,-1.8 -2.228,-1.668c-1.094,0.131 -1.87,1.092 -1.734,2.144" style="fill:none;stroke:#000;stroke-width:1px;"/><path d="M586.89,76.445c-0.137,-1.052 -1.135,-1.8 -2.229,-1.668c-1.093,0.131 -1.87,1.092 -1.733,2.144" style="fill:none;stroke:#000;stroke-width:1px;"/><path d="M518.968,76.445c-0.137,-1.052 -1.135,-1.8 -2.229,-1.668c-1.093,0.131 -1.87,1.092 -1.733,2.144" style="fill:none;stroke:#000;stroke-width:1px;"/><path d="M542.94,76.445c-0.136,-1.052 -1.135,-1.8 -2.228,-1.668c-1.094,0.131 -1.87,1.092 -1.734,2.144" style="fill:none;stroke:#000;stroke-width:1px;"/><path d="M566.913,76.445c-0.137,-1.052 -1.135,-1.8 -2.229,-1.668c-1.093,0.131 -1.87,1.092 -1.734,2.144" style="fill:none;stroke:#000;stroke-width:1px;"/><path d="M590.885,76.445c-0.137,-1.052 -1.135,-1.8 -2.228,-1.668c-1.094,0.131 -1.871,1.092 -1.734,2.144" style="fill:none;stroke:#000;stroke-width:1px;"/><path d="M522.963,76.445c-0.136,-1.052 -1.135,-1.8 -2.228,-1.668c-1.094,0.131 -1.87,1.092 -1.734,2.144" style="fill:none;stroke:#000;stroke-width:1px;"/><path d="M546.936,76.445c-0.137,-1.052 -1.135,-1.8 -2.229,-1.668c-1.093,0.131 -1.87,1.092 -1.734,2.144" style="fill:none;stroke:#000;stroke-width:1px;"/><path d="M570.908,76.445c-0.137,-1.052 -1.135,-1.8 -2.228,-1.668c-1.094,0.131 -1.871,1.092 -1.734,2.144" style="fill:none;stroke:#000;stroke-width:1px;"/><path d="M594.979,76.863c-0.064,-1.34 -1.234,-2.218 -2.327,-2.086c-1.093,0.131 -1.87,1.092 -1.734,2.144" style="fill:none;stroke:#000;stroke-width:1px;"/><path d="M481.857,92.614c-0.136,1.012 -1.135,1.732 -2.228,1.605c-0.913,-0.105 -1.606,-0.768 -1.73,-1.573c-0.013,-0.089 -0.91,-4.954 -1.699,-9.278c-0.627,-3.44 -1.186,-6.538 -1.176,-6.612" style="fill:none;stroke:#000;stroke-width:1px;"/><path d="M476.442,86.221c-0.571,0.891 -1.809,1.224 -2.765,0.745c-0.797,-0.401 -1.147,-1.243 -0.908,-2.028c0.026,-0.087 1.332,-4.882 2.5,-9.14" style="fill:none;stroke:#000;stroke-width:1px;"/><path d="M600.394,82.689c0.571,-0.891 1.809,-1.225 2.764,-0.745c0.798,0.401 1.148,1.243 0.909,2.028c-0.026,0.086 -1.332,4.882 -2.5,9.14" style="fill:none;stroke:#000;stroke-width:1px;"/><path d="M594.94,76.349c0.137,-1.012 1.135,-1.732 2.229,-1.605c0.913,0.105 1.605,0.768 1.729,1.573c0.025,0.159 2.825,15.868 2.802,16.035" style="fill:none;stroke:#000;stroke-width:1px;"/><path d="M485.853,92.614c-0.137,1.012 -1.135,1.732 -2.229,1.605c-1.093,-0.126 -1.87,-1.051 -1.733,-2.063" style="fill:none;stroke:#000;stroke-width:1px;"/><path d="M489.848,92.614c-0.137,1.012 -1.135,1.732 -2.228,1.605c-1.094,-0.126 -1.871,-1.051 -1.734,-2.063" style="fill:none;stroke:#000;stroke-width:1px;"/><path d="M493.843,92.614c-0.136,1.012 -1.135,1.732 -2.228,1.605c-1.093,-0.126 -1.87,-1.051 -1.734,-2.063" style="fill:none;stroke:#000;stroke-width:1px;"/><path d="M497.839,92.614c-0.137,1.012 -1.135,1.732 -2.229,1.605c-1.093,-0.126 -1.87,-1.051 -1.733,-2.063" style="fill:none;stroke:#000;stroke-width:1px;"/><path d="M501.834,92.614c-0.136,1.012 -1.135,1.732 -2.228,1.605c-1.094,-0.126 -1.87,-1.051 -1.734,-2.063" style="fill:none;stroke:#000;stroke-width:1px;"/><path d="M525.807,92.614c-0.137,1.012 -1.135,1.732 -2.229,1.605c-1.093,-0.126 -1.87,-1.051 -1.733,-2.063" style="fill:none;stroke:#000;stroke-width:1px;"/><path d="M549.779,92.614c-0.136,1.012 -1.135,1.732 -2.228,1.605c-1.094,-0.126 -1.871,-1.051 -1.734,-2.063" style="fill:none;stroke:#000;stroke-width:1px;"/><path d="M573.751,92.614c-0.136,1.012 -1.135,1.732 -2.228,1.605c-1.093,-0.126 -1.87,-1.051 -1.734,-2.063" style="fill:none;stroke:#000;stroke-width:1px;"/><path d="M597.724,92.614c-0.137,1.012 -1.135,1.732 -2.228,1.605c-1.094,-0.126 -1.871,-1.051 -1.734,-2.063" style="fill:none;stroke:#000;stroke-width:1px;"/><path d="M505.83,92.614c-0.137,1.012 -1.135,1.732 -2.229,1.605c-1.093,-0.126 -1.87,-1.051 -1.733,-2.063" style="fill:none;stroke:#000;stroke-width:1px;"/><path d="M529.802,92.614c-0.136,1.012 -1.135,1.732 -2.228,1.605c-1.094,-0.126 -1.871,-1.051 -1.734,-2.063" style="fill:none;stroke:#000;stroke-width:1px;"/><path d="M553.774,92.614c-0.136,1.012 -1.135,1.732 -2.228,1.605c-1.093,-0.126 -1.87,-1.051 -1.734,-2.063" style="fill:none;stroke:#000;stroke-width:1px;"/><path d="M577.747,92.614c-0.137,1.012 -1.135,1.732 -2.228,1.605c-1.094,-0.126 -1.871,-1.051 -1.734,-2.063" style="fill:none;stroke:#000;stroke-width:1px;"/><path d="M601.719,92.614c-0.136,1.012 -1.135,1.732 -2.228,1.605c-1.093,-0.126 -1.87,-1.051 -1.734,-2.063" style="fill:none;stroke:#000;stroke-width:1px;"/><path d="M509.825,92.614c-0.136,1.012 -1.135,1.732 -2.228,1.605c-1.094,-0.126 -1.871,-1.051 -1.734,-2.063" style="fill:none;stroke:#000;stroke-width:1px;"/><path d="M533.797,92.614c-0.136,1.012 -1.135,1.732 -2.228,1.605c-1.093,-0.126 -1.87,-1.051 -1.734,-2.063" style="fill:none;stroke:#000;stroke-width:1px;"/><path d="M557.77,92.614c-0.137,1.012 -1.135,1.732 -2.228,1.605c-1.094,-0.126 -1.871,-1.051 -1.734,-2.063" style="fill:none;stroke:#000;stroke-width:1px;"/><path d="M581.742,92.614c-0.136,1.012 -1.135,1.732 -2.228,1.605c-1.093,-0.126 -1.87,-1.051 -1.734,-2.063" style="fill:none;stroke:#000;stroke-width:1px;"/><path d="M513.82,92.614c-0.136,1.012 -1.135,1.732 -2.228,1.605c-1.093,-0.126 -1.87,-1.051 -1.734,-2.063" style="fill:none;stroke:#000;stroke-width:1px;"/><path d="M537.793,92.614c-0.137,1.012 -1.135,1.732 -2.229,1.605c-1.093,-0.126 -1.87,-1.051 -1.733,-2.063" style="fill:none;stroke:#000;stroke-width:1px;"/><path d="M561.765,92.614c-0.136,1.012 -1.135,1.732 -2.228,1.605c-1.093,-0.126 -1.87,-1.051 -1.734,-2.063" style="fill:none;stroke:#000;stroke-width:1px;"/><path d="M585.738,92.614c-0.137,1.012 -1.135,1.732 -2.229,1.605c-1.093,-0.126 -1.87,-1.051 -1.733,-2.063" style="fill:none;stroke:#000;stroke-width:1px;"/><path d="M517.816,92.614c-0.137,1.012 -1.135,1.732 -2.229,1.605c-1.093,-0.126 -1.87,-1.051 -1.733,-2.063" style="fill:none;stroke:#000;stroke-width:1px;"/><path d="M541.788,92.614c-0.136,1.012 -1.135,1.732 -2.228,1.605c-1.093,-0.126 -1.87,-1.051 -1.734,-2.063" style="fill:none;stroke:#000;stroke-width:1px;"/><path d="M565.761,92.614c-0.137,1.012 -1.135,1.732 -2.229,1.605c-1.093,-0.126 -1.87,-1.051 -1.733,-2.063" style="fill:none;stroke:#000;stroke-width:1px;"/><path d="M589.733,92.614c-0.136,1.012 -1.135,1.732 -2.228,1.605c-1.094,-0.126 -1.87,-1.051 -1.734,-2.063" style="fill:none;stroke:#000;stroke-width:1px;"/><path d="M521.811,92.614c-0.136,1.012 -1.135,1.732 -2.228,1.605c-1.093,-0.126 -1.87,-1.051 -1.734,-2.063" style="fill:none;stroke:#000;stroke-width:1px;"/><path d="M545.784,92.614c-0.137,1.012 -1.135,1.732 -2.229,1.605c-1.093,-0.126 -1.87,-1.051 -1.733,-2.063" style="fill:none;stroke:#000;stroke-width:1px;"/><path d="M569.756,92.614c-0.136,1.012 -1.135,1.732 -2.228,1.605c-1.094,-0.126 -1.87,-1.051 -1.734,-2.063" style="fill:none;stroke:#000;stroke-width:1px;"/><path d="M593.728,92.614c-0.136,1.012 -1.134,1.732 -2.228,1.605c-1.093,-0.126 -1.87,-1.051 -1.734,-2.063" style="fill:none;stroke:#000;stroke-width:1px;"/><path d="M479.045,78.358l2.859,13.771" style="fill:#9c9c9c;stroke:#000;stroke-width:0.3px;"/><path d="M515.034,78.358l2.858,13.771" style="fill:#9c9c9c;stroke:#000;stroke-width:0.3px;"/><g><path d="M574.976,78.358l2.859,13.771" style="fill:#9c9c9c;stroke:#000;stroke-width:0.3px;"/><path d="M594.922,78.358l2.859,13.771" style="fill:#9c9c9c;stroke:#000;stroke-width:0.3px;"/><path d="M566.969,78.358l2.859,13.771" style="fill:#9c9c9c;stroke:#000;stroke-width:0.3px;"/><path d="M582.969,78.358l2.859,13.771" style="fill:#9c9c9c;stroke:#000;stroke-width:0.3px;"/><path d="M562.98,78.334l2.859,13.772" style="fill:#9c9c9c;stroke:#000;stroke-width:0.3px;"/><path d="M578.98,78.334l2.859,13.772" style="fill:#9c9c9c;stroke:#000;stroke-width:0.3px;"/><path d="M570.967,78.334l2.859,13.772" style="fill:#9c9c9c;stroke:#000;stroke-width:0.3px;"/><path d="M590.912,78.334l2.859,13.772" style="fill:#9c9c9c;stroke:#000;stroke-width:0.3px;"/><path d="M586.967,78.334l2.858,13.772" style="fill:#9c9c9c;stroke:#000;stroke-width:0.3px;"/></g><path d="M495.045,78.358l2.859,13.771" style="fill:#9c9c9c;stroke:#000;stroke-width:0.3px;"/><path d="M531.033,78.358l2.859,13.771" style="fill:#9c9c9c;stroke:#000;stroke-width:0.3px;"/><path d="M487.038,78.358l2.859,13.771" style="fill:#9c9c9c;stroke:#000;stroke-width:0.3px;"/><path d="M523.026,78.358l2.859,13.771" style="fill:#9c9c9c;stroke:#000;stroke-width:0.3px;"/><path d="M503.038,78.358l2.858,13.771" style="fill:#9c9c9c;stroke:#000;stroke-width:0.3px;"/><path d="M539.026,78.358l2.859,13.771" style="fill:#9c9c9c;stroke:#000;stroke-width:0.3px;"/><path d="M550.998,78.358l2.859,13.771" style="fill:#9c9c9c;stroke:#000;stroke-width:0.3px;"/><path d="M483.049,78.334l2.858,13.772" style="fill:#9c9c9c;stroke:#000;stroke-width:0.3px;"/><path d="M519.037,78.334l2.859,13.772" style="fill:#9c9c9c;stroke:#000;stroke-width:0.3px;"/><path d="M499.048,78.334l2.859,13.772" style="fill:#9c9c9c;stroke:#000;stroke-width:0.3px;"/><path d="M535.037,78.334l2.859,13.772" style="fill:#9c9c9c;stroke:#000;stroke-width:0.3px;"/><path d="M491.035,78.334l2.859,13.772" style="fill:#9c9c9c;stroke:#000;stroke-width:0.3px;"/><path d="M527.024,78.334l2.859,13.772" style="fill:#9c9c9c;stroke:#000;stroke-width:0.3px;"/><path d="M510.981,78.334l2.859,13.772" style="fill:#9c9c9c;stroke:#000;stroke-width:0.3px;"/><path d="M546.969,78.334l2.859,13.772" style="fill:#9c9c9c;stroke:#000;stroke-width:0.3px;"/><path d="M558.941,78.334l2.859,13.772" style="fill:#9c9c9c;stroke:#000;stroke-width:0.3px;"/><path d="M507.035,78.334l2.859,13.772" style="fill:#9c9c9c;stroke:#000;stroke-width:0.3px;"/><path d="M543.024,78.334l2.859,13.772" style="fill:#9c9c9c;stroke:#000;stroke-width:0.3px;"/><path d="M554.995,78.334l2.859,13.772" style="fill:#9c9c9c;stroke:#000;stroke-width:0.3px;"/></g><path d="M345.159,60.123l67.078,0l0,48.128l-67.078,0m0,15.915l-68.055,-41.493l68.055,-39.22" style="fill:#ffd9d0;"/><path d="M344.677,65.906l19.578,-0.009" style="fill:none;stroke:#000;stroke-width:1px;"/><rect x="248.785" y="58.541" width="95.983" height="14.948" style="fill:#bde6b6;stroke:#000;stroke-width:1px;"/><rect x="249.758" y="59.226" width="94.397" height="2.738" style="fill:#d7efd2;"/><rect x="249.758" y="70.226" width="94.397" height="2.738" style="fill:#acdfa2;"/><rect x="121.01" y="51.2" width="128.098" height="29.015" style="fill:#8fd682;stroke:#000;stroke-width:1px;"/><rect x="125.01" y="47.772" width="4.364" height="3.428" style="fill:#519d44;stroke:#000;stroke-width:1px;"/><rect x="241.01" y="47.772" width="4.364" height="3.428" style="fill:#519d44;stroke:#000;stroke-width:1px;"/><path d="M100.872,66.119l19.963,0" style="fill:none;stroke:#000;stroke-width:1px;"/><text x="155.489px" y="71.095px" style="font-family:'ArialMT', 'Arial', sans-serif;font-size:16px;">Actuator</text><text x="224.501px" y="19.534px" style="font-family:'Arial-BoldMT', 'Arial', sans-serif;font-weight:700;font-size:20px;">Muscle</text><text x="640.05px" y="19.534px" style="font-family:'Arial-BoldMT', 'Arial', sans-serif;font-weight:700;font-size:20px;">Appendage</text><text x="502.975px" y="19.534px" style="font-family:'Arial-BoldMT', 'Arial', sans-serif;font-weight:700;font-size:20px;">T<tspan x="513.707px 524.83px " y="19.534px 19.534px ">en</tspan>don</text><text x="804.338px" y="19.534px" style="font-family:'Arial-BoldMT', 'Arial', sans-serif;font-weight:700;font-size:20px;">Projectile</text><path d="M266.175,99.905l0,-11.705l-145.165,0l0,29.015l145.165,0l0,-11.289" style="fill:#f89794;stroke:#000;stroke-width:1px;"/><path d="M100.834,103.119l20.001,0" style="fill:none;stroke:#000;stroke-width:1px;"/><path d="M24.505,84.642l76.276,0" style="fill:none;stroke:#000;stroke-width:1px;"/><path d="M427.835,84.711l44.992,-0.098" style="fill:none;stroke:#000;stroke-width:1px;"/><path d="M364.607,84.642l20.17,0" style="fill:none;stroke:#000;stroke-width:1px;"/><path d="M248.397,102.95l115.919,-0.053" style="fill:none;stroke:#000;stroke-width:1px;"/><text x="156.068px" y="107.095px" style="font-family:'ArialMT', 'Arial', sans-serif;font-size:16px;">Damper</text><path d="M100.759,66.177l0,36.858" style="fill:none;stroke:#000;stroke-width:1px;"/><path d="M364.341,65.915l0,36.991" style="fill:none;stroke:#000;stroke-width:1px;"/><circle cx="411.327" cy="84.708" r="26.649" style="fill:#f89794;stroke:#000;stroke-width:1px;"/><path d="M411.406,59.453c14.708,0 14.699,5.656 -0.009,5.656c-14.708,0 -14.698,-5.656 0.009,-5.656Z" style="fill:#f9a09e;"/><path d="M411.566,105.876c6.491,0.001 22.585,-8.224 10.927,1.562c-1.709,1.435 -6.405,3.322 -10.42,3.322c-0.266,-0.058 -1.188,-0.058 -1.455,0c-4.014,0 -8.711,-1.887 -10.419,-3.322c-11.658,-9.786 4.472,-1.563 11.367,-1.562Z" style="fill:#f78b89;"/><text x="391.762px" y="89.37px" style="font-family:'ArialMT', 'Arial', sans-serif;font-size:16px;">Mass</text><path d="M604.126,83.892c0,0 25.659,0.112 42.964,0.602c34.516,0.977 73.19,14.266 83.2,36.796" style="fill:none;stroke:#000;stroke-width:1px;"/><circle cx="850.172" cy="94.6" r="31.912" style="fill:#79a6ff;stroke:#000;stroke-width:1px;"/><path d="M850.253,119.745c7.899,0.002 32.701,-8.702 13.355,2.818c-2.333,1.389 -7.796,4.043 -12.682,4.043c-0.325,-0.07 -1.447,-0.07 -1.772,0c-4.886,0 -10.416,-2.548 -12.682,-4.043c-18.935,-12.493 5.388,-2.819 13.781,-2.818Z" style="fill:#649aff;"/><path d="M621.319,119.648c-1.25,-12.799 3.333,-25.873 15.108,-28.003c15.791,-2.858 67.487,0.515 88.358,28.041c6.571,6.962 140.011,7.383 152.66,2.103c5.07,-2.117 5.407,5.165 5.407,8.486c0,3.32 1.043,13.494 -5.407,11.438c-11.918,-3.8 -194.208,2.861 -241.725,0c-7.239,-0.436 -11.853,-6.976 -13.612,-16.046l5.651,-2.773l-6.44,-3.246Z" style="fill:#fffdef;stroke:#000;stroke-width:1px;"/><g><circle cx="641.899" cy="123.055" r="5.364" style="fill:none;stroke:#000;stroke-width:1px;"/><g><path d="M641.936,110.982c6.633,0 12.018,5.385 12.018,12.018" style="fill:none;stroke:#000;stroke-width:1.5px;"/><path d="M637.185,110.907l4.913,-1.737l0,3.474l-4.913,-1.737Z" style="stroke:#000;stroke-width:1px;"/></g></g><rect x="121.596" y="88.802" width="143.862" height="4.122" style="fill:#fab2b1;"/><path d="M294.515,65.902l16.857,0.12" style="fill:none;stroke:#000;stroke-width:1.5px;"/><rect x="121.641" y="112.753" width="143.862" height="3.844" style="fill:#f78280;"/><circle cx="730.023" cy="121.3" r="2.29" style="stroke:#000;stroke-width:1.5px;"/><circle cx="24.616" cy="84.663" r="2.29" style="stroke:#000;stroke-width:1.5px;"/><text x="666.555px" y="127.828px" style="font-family:'ArialMT', 'Arial', sans-serif;font-size:16px;">Lever</text><text x="568.472px" y="127.828px" style="font-family:'ArialMT', 'Arial', sans-serif;font-size:16px;">Latch</text><path d="M290.764,65.827l4.913,-1.737l0,3.473l-4.913,-1.736Z" style="stroke:#000;stroke-width:1px;"/><path d="M623.202,122.807l-8.765,4.303l0,-8.606l8.765,4.303Z" style="fill:#4fb353;stroke:#000;stroke-width:0.5px;"/><rect x="121.596" y="51.802" width="126.831" height="4.122" style="fill:#b7e5ae;"/><rect x="121.635" y="75.753" width="126.831" height="3.844" style="fill:#77cd66;"/><path d="M248.083,92.668l0,20.498" style="fill:none;stroke:#000;stroke-width:2px;"/><path d="M849.615,63.385c17.556,0.273 17.65,7.354 -0.011,7.354c-17.66,0 -17.568,-6.535 0.011,-7.354Z" style="fill:#8ab3ff;"/><text x="830.517px" y="98.92px" style="font-family:'ArialMT', 'Arial', sans-serif;font-size:16px;">Mass</text></svg>
