<?xml version="1.0" encoding="UTF-8" standalone="no"?><!DOCTYPE svg PUBLIC "-//W3C//DTD SVG 1.1//EN" "http://www.w3.org/Graphics/SVG/1.1/DTD/svg11.dtd"><svg width="100%" height="100%" viewBox="0 0 1280 800" version="1.1" xmlns="http://www.w3.org/2000/svg" xmlns:xlink="http://www.w3.org/1999/xlink" xml:space="preserve" style="fill-rule:evenodd;clip-rule:evenodd;stroke-linecap:round;stroke-linejoin:round;stroke-miterlimit:1.5;"><path d="M179.674,434.75c-34.056,2.074 -37.936,-94.607 4.535,-103.365c42.418,-8.747 41.447,42.807 59.704,52.955c14.144,7.862 422.508,24.559 573.587,5.819c11.328,-1.405 19.373,19.376 19.373,28.236c0,8.86 -5.881,12.625 -14.741,12.625c0,0 -586.495,0.321 -642.458,3.73Z" style="fill:#fffdef;stroke:#000;stroke-width:0.5px;"/><path d="M186.878,429.148c-30.529,2.391 -33.512,-27.776 7.968,-30.606c41.427,-2.826 40.478,13.831 58.31,17.109c13.814,2.54 560.199,1.88 560.199,1.88c8.653,0 18.92,6.261 18.92,9.123c0,2.863 -5.743,2.079 -14.396,2.079c0,0 -508.597,-9.171 -631.001,0.415Z" style="fill:#fffce5;"/><path d="M810.239,379.132c8.886,0 65.59,15.523 80.95,28.117c4.994,4.095 8.325,-0.525 9.511,-0.808c0.899,-0.215 1.279,3.262 0.66,0.104c-4.84,-24.721 -52.35,-41.842 -92.956,-46.159c-38.271,-4.069 -141.148,-4.131 -141.148,-4.131c-69.009,0.346 -134.984,-8.443 -41.279,12.984c-94.022,23.137 -26.38,13.305 41.279,12.998l142.983,-3.105Z" style="fill:#fff6cd;stroke:#000;stroke-width:0.5px;"/><path d="M183.478,387.154c-7.432,0 -7.432,-35.698 0,-35.698c0,0 36.194,0.039 46.645,0c11.91,-0.046 44.035,-17.259 13.466,17.849c30.673,37.911 0.539,18.001 -13.466,17.849c-10.45,-0.113 -46.645,0 -46.645,0" style="fill:#fff6cd;stroke:#000;stroke-width:0.5px;"/><g><path d="M651.884,376.687c-3.773,-0.033 -9.389,-3.049 -10,-7.268c-0.61,-4.22 1.918,-7.992 5.705,-8.024" style="fill:none;stroke:#000;stroke-width:1px;"/><path d="M643.244,376.687c4.095,-0.033 10.013,-3.049 10.676,-7.268c0.663,-4.22 -2.081,-7.992 -6.192,-8.024" style="fill:none;stroke:#000;stroke-width:1px;"/><path d="M660.476,376.672c-3.772,-0.033 -9.389,-3.048 -9.999,-7.268c-0.611,-4.22 1.917,-7.992 5.704,-8.023" style="fill:none;stroke:#000;stroke-width:1px;"/><path d="M651.836,376.672c4.095,-0.033 10.014,-3.048 10.677,-7.268c0.663,-4.22 -2.082,-7.992 -6.193,-8.023" style="fill:none;stroke:#000;stroke-width:1px;"/><path d="M669.068,376.657c-3.772,-0.033 -9.388,-3.048 -9.999,-7.268c-0.611,-4.22 1.918,-7.992 5.705,-8.023" style="fill:none;stroke:#000;stroke-width:1px;"/><path d="M660.429,376.657c4.094,-0.033 10.013,-3.048 10.676,-7.268c0.663,-4.22 -2.081,-7.992 -6.192,-8.023" style="fill:none;stroke:#000;stroke-width:1px;"/><path d="M677.661,376.642c-3.772,-0.033 -9.389,-3.048 -10,-7.268c-0.61,-4.219 1.918,-7.991 5.705,-8.023" style="fill:none;stroke:#000;stroke-width:1px;"/><path d="M669.021,376.642c4.095,-0.033 10.014,-3.048 10.677,-7.268c0.663,-4.219 -2.082,-7.991 -6.193,-8.023" style="fill:none;stroke:#000;stroke-width:1px;"/><path d="M686.253,376.627c-3.772,-0.032 -9.388,-3.048 -9.999,-7.268c-0.611,-4.219 1.917,-7.991 5.704,-8.023" style="fill:none;stroke:#000;stroke-width:1px;"/><path d="M677.613,376.627c4.095,-0.032 10.014,-3.048 10.677,-7.268c0.663,-4.219 -2.082,-7.991 -6.193,-8.023" style="fill:none;stroke:#000;stroke-width:1px;"/><path d="M694.846,376.613c-3.773,-0.033 -9.389,-3.049 -10,-7.268c-0.611,-4.22 1.918,-7.992 5.705,-8.023" style="fill:none;stroke:#000;stroke-width:1px;"/><path d="M686.206,376.613c4.095,-0.033 10.013,-3.049 10.676,-7.268c0.663,-4.22 -2.081,-7.992 -6.192,-8.023" style="fill:none;stroke:#000;stroke-width:1px;"/><path d="M703.438,376.598c-3.772,-0.033 -9.389,-3.048 -9.999,-7.268c-0.611,-4.22 1.917,-7.992 5.704,-8.023" style="fill:none;stroke:#000;stroke-width:1px;"/><path d="M694.798,376.598c4.095,-0.033 10.014,-3.048 10.677,-7.268c0.663,-4.22 -2.082,-7.992 -6.193,-8.023" style="fill:none;stroke:#000;stroke-width:1px;"/><path d="M712.03,376.583c-3.772,-0.033 -9.388,-3.048 -9.999,-7.268c-0.611,-4.22 1.918,-7.991 5.705,-8.023" style="fill:none;stroke:#000;stroke-width:1px;"/><path d="M703.39,376.583c4.095,-0.033 10.014,-3.048 10.677,-7.268c0.663,-4.22 -2.081,-7.991 -6.192,-8.023" style="fill:none;stroke:#000;stroke-width:1px;"/><path d="M720.623,376.568c-3.772,-0.033 -9.389,-3.048 -10,-7.268c-0.61,-4.219 1.918,-7.991 5.705,-8.023" style="fill:none;stroke:#000;stroke-width:1px;"/><path d="M711.983,376.568c4.095,-0.033 10.013,-3.048 10.677,-7.268c0.663,-4.219 -2.082,-7.991 -6.193,-8.023" style="fill:none;stroke:#000;stroke-width:1px;"/><path d="M729.215,376.554c-3.772,-0.033 -9.388,-3.049 -9.999,-7.268c-0.611,-4.22 1.917,-7.992 5.704,-8.024" style="fill:none;stroke:#000;stroke-width:1px;"/><path d="M720.575,376.554c4.095,-0.033 10.014,-3.049 10.677,-7.268c0.663,-4.22 -2.082,-7.992 -6.193,-8.024" style="fill:none;stroke:#000;stroke-width:1px;"/><path d="M737.808,376.539c-3.773,-0.033 -9.389,-3.049 -10,-7.268c-0.611,-4.22 1.918,-7.992 5.705,-8.023" style="fill:none;stroke:#000;stroke-width:1px;"/><path d="M729.168,376.539c4.095,-0.033 10.013,-3.049 10.676,-7.268c0.663,-4.22 -2.081,-7.992 -6.192,-8.023" style="fill:none;stroke:#000;stroke-width:1px;"/><path d="M746.4,376.524c-3.772,-0.033 -9.389,-3.048 -9.999,-7.268c-0.611,-4.22 1.917,-7.992 5.704,-8.023" style="fill:none;stroke:#000;stroke-width:1px;"/><path d="M737.76,376.524c4.095,-0.033 10.014,-3.048 10.677,-7.268c0.663,-4.22 -2.082,-7.992 -6.193,-8.023" style="fill:none;stroke:#000;stroke-width:1px;"/><path d="M754.992,376.509c-3.772,-0.033 -9.388,-3.048 -9.999,-7.268c-0.611,-4.22 1.918,-7.991 5.705,-8.023" style="fill:none;stroke:#000;stroke-width:1px;"/><path d="M746.352,376.509c4.095,-0.033 10.014,-3.048 10.677,-7.268c0.663,-4.22 -2.081,-7.991 -6.192,-8.023" style="fill:none;stroke:#000;stroke-width:1px;"/><path d="M763.585,376.494c-3.772,-0.032 -9.389,-3.048 -10,-7.268c-0.61,-4.219 1.918,-7.991 5.705,-8.023" style="fill:none;stroke:#000;stroke-width:1px;"/><path d="M754.945,376.494c4.095,-0.032 10.013,-3.048 10.677,-7.268c0.663,-4.219 -2.082,-7.991 -6.193,-8.023" style="fill:none;stroke:#000;stroke-width:1px;"/><path d="M772.177,376.48c-3.772,-0.033 -9.388,-3.049 -9.999,-7.268c-0.611,-4.22 1.917,-7.992 5.704,-8.024" style="fill:none;stroke:#000;stroke-width:1px;"/><path d="M763.537,376.48c4.095,-0.033 10.014,-3.049 10.677,-7.268c0.663,-4.22 -2.082,-7.992 -6.193,-8.024" style="fill:none;stroke:#000;stroke-width:1px;"/><path d="M780.769,376.465c-3.772,-0.033 -9.388,-3.048 -9.999,-7.268c-0.611,-4.22 1.918,-7.992 5.705,-8.023" style="fill:none;stroke:#000;stroke-width:1px;"/><path d="M772.13,376.465c4.095,-0.033 10.013,-3.048 10.676,-7.268c0.663,-4.22 -2.081,-7.992 -6.192,-8.023" style="fill:none;stroke:#000;stroke-width:1px;"/><path d="M651.884,376.687c-4.06,0.034 -9.389,-3.049 -10,-7.268c-0.61,-4.22 1.918,-7.992 5.705,-8.024" style="fill:none;stroke:#000;stroke-width:1px;"/><path d="M643.244,376.687c4.696,0.112 10.013,-3.049 10.676,-7.268c0.663,-4.22 -2.081,-7.992 -6.192,-8.024" style="fill:none;stroke:#000;stroke-width:1px;"/><path d="M660.476,376.672c-4.06,0.034 -9.389,-3.048 -9.999,-7.268c-0.611,-4.22 1.917,-7.992 5.704,-8.023" style="fill:none;stroke:#000;stroke-width:1px;"/><path d="M651.836,376.672c4.697,0.112 10.014,-3.048 10.677,-7.268c0.663,-4.22 -2.082,-7.992 -6.193,-8.023" style="fill:none;stroke:#000;stroke-width:1px;"/><path d="M669.068,376.657c-4.059,0.034 -9.388,-3.048 -9.999,-7.268c-0.611,-4.22 1.918,-7.992 5.705,-8.023" style="fill:none;stroke:#000;stroke-width:1px;"/><path d="M660.429,376.657c4.696,0.112 10.013,-3.048 10.676,-7.268c0.663,-4.22 -2.081,-7.992 -6.192,-8.023" style="fill:none;stroke:#000;stroke-width:1px;"/><path d="M677.661,376.642c-4.06,0.034 -9.389,-3.048 -10,-7.268c-0.61,-4.219 1.918,-7.991 5.705,-8.023" style="fill:none;stroke:#000;stroke-width:1px;"/><path d="M669.021,376.642c4.697,0.112 10.014,-3.048 10.677,-7.268c0.663,-4.219 -2.082,-7.991 -6.193,-8.023" style="fill:none;stroke:#000;stroke-width:1px;"/><path d="M686.253,376.627c-4.059,0.034 -9.388,-3.048 -9.999,-7.268c-0.611,-4.219 1.917,-7.991 5.704,-8.023" style="fill:none;stroke:#000;stroke-width:1px;"/><path d="M677.613,376.627c4.697,0.113 10.014,-3.048 10.677,-7.268c0.663,-4.219 -2.082,-7.991 -6.193,-8.023" style="fill:none;stroke:#000;stroke-width:1px;"/><path d="M694.846,376.613c-4.06,0.034 -9.389,-3.049 -10,-7.268c-0.611,-4.22 1.918,-7.992 5.705,-8.023" style="fill:none;stroke:#000;stroke-width:1px;"/><path d="M686.206,376.613c4.696,0.112 10.013,-3.049 10.676,-7.268c0.663,-4.22 -2.081,-7.992 -6.192,-8.023" style="fill:none;stroke:#000;stroke-width:1px;"/><path d="M703.438,376.598c-4.06,0.034 -9.389,-3.048 -9.999,-7.268c-0.611,-4.22 1.917,-7.992 5.704,-8.023" style="fill:none;stroke:#000;stroke-width:1px;"/><path d="M694.798,376.598c4.697,0.112 10.014,-3.048 10.677,-7.268c0.663,-4.22 -2.082,-7.992 -6.193,-8.023" style="fill:none;stroke:#000;stroke-width:1px;"/><path d="M712.03,376.583c-4.059,0.034 -9.388,-3.048 -9.999,-7.268c-0.611,-4.22 1.918,-7.991 5.705,-8.023" style="fill:none;stroke:#000;stroke-width:1px;"/><path d="M703.39,376.583c4.697,0.112 10.014,-3.048 10.677,-7.268c0.663,-4.22 -2.081,-7.991 -6.192,-8.023" style="fill:none;stroke:#000;stroke-width:1px;"/><path d="M720.623,376.568c-4.06,0.034 -9.389,-3.048 -10,-7.268c-0.61,-4.219 1.918,-7.991 5.705,-8.023" style="fill:none;stroke:#000;stroke-width:1px;"/><path d="M711.983,376.568c4.696,0.113 10.013,-3.048 10.677,-7.268c0.663,-4.219 -2.082,-7.991 -6.193,-8.023" style="fill:none;stroke:#000;stroke-width:1px;"/><path d="M729.215,376.554c-4.059,0.034 -9.388,-3.049 -9.999,-7.268c-0.611,-4.22 1.917,-7.992 5.704,-8.024" style="fill:none;stroke:#000;stroke-width:1px;"/><path d="M720.575,376.554c4.697,0.112 10.014,-3.049 10.677,-7.268c0.663,-4.22 -2.082,-7.992 -6.193,-8.024" style="fill:none;stroke:#000;stroke-width:1px;"/><path d="M737.808,376.539c-4.06,0.034 -9.389,-3.049 -10,-7.268c-0.611,-4.22 1.918,-7.992 5.705,-8.023" style="fill:none;stroke:#000;stroke-width:1px;"/><path d="M729.168,376.539c4.696,0.112 10.013,-3.049 10.676,-7.268c0.663,-4.22 -2.081,-7.992 -6.192,-8.023" style="fill:none;stroke:#000;stroke-width:1px;"/><path d="M746.4,376.524c-4.06,0.034 -9.389,-3.048 -9.999,-7.268c-0.611,-4.22 1.917,-7.992 5.704,-8.023" style="fill:none;stroke:#000;stroke-width:1px;"/><path d="M737.76,376.524c4.697,0.112 10.014,-3.048 10.677,-7.268c0.663,-4.22 -2.082,-7.992 -6.193,-8.023" style="fill:none;stroke:#000;stroke-width:1px;"/><path d="M754.992,376.509c-4.059,0.034 -9.388,-3.048 -9.999,-7.268c-0.611,-4.22 1.918,-7.991 5.705,-8.023" style="fill:none;stroke:#000;stroke-width:1px;"/><path d="M746.352,376.509c4.697,0.112 10.014,-3.048 10.677,-7.268c0.663,-4.22 -2.081,-7.991 -6.192,-8.023" style="fill:none;stroke:#000;stroke-width:1px;"/><path d="M763.585,376.494c-4.06,0.034 -9.389,-3.048 -10,-7.268c-0.61,-4.219 1.918,-7.991 5.705,-8.023" style="fill:none;stroke:#000;stroke-width:1px;"/><path d="M754.945,376.494c4.696,0.113 10.013,-3.048 10.677,-7.268c0.663,-4.219 -2.082,-7.991 -6.193,-8.023" style="fill:none;stroke:#000;stroke-width:1px;"/><path d="M772.177,376.48c-4.06,0.034 -9.388,-3.049 -9.999,-7.268c-0.611,-4.22 1.917,-7.992 5.704,-8.024" style="fill:none;stroke:#000;stroke-width:1px;"/><path d="M763.537,376.48c4.697,0.112 10.014,-3.049 10.677,-7.268c0.663,-4.22 -2.082,-7.992 -6.193,-8.024" style="fill:none;stroke:#000;stroke-width:1px;"/><path d="M780.769,376.465c-4.059,0.034 -9.388,-3.048 -9.999,-7.268c-0.611,-4.22 1.918,-7.992 5.705,-8.023" style="fill:none;stroke:#000;stroke-width:1px;"/><path d="M772.13,376.465c4.696,0.112 10.013,-3.048 10.676,-7.268c0.663,-4.22 -2.081,-7.992 -6.192,-8.023" style="fill:none;stroke:#000;stroke-width:1px;"/><path d="M642.937,376.687c-6.246,-0.011 -5.931,-7.283 -11.23,-7.264" style="fill:none;stroke:#000;stroke-width:1px;"/><path d="M780.645,376.477c6.438,0.002 6.015,-7.08 11.477,-7.051" style="fill:none;stroke:#000;stroke-width:1px;"/></g><text x="689.413px" y="349.168px" style="font-family:'ArialMT', 'Arial', sans-serif;font-size:16px;">Spring</text><path d="M425.543,316.246c143.842,0.157 202.308,23.16 202.308,52.917c0,29.758 -65.888,48.563 -202.308,48.918c-147.403,0.383 -199.154,-19.16 -199.154,-48.918c0,-29.757 58.553,-53.07 199.154,-52.917Z" style="fill:#ffe3dd;stroke:#000;stroke-width:0.5px;"/><path d="M498.958,344.902l79.066,0l0,48.128l-79.066,0m0,15.915l-78.892,-40.357l78.892,-40.356" style="fill:#ffd9d0;"/><rect x="414.572" y="343.32" width="105.437" height="14.948" style="fill:#e7f0ff;stroke:#000;stroke-width:1px;"/><rect x="415.665" y="343.97" width="103.779" height="4.759" style="fill:#f0f6ff;"/><rect x="415.665" y="343.97" width="103.779" height="2.435" style="fill:#f8faff;"/><rect x="286.797" y="335.979" width="128.098" height="29.015" style="fill:#cde1ff;stroke:#000;stroke-width:1px;"/><rect x="290.797" y="332.551" width="4.364" height="3.428" style="fill:#8ab6fa;stroke:#000;stroke-width:1px;"/><rect x="406.797" y="332.551" width="4.364" height="3.428" style="fill:#8ab6fa;stroke:#000;stroke-width:1px;"/><path d="M263.628,350.898l22.993,0" style="fill:none;stroke:#000;stroke-width:1px;"/><path d="M520.259,350.677l8.842,0" style="fill:none;stroke:#000;stroke-width:1px;"/><text x="321.275px" y="355.875px" style="font-family:'ArialMT', 'Arial', sans-serif;font-size:16px;">Actuator</text><text x="390.288px" y="304.313px" style="font-family:'Arial-BoldMT', 'Arial', sans-serif;font-weight:700;font-size:20px;">Muscle</text><text x="836.837px" y="304.313px" style="font-family:'Arial-BoldMT', 'Arial', sans-serif;font-weight:700;font-size:20px;">Appendage</text><text x="678.656px" y="304.313px" style="font-family:'Arial-BoldMT', 'Arial', sans-serif;font-weight:700;font-size:20px;">T<tspan x="689.388px 700.511px " y="304.313px 304.313px ">en</tspan>don</text><text x="1018.12px" y="304.313px" style="font-family:'Arial-BoldMT', 'Arial', sans-serif;font-weight:700;font-size:20px;">Projectile</text><path d="M431.961,384.684l0,-11.705l-145.164,0l0,29.015l145.164,0l0,-11.288" style="fill:#fff2cd;stroke:#000;stroke-width:1px;"/><path d="M263.628,387.898l22.993,0" style="fill:none;stroke:#000;stroke-width:1px;"/><path d="M214.579,369.421l48.863,0" style="fill:none;stroke:#000;stroke-width:1px;"/><path d="M595.892,369.421l36.269,0" style="fill:none;stroke:#000;stroke-width:1px;"/><path d="M529.389,369.421l12.974,0" style="fill:none;stroke:#000;stroke-width:1px;"/><path d="M414.184,387.729l114.954,-0.053" style="fill:none;stroke:#000;stroke-width:1px;"/><text x="321.855px" y="391.875px" style="font-family:'ArialMT', 'Arial', sans-serif;font-size:16px;">Damper</text><path d="M413.87,377.447l0,20.498" style="fill:none;stroke:#000;stroke-width:2px;"/><path d="M263.546,350.956l0,37" style="fill:none;stroke:#000;stroke-width:1px;"/><path d="M529.127,350.694l0,36.991" style="fill:none;stroke:#000;stroke-width:1px;"/><circle cx="569.114" cy="369.487" r="26.649" style="fill:#feaeae;stroke:#000;stroke-width:1px;"/><text x="549.548px" y="374.149px" style="font-family:'ArialMT', 'Arial', sans-serif;font-size:16px;">Mass</text><circle cx="201.801" cy="369.466" r="12.242" style="fill:#e0e0e0;stroke:#000;stroke-width:0.5px;"/><g><g><path d="M201.845,377.819c-3.36,0.004 -5.121,-1.7 -6.088,-5.548" style="fill:none;stroke:#000;stroke-width:1.35px;"/><path d="M195.314,370.427l2.157,2.239l-3.002,0.752l0.845,-2.991Z"/></g><g><path d="M201.901,377.819c3.36,0.004 5.121,-1.7 6.088,-5.548" style="fill:none;stroke:#000;stroke-width:1.35px;"/><path d="M208.432,370.427l-2.157,2.239l3.002,0.752l-0.845,-2.991Z"/></g><path d="M201.85,377.674l0,-13.403" style="fill:none;stroke:#000;stroke-width:1.35px;"/><path d="M205.368,366.155l-7.022,0" style="fill:none;stroke:#000;stroke-width:1.35px;"/><circle cx="201.886" cy="362.824" r="1.433" style="fill:none;stroke:#000;stroke-width:1.35px;"/></g><path d="M792.208,369.383c0,0 87.578,-2.098 103.996,36.501" style="fill:none;stroke:#000;stroke-width:1px;"/><circle cx="1063.96" cy="377.379" r="31.912" style="fill:#acf39d;stroke:#000;stroke-width:1px;"/><text x="1044.3px" y="381.699px" style="font-family:'ArialMT', 'Arial', sans-serif;font-size:16px;">Mass</text><path d="M801.506,426.492c-18.083,-1.089 -20.901,-46.159 0.708,-50.068c15.791,-2.858 71.16,2.491 89.433,30.144c0,0 186.952,5.168 199.585,0c5.085,-2.081 5.406,5.165 5.406,8.486c0,3.32 1.043,13.494 -5.406,11.438c-11.918,-3.8 -242.209,2.861 -289.726,0Z" style="fill:#fffdef;stroke:#000;stroke-width:1px;"/><circle cx="810.686" cy="412.834" r="5.364" style="stroke:#000;stroke-width:1.5px;"/><path d="M810.723,400.761c6.633,0 12.018,5.385 12.018,12.018" style="fill:none;stroke:#000;stroke-width:1.5px;"/><path d="M460.302,350.681l16.857,0.12" style="fill:none;stroke:#000;stroke-width:1.5px;"/><circle cx="896.344" cy="406.446" r="0.425" style="stroke:#000;stroke-width:1.5px;"/><text x="835.342px" y="418.607px" style="font-family:'ArialMT', 'Arial', sans-serif;font-size:16px;">Lever</text><path d="M805.972,400.686l4.913,-1.737l0,3.474l-4.913,-1.737Z" style="stroke:#000;stroke-width:1px;"/><path d="M456.551,350.606l4.913,-1.737l0,3.474l-4.913,-1.737Z" style="stroke:#000;stroke-width:1px;"/></svg>
