<?xml version="1.0" encoding="UTF-8" standalone="no"?><!DOCTYPE svg PUBLIC "-//W3C//DTD SVG 1.1//EN" "http://www.w3.org/Graphics/SVG/1.1/DTD/svg11.dtd"><svg width="100%" height="100%" viewBox="0 0 200 40" version="1.1" xmlns="http://www.w3.org/2000/svg" xmlns:xlink="http://www.w3.org/1999/xlink" xml:space="preserve" style="fill-rule:evenodd;clip-rule:evenodd;stroke-linejoin:round;stroke-miterlimit:1.41421;"><g transform="matrix(0.433308,0,0,0.13768,-104.079,-28.8095)"><g transform="matrix(1.00534,0,0,3.164,-1.28923,-478.924)"><path d="M251.148,252.439l-5.094,4.875c-0.479,-1.625 -0.718,-3.25 -0.718,-4.875c0,-5.167 1.953,-9.453 5.859,-12.859c3.906,-3.407 8.818,-5.11 14.734,-5.11c0.979,0 1.844,0.042 2.594,0.125c0.5,0.042 0.833,0.063 1,0.063l0.406,0c-0.021,0.604 -0.031,1.041 -0.031,1.312c0,3.209 1.396,8.375 4.188,15.5l1.406,3.563c0.187,0.5 0.489,1.323 0.906,2.468l1.156,3.25c0.625,1.709 1.167,3.407 1.625,5.094l1.625,-2.687c1.792,-2.979 3.396,-5.688 4.813,-8.125l3.062,-5.282l2.375,-4.375l2.875,-5.25c0.271,-0.479 0.802,-1.458 1.594,-2.937l6.031,-3.781c-1.333,7.771 -2,14.01 -2,18.718l-0.406,10.219l-0.094,3.844c0,3.25 0.214,5.38 0.641,6.391c0.427,1.01 1.338,1.515 2.734,1.515c1.479,0 2.802,-0.208 3.969,-0.625c0.188,0.25 0.281,0.469 0.281,0.656c0,0.688 -0.708,1.198 -2.125,1.532l-1.656,0.406l-8.875,1.812c-0.104,-1.958 -0.156,-3.76 -0.156,-5.406c0,-10.625 0.469,-20.062 1.406,-28.312c-2.875,4.083 -5.042,7.396 -6.5,9.937l-1.875,3.219c-2.562,4.417 -4.635,8.677 -6.219,12.781l-4.5,4.688c-0.291,-3.938 -1.843,-9.469 -4.656,-16.594l-1.219,-3.156c-0.166,-0.375 -0.541,-1.292 -1.125,-2.75c-1.187,-2.875 -2.073,-5.625 -2.656,-8.25l-2.531,15.468c-0.75,4.646 -1.531,7.808 -2.344,9.485c-0.812,1.677 -2.25,3.057 -4.312,4.14l7.875,0.594l-4,3.656l-13.344,-0.687l4.031,-3.875l3.531,0.312c1.375,-1.02 2.354,-2.27 2.938,-3.75c0.583,-1.479 1.26,-4.468 2.031,-8.968l3.75,-21.969l-1.469,0c-8.666,0 -13,2.865 -13,8.594c0,1.791 0.49,3.593 1.469,5.406Z" style="fill:none;"/><path d="M330.898,264.408c-2.375,3.646 -5.052,6.739 -8.031,9.281c-2.979,2.542 -5.406,3.812 -7.281,3.812c-2.063,0 -3.094,-1.375 -3.094,-4.125c0,-1.02 0.135,-2.697 0.406,-5.031l1.125,-10.25c0.021,-0.146 0.073,-0.75 0.156,-1.812l0.188,-2.032c0.062,-0.604 0.094,-1.145 0.094,-1.625c0,-1.208 -0.344,-1.812 -1.032,-1.812c-1.583,0 -3.291,1.781 -5.125,5.344c-0.396,-0.313 -0.593,-0.646 -0.593,-1c0,-1.292 1.151,-3.011 3.453,-5.157c2.302,-2.145 4.13,-3.218 5.484,-3.218c1.729,0 2.594,1.187 2.594,3.562c0,0.563 -0.042,1.219 -0.125,1.969l-0.281,2.406l-0.282,2.625l-1,8.938c-0.166,1.521 -0.25,3.062 -0.25,4.625c0,1.437 0.532,2.156 1.594,2.156c2.354,0 5.016,-1.938 7.984,-5.813c2.969,-3.875 4.724,-7.708 5.266,-11.5l1.063,-7.406l5.062,-1.719c-0.583,2.417 -1.021,4.573 -1.312,6.469l-1.875,13.063c-0.105,0.791 -0.188,1.458 -0.25,2l-0.219,1.718c-0.125,1.063 -0.188,1.813 -0.188,2.25c0,0.896 0.25,1.344 0.75,1.344c1.771,0 3.573,-1.958 5.407,-5.875c0.562,0.334 0.843,0.667 0.843,1c0,0.729 -0.906,2.198 -2.718,4.406c-2.438,3 -4.698,4.5 -6.782,4.5c-1.521,0 -2.281,-1.02 -2.281,-3.062c0,-0.646 0.073,-1.51 0.219,-2.594l0.344,-2.5c0.187,-1.354 0.312,-2.271 0.375,-2.75l0.312,-2.187Z" style="fill:none;"/><path d="M342.179,275.814l4.313,-3.531c1.625,1.729 3.666,2.593 6.125,2.593c3,0 4.5,-1.447 4.5,-4.343c0,-1.604 -1.375,-3.844 -4.125,-6.719l-1.781,-1.844c-2.605,-2.729 -3.907,-4.937 -3.907,-6.625c0,-2.416 1.047,-4.448 3.141,-6.094c2.094,-1.645 4.672,-2.468 7.734,-2.468c1.667,0 3.49,0.312 5.469,0.937l-3.75,3.469c-1.583,-1.188 -3.344,-1.781 -5.281,-1.781c-2.271,0 -3.406,0.948 -3.406,2.843c0,1.355 1.26,3.344 3.781,5.969l1.937,2.063c2.875,3 4.313,5.416 4.313,7.25c0,2.625 -1.261,4.942 -3.781,6.953c-2.521,2.01 -5.428,3.015 -8.719,3.015c-2.334,0 -4.521,-0.562 -6.563,-1.687Z" style="fill:none;"/><path d="M388.679,247.595l-3.562,4.281c-1.667,-0.687 -3.261,-1.031 -4.781,-1.031c-2.73,0 -4.881,1.156 -6.454,3.469c-1.573,2.312 -2.359,5.479 -2.359,9.5c0,2.833 0.568,5.115 1.703,6.844c1.136,1.729 2.62,2.593 4.453,2.593c3.104,0 5.542,-2.031 7.313,-6.093c0.458,0.5 0.687,0.968 0.687,1.406c0,1.729 -1.349,3.651 -4.047,5.766c-2.698,2.114 -5.171,3.171 -7.421,3.171c-2.167,0 -3.943,-0.869 -5.329,-2.609c-1.385,-1.74 -2.078,-3.995 -2.078,-6.766c0,-5.395 1.834,-10.302 5.5,-14.718c3.667,-4.417 7.74,-6.625 12.219,-6.625c1.625,0 3.01,0.271 4.156,0.812Z" style="fill:none;"/><path d="M404.086,267.501c0.604,0.292 0.906,0.667 0.906,1.125c0,1.5 -1.12,3.355 -3.36,5.563c-2.239,2.208 -4.119,3.312 -5.64,3.312c-1.729,0 -2.594,-1.25 -2.594,-3.75c0,-1.52 0.094,-3.072 0.281,-4.656l0.344,-2.781l2.406,-21.75c0.75,-6.625 3.026,-12.156 6.828,-16.594c3.802,-4.437 8.183,-6.656 13.141,-6.656c1.208,0 2.229,0.104 3.063,0.312l-4.438,4.532c-0.979,-0.334 -2.125,-0.5 -3.437,-0.5c-3.125,0 -5.464,1.099 -7.016,3.297c-1.552,2.197 -2.62,5.921 -3.203,11.171l-2.906,26.188c-0.23,2.021 -0.344,3.469 -0.344,4.344c0,1.875 0.323,2.812 0.969,2.812c0.77,0 1.677,-0.62 2.718,-1.859c1.042,-1.24 1.802,-2.61 2.282,-4.11Z" style="fill:none;"/><path d="M427.461,266.751c0.52,0.355 0.781,0.771 0.781,1.25c0,0.646 -0.667,1.75 -2,3.313c-3.563,4.125 -7.084,6.187 -10.563,6.187c-2.125,0 -3.875,-0.843 -5.25,-2.531c-1.375,-1.687 -2.062,-3.844 -2.062,-6.469c0,-4.75 1.797,-9.557 5.39,-14.421c3.594,-4.865 7.151,-7.297 10.672,-7.297c2.542,0 3.813,1.364 3.813,4.093c0,3.063 -1.485,6.053 -4.453,8.969c-2.969,2.917 -6.589,4.948 -10.86,6.094c0.417,5.021 2.396,7.531 5.938,7.531c3.5,0 6.364,-2.239 8.594,-6.719Zm-14.407,-4.625c0.604,0.209 1.157,0.313 1.657,0.313c2.583,0 4.843,-0.792 6.781,-2.375c1.937,-1.583 2.906,-3.438 2.906,-5.563c0,-2.437 -1.24,-3.656 -3.719,-3.656c-1.791,0 -3.411,1.068 -4.859,3.203c-1.448,2.136 -2.37,4.828 -2.766,8.078Z" style="fill:none;"/><path d="M456.492,252.626l-5.063,4.875c-0.5,-1.666 -0.75,-3.25 -0.75,-4.75c0,-5.833 2.427,-10.552 7.282,-14.156c3.541,-2.625 8.583,-3.937 15.125,-3.937l10.312,0c3.875,0 7.833,-0.136 11.875,-0.407l-2.531,6.407l-0.5,1.156c-0.521,1.229 -1.188,1.844 -2,1.844c-0.125,0 -0.271,-0.011 -0.438,-0.032c0.229,-1.041 0.344,-1.875 0.344,-2.5c0,-1.375 -0.724,-2.234 -2.172,-2.578c-1.448,-0.343 -5.057,-0.515 -10.828,-0.515l-3.031,0l-1.656,15.125l6.093,0c3.521,0 6.646,-0.167 9.375,-0.5c-2.375,2.854 -4.771,4.281 -7.187,4.281c-1.354,0 -3.271,-0.104 -5.75,-0.313c-1.021,-0.062 -1.74,-0.093 -2.156,-0.093l-0.75,0l-0.313,2.718c-0.437,3.959 -1.13,6.771 -2.078,8.438c-0.948,1.667 -2.807,3.344 -5.578,5.031l6.844,0.531l2.781,0.25c1.958,0.146 4.302,0.219 7.031,0.219c4.604,0 8.438,-1.489 11.5,-4.469c0.354,0.396 0.531,0.771 0.531,1.125c0,0.584 -1.114,1.782 -3.343,3.594c-3.25,2.646 -6.803,3.969 -10.657,3.969c-3.562,0 -8.687,-0.302 -15.375,-0.906l-11.656,-1.063c-0.396,-0.021 -1.802,-0.104 -4.219,-0.25l5.719,-4.312c2.063,0.354 4.542,0.666 7.438,0.937c2.041,-0.791 3.416,-1.916 4.125,-3.375c0.708,-1.458 1.302,-4.396 1.781,-8.812l2.469,-22.125l-1.094,0c-4.042,0 -7.209,0.828 -9.5,2.484c-2.292,1.656 -3.438,3.943 -3.438,6.859c0,1.688 0.479,3.438 1.438,5.25Z" style="fill:none;"/><path d="M509.711,263.001l-0.969,-2.562c-0.709,-1.813 -1.094,-2.792 -1.156,-2.938l-1.5,-3.343c-1.063,-2.396 -2.084,-3.594 -3.063,-3.594c-1.479,0 -2.646,1.385 -3.5,4.156c-0.625,-0.229 -0.937,-0.562 -0.937,-1c0,-1.291 0.75,-2.771 2.25,-4.437c1.5,-1.667 2.843,-2.5 4.031,-2.5c2.333,0 4.75,3.354 7.25,10.062l0.625,1.656l0.719,-1.156c4.437,-7.041 8.177,-10.562 11.218,-10.562c0.792,0 1.719,0.229 2.782,0.687l-3.782,3.969c-0.5,-0.146 -0.854,-0.219 -1.062,-0.219c-2.292,0 -5.021,2.636 -8.188,7.906l-0.906,1.5l0.719,1.938c2.75,7.562 5.01,11.344 6.781,11.344c1.625,0 2.865,-1.167 3.719,-3.5c0.583,0.375 0.875,0.76 0.875,1.156c0,1.042 -0.834,2.292 -2.5,3.75c-1.667,1.458 -3.104,2.187 -4.313,2.187c-2.416,0 -4.885,-3.406 -7.406,-10.218l-0.875,-2.313l-0.906,1.594c-4.25,7.292 -8.313,10.937 -12.188,10.937c-1.458,0 -2.698,-0.364 -3.718,-1.093l3.625,-3.563c0.625,0.625 1.354,0.938 2.187,0.938c2.354,0 5,-2.375 7.938,-7.125l1.625,-2.625l0.625,-1.032Z" style="fill:none;"/><path d="M535.804,277.064l-0.25,2.469c-0.646,6.458 -2.979,11.979 -7,16.562c-4.021,4.584 -8.541,6.875 -13.562,6.875c-1.042,0 -2.042,-0.125 -3,-0.375l4.531,-4.5c1.188,0.354 2.313,0.531 3.375,0.531c6.208,0 9.792,-4.833 10.75,-14.5l3.25,-32.406c-0.979,0.729 -2.031,1.573 -3.156,2.531c-1.375,1.167 -2.584,2.084 -3.625,2.75l0.25,-2.5c3.521,-2.083 7.385,-5.062 11.594,-8.937l-1.438,14.469c2.208,-3.875 4.688,-7.052 7.438,-9.532c2.75,-2.479 5.166,-3.718 7.25,-3.718c3,0 4.5,2.562 4.5,7.687c0,6.104 -1.969,11.401 -5.907,15.891c-3.937,4.489 -8.583,6.734 -13.937,6.734l-1.063,-0.031Zm0.469,-4.656c1.688,1.062 3.594,1.593 5.719,1.593c2.854,0 5.172,-1.666 6.953,-5c1.781,-3.333 2.672,-7.656 2.672,-12.968c0,-3.104 -0.844,-4.657 -2.531,-4.657c-1.855,0 -4.053,1.417 -6.594,4.25c-3.396,3.771 -5.354,8.24 -5.875,13.407l-0.344,3.375Z" style="fill:none;"/><path d="M573.398,267.501c0.604,0.292 0.906,0.667 0.906,1.125c0,1.5 -1.12,3.355 -3.359,5.563c-2.24,2.208 -4.12,3.312 -5.641,3.312c-1.729,0 -2.593,-1.25 -2.593,-3.75c0,-1.52 0.093,-3.072 0.281,-4.656l0.344,-2.781l2.406,-21.75c0.75,-6.625 3.026,-12.156 6.828,-16.594c3.802,-4.437 8.182,-6.656 13.141,-6.656c1.208,0 2.229,0.104 3.062,0.312l-4.437,4.532c-0.98,-0.334 -2.125,-0.5 -3.438,-0.5c-3.125,0 -5.464,1.099 -7.016,3.297c-1.552,2.197 -2.619,5.921 -3.203,11.171l-2.906,26.188c-0.229,2.021 -0.344,3.469 -0.344,4.344c0,1.875 0.323,2.812 0.969,2.812c0.771,0 1.677,-0.62 2.719,-1.859c1.041,-1.24 1.802,-2.61 2.281,-4.11Z" style="fill:none;"/><path d="M584.711,277.501c-4.688,0 -7.032,-3.104 -7.032,-9.312c0,-5 1.834,-9.818 5.5,-14.453c3.667,-4.636 7.469,-6.953 11.407,-6.953c4.75,0 7.125,3.104 7.125,9.312c0,5.021 -1.834,9.844 -5.5,14.469c-3.667,4.625 -7.5,6.937 -11.5,6.937Zm3.781,-3.5c2.396,0 4.401,-1.333 6.015,-4c1.615,-2.666 2.422,-5.989 2.422,-9.968c0,-6.5 -2.021,-9.75 -6.062,-9.75c-2.375,0 -4.37,1.338 -5.985,4.015c-1.614,2.677 -2.421,5.995 -2.421,9.953c0,6.5 2.01,9.75 6.031,9.75Z" style="fill:none;"/><path d="M615.429,259.939c4.625,-8.771 9.177,-13.156 13.657,-13.156c1.166,0 2.333,0.271 3.5,0.812l-4.407,4.813c-0.666,-0.375 -1.521,-0.563 -2.562,-0.563c-2.167,0 -4.453,1.755 -6.86,5.266c-2.406,3.51 -3.817,7.161 -4.234,10.953l-0.844,7.625l-4.625,1.562l0.094,-0.937l0.219,-2.031l0.25,-2.032l1.625,-14.875l0.187,-1.625c0.146,-1.229 0.219,-2.229 0.219,-3c0,-1.27 -0.354,-1.906 -1.062,-1.906c-1.667,0 -3.323,1.781 -4.969,5.344c-0.521,-0.396 -0.771,-0.802 -0.75,-1.219c0.062,-1.271 1.224,-2.953 3.484,-5.047c2.261,-2.093 4.047,-3.14 5.36,-3.14c1.77,0 2.656,1.166 2.656,3.5c0,0.562 -0.052,1.323 -0.156,2.281l-0.219,2.187l-0.281,2.625l-0.282,2.563Z" style="fill:none;"/><path d="M650.867,266.751c0.521,0.355 0.781,0.771 0.781,1.25c0,0.646 -0.667,1.75 -2,3.313c-3.562,4.125 -7.083,6.187 -10.562,6.187c-2.125,0 -3.875,-0.843 -5.25,-2.531c-1.375,-1.687 -2.063,-3.844 -2.063,-6.469c0,-4.75 1.797,-9.557 5.391,-14.421c3.593,-4.865 7.151,-7.297 10.672,-7.297c2.541,0 3.812,1.364 3.812,4.093c0,3.063 -1.484,6.053 -4.453,8.969c-2.969,2.917 -6.589,4.948 -10.859,6.094c0.416,5.021 2.395,7.531 5.937,7.531c3.5,0 6.365,-2.239 8.594,-6.719Zm-14.406,-4.625c0.604,0.209 1.156,0.313 1.656,0.313c2.583,0 4.844,-0.792 6.781,-2.375c1.938,-1.583 2.906,-3.438 2.906,-5.563c0,-2.437 -1.239,-3.656 -3.718,-3.656c-1.792,0 -3.412,1.068 -4.86,3.203c-1.448,2.136 -2.37,4.828 -2.765,8.078Z" style="fill:none;"/><path d="M665.867,259.939c4.625,-8.771 9.177,-13.156 13.656,-13.156c1.167,0 2.333,0.271 3.5,0.812l-4.406,4.813c-0.667,-0.375 -1.521,-0.563 -2.563,-0.563c-2.166,0 -4.453,1.755 -6.859,5.266c-2.406,3.51 -3.818,7.161 -4.234,10.953l-0.844,7.625l-4.625,1.562l0.094,-0.937l0.218,-2.031l0.25,-2.032l1.625,-14.875l0.188,-1.625c0.146,-1.229 0.219,-2.229 0.219,-3c0,-1.27 -0.355,-1.906 -1.063,-1.906c-1.667,0 -3.323,1.781 -4.969,5.344c-0.521,-0.396 -0.771,-0.802 -0.75,-1.219c0.063,-1.271 1.224,-2.953 3.485,-5.047c2.26,-2.093 4.047,-3.14 5.359,-3.14c1.771,0 2.656,1.166 2.656,3.5c0,0.562 -0.052,1.323 -0.156,2.281l-0.219,2.187l-0.281,2.625l-0.281,2.563Z" style="fill:none;"/></g><g transform="matrix(1.00534,0,0,3.164,-1.28923,-478.924)"><path d="M251.148,252.439l-5.094,4.875c-0.479,-1.625 -0.718,-3.25 -0.718,-4.875c0,-5.167 1.953,-9.453 5.859,-12.859c3.906,-3.407 8.818,-5.11 14.734,-5.11c0.979,0 1.844,0.042 2.594,0.125c0.5,0.042 0.833,0.063 1,0.063l0.406,0c-0.021,0.604 -0.031,1.041 -0.031,1.312c0,3.209 1.396,8.375 4.188,15.5l1.406,3.563c0.187,0.5 0.489,1.323 0.906,2.468l1.156,3.25c0.625,1.709 1.167,3.407 1.625,5.094l1.625,-2.687c1.792,-2.979 3.396,-5.688 4.813,-8.125l3.062,-5.282l2.375,-4.375l2.875,-5.25c0.271,-0.479 0.802,-1.458 1.594,-2.937l6.031,-3.781c-1.333,7.771 -2,14.01 -2,18.718l-0.406,10.219l-0.094,3.844c0,3.25 0.214,5.38 0.641,6.391c0.427,1.01 1.338,1.515 2.734,1.515c1.479,0 2.802,-0.208 3.969,-0.625c0.188,0.25 0.281,0.469 0.281,0.656c0,0.688 -0.708,1.198 -2.125,1.532l-1.656,0.406l-8.875,1.812c-0.104,-1.958 -0.156,-3.76 -0.156,-5.406c0,-10.625 0.469,-20.062 1.406,-28.312c-2.875,4.083 -5.042,7.396 -6.5,9.937l-1.875,3.219c-2.562,4.417 -4.635,8.677 -6.219,12.781l-4.5,4.688c-0.291,-3.938 -1.843,-9.469 -4.656,-16.594l-1.219,-3.156c-0.166,-0.375 -0.541,-1.292 -1.125,-2.75c-1.187,-2.875 -2.073,-5.625 -2.656,-8.25l-2.531,15.468c-0.75,4.646 -1.531,7.808 -2.344,9.485c-0.812,1.677 -2.25,3.057 -4.312,4.14l7.875,0.594l-4,3.656l-13.344,-0.687l4.031,-3.875l3.531,0.312c1.375,-1.02 2.354,-2.27 2.938,-3.75c0.583,-1.479 1.26,-4.468 2.031,-8.968l3.75,-21.969l-1.469,0c-8.666,0 -13,2.865 -13,8.594c0,1.791 0.49,3.593 1.469,5.406Z" style="fill:#971400;fill-rule:nonzero;"/><path d="M330.898,264.408c-2.375,3.646 -5.052,6.739 -8.031,9.281c-2.979,2.542 -5.406,3.812 -7.281,3.812c-2.063,0 -3.094,-1.375 -3.094,-4.125c0,-1.02 0.135,-2.697 0.406,-5.031l1.125,-10.25c0.021,-0.146 0.073,-0.75 0.156,-1.812l0.188,-2.032c0.062,-0.604 0.094,-1.145 0.094,-1.625c0,-1.208 -0.344,-1.812 -1.032,-1.812c-1.583,0 -3.291,1.781 -5.125,5.344c-0.396,-0.313 -0.593,-0.646 -0.593,-1c0,-1.292 1.151,-3.011 3.453,-5.157c2.302,-2.145 4.13,-3.218 5.484,-3.218c1.729,0 2.594,1.187 2.594,3.562c0,0.563 -0.042,1.219 -0.125,1.969l-0.281,2.406l-0.282,2.625l-1,8.938c-0.166,1.521 -0.25,3.062 -0.25,4.625c0,1.437 0.532,2.156 1.594,2.156c2.354,0 5.016,-1.938 7.984,-5.813c2.969,-3.875 4.724,-7.708 5.266,-11.5l1.063,-7.406l5.062,-1.719c-0.583,2.417 -1.021,4.573 -1.312,6.469l-1.875,13.063c-0.105,0.791 -0.188,1.458 -0.25,2l-0.219,1.718c-0.125,1.063 -0.188,1.813 -0.188,2.25c0,0.896 0.25,1.344 0.75,1.344c1.771,0 3.573,-1.958 5.407,-5.875c0.562,0.334 0.843,0.667 0.843,1c0,0.729 -0.906,2.198 -2.718,4.406c-2.438,3 -4.698,4.5 -6.782,4.5c-1.521,0 -2.281,-1.02 -2.281,-3.062c0,-0.646 0.073,-1.51 0.219,-2.594l0.344,-2.5c0.187,-1.354 0.312,-2.271 0.375,-2.75l0.312,-2.187Z" style="fill:#971400;fill-rule:nonzero;"/><path d="M342.179,275.814l4.313,-3.531c1.625,1.729 3.666,2.593 6.125,2.593c3,0 4.5,-1.447 4.5,-4.343c0,-1.604 -1.375,-3.844 -4.125,-6.719l-1.781,-1.844c-2.605,-2.729 -3.907,-4.937 -3.907,-6.625c0,-2.416 1.047,-4.448 3.141,-6.094c2.094,-1.645 4.672,-2.468 7.734,-2.468c1.667,0 3.49,0.312 5.469,0.937l-3.75,3.469c-1.583,-1.188 -3.344,-1.781 -5.281,-1.781c-2.271,0 -3.406,0.948 -3.406,2.843c0,1.355 1.26,3.344 3.781,5.969l1.937,2.063c2.875,3 4.313,5.416 4.313,7.25c0,2.625 -1.261,4.942 -3.781,6.953c-2.521,2.01 -5.428,3.015 -8.719,3.015c-2.334,0 -4.521,-0.562 -6.563,-1.687Z" style="fill:#971400;fill-rule:nonzero;"/><path d="M388.679,247.595l-3.562,4.281c-1.667,-0.687 -3.261,-1.031 -4.781,-1.031c-2.73,0 -4.881,1.156 -6.454,3.469c-1.573,2.312 -2.359,5.479 -2.359,9.5c0,2.833 0.568,5.115 1.703,6.844c1.136,1.729 2.62,2.593 4.453,2.593c3.104,0 5.542,-2.031 7.313,-6.093c0.458,0.5 0.687,0.968 0.687,1.406c0,1.729 -1.349,3.651 -4.047,5.766c-2.698,2.114 -5.171,3.171 -7.421,3.171c-2.167,0 -3.943,-0.869 -5.329,-2.609c-1.385,-1.74 -2.078,-3.995 -2.078,-6.766c0,-5.395 1.834,-10.302 5.5,-14.718c3.667,-4.417 7.74,-6.625 12.219,-6.625c1.625,0 3.01,0.271 4.156,0.812Z" style="fill:#971400;fill-rule:nonzero;"/><path d="M404.086,267.501c0.604,0.292 0.906,0.667 0.906,1.125c0,1.5 -1.12,3.355 -3.36,5.563c-2.239,2.208 -4.119,3.312 -5.64,3.312c-1.729,0 -2.594,-1.25 -2.594,-3.75c0,-1.52 0.094,-3.072 0.281,-4.656l0.344,-2.781l2.406,-21.75c0.75,-6.625 3.026,-12.156 6.828,-16.594c3.802,-4.437 8.183,-6.656 13.141,-6.656c1.208,0 2.229,0.104 3.063,0.312l-4.438,4.532c-0.979,-0.334 -2.125,-0.5 -3.437,-0.5c-3.125,0 -5.464,1.099 -7.016,3.297c-1.552,2.197 -2.62,5.921 -3.203,11.171l-2.906,26.188c-0.23,2.021 -0.344,3.469 -0.344,4.344c0,1.875 0.323,2.812 0.969,2.812c0.77,0 1.677,-0.62 2.718,-1.859c1.042,-1.24 1.802,-2.61 2.282,-4.11Z" style="fill:#971400;fill-rule:nonzero;"/><path d="M427.461,266.751c0.52,0.355 0.781,0.771 0.781,1.25c0,0.646 -0.667,1.75 -2,3.313c-3.563,4.125 -7.084,6.187 -10.563,6.187c-2.125,0 -3.875,-0.843 -5.25,-2.531c-1.375,-1.687 -2.062,-3.844 -2.062,-6.469c0,-4.75 1.797,-9.557 5.39,-14.421c3.594,-4.865 7.151,-7.297 10.672,-7.297c2.542,0 3.813,1.364 3.813,4.093c0,3.063 -1.485,6.053 -4.453,8.969c-2.969,2.917 -6.589,4.948 -10.86,6.094c0.417,5.021 2.396,7.531 5.938,7.531c3.5,0 6.364,-2.239 8.594,-6.719Zm-14.407,-4.625c0.604,0.209 1.157,0.313 1.657,0.313c2.583,0 4.843,-0.792 6.781,-2.375c1.937,-1.583 2.906,-3.438 2.906,-5.563c0,-2.437 -1.24,-3.656 -3.719,-3.656c-1.791,0 -3.411,1.068 -4.859,3.203c-1.448,2.136 -2.37,4.828 -2.766,8.078Z" style="fill:#971400;fill-rule:nonzero;"/><path d="M456.492,252.626l-5.063,4.875c-0.5,-1.666 -0.75,-3.25 -0.75,-4.75c0,-5.833 2.427,-10.552 7.282,-14.156c3.541,-2.625 8.583,-3.937 15.125,-3.937l10.312,0c3.875,0 7.833,-0.136 11.875,-0.407l-2.531,6.407l-0.5,1.156c-0.521,1.229 -1.188,1.844 -2,1.844c-0.125,0 -0.271,-0.011 -0.438,-0.032c0.229,-1.041 0.344,-1.875 0.344,-2.5c0,-1.375 -0.724,-2.234 -2.172,-2.578c-1.448,-0.343 -5.057,-0.515 -10.828,-0.515l-3.031,0l-1.656,15.125l6.093,0c3.521,0 6.646,-0.167 9.375,-0.5c-2.375,2.854 -4.771,4.281 -7.187,4.281c-1.354,0 -3.271,-0.104 -5.75,-0.313c-1.021,-0.062 -1.74,-0.093 -2.156,-0.093l-0.75,0l-0.313,2.718c-0.437,3.959 -1.13,6.771 -2.078,8.438c-0.948,1.667 -2.807,3.344 -5.578,5.031l6.844,0.531l2.781,0.25c1.958,0.146 4.302,0.219 7.031,0.219c4.604,0 8.438,-1.489 11.5,-4.469c0.354,0.396 0.531,0.771 0.531,1.125c0,0.584 -1.114,1.782 -3.343,3.594c-3.25,2.646 -6.803,3.969 -10.657,3.969c-3.562,0 -8.687,-0.302 -15.375,-0.906l-11.656,-1.063c-0.396,-0.021 -1.802,-0.104 -4.219,-0.25l5.719,-4.312c2.063,0.354 4.542,0.666 7.438,0.937c2.041,-0.791 3.416,-1.916 4.125,-3.375c0.708,-1.458 1.302,-4.396 1.781,-8.812l2.469,-22.125l-1.094,0c-4.042,0 -7.209,0.828 -9.5,2.484c-2.292,1.656 -3.438,3.943 -3.438,6.859c0,1.688 0.479,3.438 1.438,5.25Z" style="fill:#971400;fill-rule:nonzero;"/><path d="M509.711,263.001l-0.969,-2.562c-0.709,-1.813 -1.094,-2.792 -1.156,-2.938l-1.5,-3.343c-1.063,-2.396 -2.084,-3.594 -3.063,-3.594c-1.479,0 -2.646,1.385 -3.5,4.156c-0.625,-0.229 -0.937,-0.562 -0.937,-1c0,-1.291 0.75,-2.771 2.25,-4.437c1.5,-1.667 2.843,-2.5 4.031,-2.5c2.333,0 4.75,3.354 7.25,10.062l0.625,1.656l0.719,-1.156c4.437,-7.041 8.177,-10.562 11.218,-10.562c0.792,0 1.719,0.229 2.782,0.687l-3.782,3.969c-0.5,-0.146 -0.854,-0.219 -1.062,-0.219c-2.292,0 -5.021,2.636 -8.188,7.906l-0.906,1.5l0.719,1.938c2.75,7.562 5.01,11.344 6.781,11.344c1.625,0 2.865,-1.167 3.719,-3.5c0.583,0.375 0.875,0.76 0.875,1.156c0,1.042 -0.834,2.292 -2.5,3.75c-1.667,1.458 -3.104,2.187 -4.313,2.187c-2.416,0 -4.885,-3.406 -7.406,-10.218l-0.875,-2.313l-0.906,1.594c-4.25,7.292 -8.313,10.937 -12.188,10.937c-1.458,0 -2.698,-0.364 -3.718,-1.093l3.625,-3.563c0.625,0.625 1.354,0.938 2.187,0.938c2.354,0 5,-2.375 7.938,-7.125l1.625,-2.625l0.625,-1.032Z" style="fill:#971400;fill-rule:nonzero;"/><path d="M535.804,277.064l-0.25,2.469c-0.646,6.458 -2.979,11.979 -7,16.562c-4.021,4.584 -8.541,6.875 -13.562,6.875c-1.042,0 -2.042,-0.125 -3,-0.375l4.531,-4.5c1.188,0.354 2.313,0.531 3.375,0.531c6.208,0 9.792,-4.833 10.75,-14.5l3.25,-32.406c-0.979,0.729 -2.031,1.573 -3.156,2.531c-1.375,1.167 -2.584,2.084 -3.625,2.75l0.25,-2.5c3.521,-2.083 7.385,-5.062 11.594,-8.937l-1.438,14.469c2.208,-3.875 4.688,-7.052 7.438,-9.532c2.75,-2.479 5.166,-3.718 7.25,-3.718c3,0 4.5,2.562 4.5,7.687c0,6.104 -1.969,11.401 -5.907,15.891c-3.937,4.489 -8.583,6.734 -13.937,6.734l-1.063,-0.031Zm0.469,-4.656c1.688,1.062 3.594,1.593 5.719,1.593c2.854,0 5.172,-1.666 6.953,-5c1.781,-3.333 2.672,-7.656 2.672,-12.968c0,-3.104 -0.844,-4.657 -2.531,-4.657c-1.855,0 -4.053,1.417 -6.594,4.25c-3.396,3.771 -5.354,8.24 -5.875,13.407l-0.344,3.375Z" style="fill:#971400;fill-rule:nonzero;"/><path d="M573.398,267.501c0.604,0.292 0.906,0.667 0.906,1.125c0,1.5 -1.12,3.355 -3.359,5.563c-2.24,2.208 -4.12,3.312 -5.641,3.312c-1.729,0 -2.593,-1.25 -2.593,-3.75c0,-1.52 0.093,-3.072 0.281,-4.656l0.344,-2.781l2.406,-21.75c0.75,-6.625 3.026,-12.156 6.828,-16.594c3.802,-4.437 8.182,-6.656 13.141,-6.656c1.208,0 2.229,0.104 3.062,0.312l-4.437,4.532c-0.98,-0.334 -2.125,-0.5 -3.438,-0.5c-3.125,0 -5.464,1.099 -7.016,3.297c-1.552,2.197 -2.619,5.921 -3.203,11.171l-2.906,26.188c-0.229,2.021 -0.344,3.469 -0.344,4.344c0,1.875 0.323,2.812 0.969,2.812c0.771,0 1.677,-0.62 2.719,-1.859c1.041,-1.24 1.802,-2.61 2.281,-4.11Z" style="fill:#971400;fill-rule:nonzero;"/><path d="M584.711,277.501c-4.688,0 -7.032,-3.104 -7.032,-9.312c0,-5 1.834,-9.818 5.5,-14.453c3.667,-4.636 7.469,-6.953 11.407,-6.953c4.75,0 7.125,3.104 7.125,9.312c0,5.021 -1.834,9.844 -5.5,14.469c-3.667,4.625 -7.5,6.937 -11.5,6.937Zm3.781,-3.5c2.396,0 4.401,-1.333 6.015,-4c1.615,-2.666 2.422,-5.989 2.422,-9.968c0,-6.5 -2.021,-9.75 -6.062,-9.75c-2.375,0 -4.37,1.338 -5.985,4.015c-1.614,2.677 -2.421,5.995 -2.421,9.953c0,6.5 2.01,9.75 6.031,9.75Z" style="fill:#971400;fill-rule:nonzero;"/><path d="M615.429,259.939c4.625,-8.771 9.177,-13.156 13.657,-13.156c1.166,0 2.333,0.271 3.5,0.812l-4.407,4.813c-0.666,-0.375 -1.521,-0.563 -2.562,-0.563c-2.167,0 -4.453,1.755 -6.86,5.266c-2.406,3.51 -3.817,7.161 -4.234,10.953l-0.844,7.625l-4.625,1.562l0.094,-0.937l0.219,-2.031l0.25,-2.032l1.625,-14.875l0.187,-1.625c0.146,-1.229 0.219,-2.229 0.219,-3c0,-1.27 -0.354,-1.906 -1.062,-1.906c-1.667,0 -3.323,1.781 -4.969,5.344c-0.521,-0.396 -0.771,-0.802 -0.75,-1.219c0.062,-1.271 1.224,-2.953 3.484,-5.047c2.261,-2.093 4.047,-3.14 5.36,-3.14c1.77,0 2.656,1.166 2.656,3.5c0,0.562 -0.052,1.323 -0.156,2.281l-0.219,2.187l-0.281,2.625l-0.282,2.563Z" style="fill:#971400;fill-rule:nonzero;"/><path d="M650.867,266.751c0.521,0.355 0.781,0.771 0.781,1.25c0,0.646 -0.667,1.75 -2,3.313c-3.562,4.125 -7.083,6.187 -10.562,6.187c-2.125,0 -3.875,-0.843 -5.25,-2.531c-1.375,-1.687 -2.063,-3.844 -2.063,-6.469c0,-4.75 1.797,-9.557 5.391,-14.421c3.593,-4.865 7.151,-7.297 10.672,-7.297c2.541,0 3.812,1.364 3.812,4.093c0,3.063 -1.484,6.053 -4.453,8.969c-2.969,2.917 -6.589,4.948 -10.859,6.094c0.416,5.021 2.395,7.531 5.937,7.531c3.5,0 6.365,-2.239 8.594,-6.719Zm-14.406,-4.625c0.604,0.209 1.156,0.313 1.656,0.313c2.583,0 4.844,-0.792 6.781,-2.375c1.938,-1.583 2.906,-3.438 2.906,-5.563c0,-2.437 -1.239,-3.656 -3.718,-3.656c-1.792,0 -3.412,1.068 -4.86,3.203c-1.448,2.136 -2.37,4.828 -2.765,8.078Z" style="fill:#971400;fill-rule:nonzero;"/><path d="M665.867,259.939c4.625,-8.771 9.177,-13.156 13.656,-13.156c1.167,0 2.333,0.271 3.5,0.812l-4.406,4.813c-0.667,-0.375 -1.521,-0.563 -2.563,-0.563c-2.166,0 -4.453,1.755 -6.859,5.266c-2.406,3.51 -3.818,7.161 -4.234,10.953l-0.844,7.625l-4.625,1.562l0.094,-0.937l0.218,-2.031l0.25,-2.032l1.625,-14.875l0.188,-1.625c0.146,-1.229 0.219,-2.229 0.219,-3c0,-1.27 -0.355,-1.906 -1.063,-1.906c-1.667,0 -3.323,1.781 -4.969,5.344c-0.521,-0.396 -0.771,-0.802 -0.75,-1.219c0.063,-1.271 1.224,-2.953 3.485,-5.047c2.26,-2.093 4.047,-3.14 5.359,-3.14c1.771,0 2.656,1.166 2.656,3.5c0,0.562 -0.052,1.323 -0.156,2.281l-0.219,2.187l-0.281,2.625l-0.281,2.563Z" style="fill:#971400;fill-rule:nonzero;"/></g></g></svg>
