<?xml version="1.0" encoding="UTF-8" standalone="no"?><!DOCTYPE svg PUBLIC "-//W3C//DTD SVG 1.1//EN" "http://www.w3.org/Graphics/SVG/1.1/DTD/svg11.dtd"><svg width="100%" height="100%" viewBox="0 0 200 40" version="1.1" xmlns="http://www.w3.org/2000/svg" xmlns:xlink="http://www.w3.org/1999/xlink" xml:space="preserve" style="fill-rule:evenodd;clip-rule:evenodd;stroke-linejoin:round;stroke-miterlimit:1.41421;"><g transform="matrix(0.431638,0,0,0.116509,-102.798,-24.944)"><g transform="matrix(0.964111,0,0,3.5718,8.66913,-569.175)"><path d="M292.554,278.47c0,0.688 -0.343,1.427 -1.031,2.219c-0.562,0.604 -1.01,0.906 -1.344,0.906c-0.041,0 -0.187,-0.041 -0.437,-0.125l-0.563,0.375c-0.458,0.354 -0.823,0.531 -1.093,0.531l-0.5,-0.062l0.062,-0.781l0.25,-1.782l-0.062,-1.281l0.562,-3.781l-0.312,-1.656l-0.188,-3.657l-0.187,-1.281l0.062,-3.125l-0.125,-2.062l0.125,-1.219l-0.469,-4.031l0.407,-0.813l-0.532,-0.219l0,-0.75l-0.437,-1.875l0.062,-1.781l-0.312,-0.75l-0.781,0.188l-0.25,0.375l0.125,0.906l-1.657,2.5l-0.062,0.687l-0.531,0.5l-0.313,0.844l-0.437,0.656l-0.188,1.125l-0.844,1.875l-0.125,0.688c-0.687,0.562 -1.156,1.073 -1.406,1.531l-1.031,2.313l-2.813,4.812l-2,3.719l-0.5,0.75l-1.843,1.719c-0.23,0.187 -0.344,0.364 -0.344,0.531c0,0 0.01,0.01 0.031,0.031c0.021,0.021 0.042,0.052 0.063,0.094c0.125,0.5 0.187,0.823 0.187,0.969l-0.062,0.312c-0.396,0.063 -0.683,0.182 -0.86,0.36c-0.177,0.177 -0.338,0.463 -0.484,0.859c-0.271,0.729 -0.495,1.234 -0.672,1.516c-0.177,0.281 -0.406,0.494 -0.688,0.64c-0.281,0.146 -0.703,0.281 -1.265,0.406c-0.542,-0.604 -0.854,-1 -0.938,-1.187c-0.083,-0.188 -0.156,-0.5 -0.218,-0.938l-0.25,-0.25c0,-0.437 -0.261,-0.781 -0.782,-1.031l-0.25,0.25l-0.468,-0.812l-0.75,-2.063l-0.657,-0.875l-0.687,-1.937l-0.781,-1.157c0.27,-0.5 0.406,-0.968 0.406,-1.406c0,-0.333 -0.073,-0.562 -0.219,-0.687l-1,-0.844l-3.906,-7.75l-0.969,-2.031l0.063,0l0.187,-0.844l-0.5,-1.031l-0.187,-0.938l-0.657,0.313l-0.375,-0.657c-0.646,-1.104 -1.052,-1.864 -1.218,-2.281c-0.167,-0.416 -0.375,-1.041 -0.625,-1.875c-0.542,0 -0.886,-0.166 -1.032,-0.5l-0.468,1.031l-0.5,0l-0.125,0.25c0.291,0.438 0.437,0.865 0.437,1.282l-0.187,2.375c-0.021,0.375 -0.047,0.672 -0.079,0.89c-0.031,0.219 -0.083,0.386 -0.156,0.5c-0.073,0.115 -0.224,0.328 -0.453,0.641l0.75,1.531l-0.125,0.781l-0.062,2.219l-0.188,1.344l0.188,6.75l-0.375,1c0.291,0.604 0.437,1.208 0.437,1.812l0,0.625c-0.542,0.063 -0.896,0.198 -1.062,0.407c-0.167,0.208 -0.282,0.625 -0.344,1.25l1.156,0.406l0.063,0.687l0,0.719c0,0.625 -0.084,1.011 -0.25,1.156l-2.375,1.594l-1.157,0.938l-0.437,0.093l-0.656,-0.093l-0.063,-0.375l-0.125,-0.563l0.594,-1.469l0,-3.031l0.5,-3.75l-0.063,-2l-0.062,-0.687l0.125,-0.969l-0.063,-0.781c0.313,-0.229 0.5,-0.573 0.563,-1.032l0.344,-0.187c-0.063,-0.396 -0.136,-0.646 -0.219,-0.75l-0.375,-0.781c0,-0.104 -0.005,-0.188 -0.016,-0.25c-0.01,-0.063 -0.026,-0.125 -0.047,-0.188c0,-0.312 0.177,-0.656 0.532,-1.031c-0.355,-0.604 -0.532,-1.135 -0.532,-1.594l0,-0.187l0.188,-3.844l-0.188,-3.344l0.063,-0.687l1.031,0.312c0.208,-0.271 0.313,-0.5 0.313,-0.687l0,-0.219l-1.407,-0.125l-0.125,-1.531l1.032,-0.063l0.125,-0.625c0,-0.375 -0.303,-0.677 -0.907,-0.906l-0.312,-1.719l0.312,0l0.063,-0.406l-0.5,-3.063l0.062,-1.468l-0.562,-1.219c0,-0.417 0.375,-0.802 1.125,-1.156l0.594,0.125l0.375,-0.813l0.656,-0.281l1.406,-1.063c0.313,-0.229 0.583,-0.343 0.813,-0.343l0.656,0.156c0.021,0.396 0.088,0.682 0.203,0.859c0.114,0.177 0.359,0.36 0.734,0.547c0.042,0.271 0.104,0.516 0.188,0.735c0.083,0.218 0.224,0.484 0.422,0.796c0.198,0.313 0.474,0.761 0.828,1.344l-0.281,0.688l-0.313,1.031l0.125,0.375l0.969,0.469l0.75,2.343l-0.625,0.969l0.375,0.188l0.25,0.656c0.625,0.042 1.146,0.427 1.562,1.156l1,2.219l1.157,3.281c-0.542,0.479 -0.813,0.865 -0.813,1.156l0.313,0.75l0.687,0.063c0.354,0.042 0.583,0.115 0.688,0.219c0.104,0.104 0.218,0.333 0.343,0.687l-0.562,0.906c0.229,0.292 0.437,0.438 0.625,0.438l0.375,0l0.406,0.562c0.813,1.521 1.219,2.438 1.219,2.75l-0.25,0.969l-0.219,0.719l0.594,0.312l0.625,0.125l0.719,0.969l1.218,1.281l0.313,1.219l0.687,0.625l0.844,2.063l0.719,0.75l1,2l0.531,0.437l0.75,-0.719l2.25,-2.531l1.156,-2l1.032,-1.906l1.531,-2.625l2.875,-6.719l1.156,-1.75l0.313,-1.969l1.593,-3.593l0.25,-0.969l0.407,-0.125l0.375,-0.313l0,-0.25l0.5,-0.25l-0.063,-0.531l-0.562,-0.25c0.166,-0.875 0.375,-1.385 0.625,-1.531l0.593,-0.25l0.563,-0.469c-0.25,-0.437 -0.563,-0.906 -0.938,-1.406c0.334,-0.458 0.5,-0.833 0.5,-1.125c0,-0.146 -0.021,-0.26 -0.062,-0.344l0.562,-0.625l0.969,-1.469l1.844,-1.531c0.791,-0.687 1.271,-1.031 1.437,-1.031l0.75,0.187l-0.187,2.125l0.25,0.25l0.594,-0.062c0.583,0 0.875,0.167 0.875,0.5l-0.063,1.219l-0.25,1.031l-0.375,-0.125l-0.125,0.562l0.438,1.157l0.125,6.656l0,0.312c0,0.334 -0.084,0.615 -0.25,0.844l-0.844,1.156c-0.084,0.084 -0.125,0.334 -0.125,0.75c0.166,0.25 0.333,0.412 0.5,0.485c0.166,0.073 0.427,0.109 0.781,0.109l0.063,1.156l-0.125,5.157l0.5,2.25l0.281,3.906l0.25,2.625c0,0.354 -0.084,0.781 -0.25,1.281c0.271,0.334 0.437,0.615 0.5,0.844c0.062,0.229 0.125,0.823 0.187,1.781l0.125,2.438l0,0.062Z" style="fill:none;"/><path d="M329.148,279.501c-0.146,0.542 -0.458,0.917 -0.937,1.125l-3.594,1.563c-0.646,-0.375 -0.969,-0.979 -0.969,-1.813l0.063,-1.781l-0.563,-0.125l-2.062,0.969l-2.875,1.406l-1.157,0.563l-3.781,0.718l-1.219,0.375l-0.312,0c-0.209,0 -0.354,-0.02 -0.438,-0.062l-1.156,-0.469l-1.406,0.406l-1.281,-1.093l-2.5,0.375c-0.25,-0.104 -0.615,-0.292 -1.094,-0.563c-0.479,-0.271 -0.886,-0.573 -1.219,-0.906c-0.937,-1.042 -1.406,-2.104 -1.406,-3.188c0,-0.333 0.219,-0.677 0.656,-1.031l-1.031,-0.375l-0.063,-1.219l-0.062,-1.687c0,-0.5 0.083,-0.917 0.25,-1.25l0.594,-1.094l-0.594,-1.75l0.062,-1.844l-0.062,-2.125c0.021,-0.125 0.239,-0.843 0.656,-2.156l0,-0.469l-0.594,0.282l-0.375,-0.407l0,-0.625l0.063,-3.781c0,-0.583 -0.063,-1.031 -0.188,-1.344l-0.25,-0.375c0,-0.041 -0.005,-0.078 -0.015,-0.109c-0.011,-0.031 -0.026,-0.057 -0.047,-0.078c0,-0.354 0.25,-0.677 0.75,-0.969l0.375,-0.187l2.312,-0.969c0.75,-0.292 1.261,-0.438 1.532,-0.438c0.312,0 0.593,0.292 0.843,0.875l0.313,0.719c-0.417,1.167 -0.625,2.25 -0.625,3.25l0.187,1.813l-0.062,0.75l-0.531,1.531c-0.021,0.562 -0.042,0.953 -0.063,1.172c-0.021,0.219 -0.042,0.411 -0.062,0.578c0,0.312 0.062,0.625 0.187,0.937l0.531,0.907l-0.718,2.375l0.25,0.75l-0.25,1.343l-0.25,1.813c0,0.167 0.02,0.292 0.062,0.375l0.438,0.781l0.218,3.313c0.125,0.604 0.391,1.031 0.797,1.281c0.406,0.25 1.245,0.573 2.516,0.969l2.312,0.625c0.417,0.083 1.115,0.125 2.094,0.125c0.708,0 1.229,-0.063 1.563,-0.188l1.781,-0.687l1.906,0.5c0.333,-0.104 0.552,-0.448 0.656,-1.032l1.032,-0.562l1.406,-1.938l1.156,-0.937c0.313,-0.417 0.5,-1 0.563,-1.75l0.25,-3.188l0.25,-0.687l-0.688,-0.719l0.063,-1.156l0.125,-4.938l-0.188,-1.656l-0.312,-1.906c0,-0.313 0.187,-0.656 0.562,-1.031l-0.125,-0.563l-0.5,-0.062l-0.156,-0.969l0,-0.25l0.281,-0.969l0,-0.656l0.5,0.156l3.469,-1.219c0.021,0 0.041,-0.01 0.062,-0.031c0.021,-0.021 0.042,-0.031 0.063,-0.031c0.229,0 0.422,0.193 0.578,0.578c0.156,0.385 0.234,0.891 0.234,1.516l-0.25,6.343l-0.437,4.875l-0.844,-0.343c-0.25,0.583 -0.375,0.989 -0.375,1.218l0.188,0.657c0.25,-0.084 0.437,-0.125 0.562,-0.125c0.188,0 0.344,0.052 0.469,0.156c0.125,0.104 0.187,0.24 0.187,0.406l-0.312,5.875l0.625,1.094l0.312,3.031c0.104,0.125 0.245,0.287 0.422,0.485c0.177,0.197 0.401,0.505 0.672,0.921Z" style="fill:none;"/><path d="M360.836,272.251c0,0.834 -0.152,1.532 -0.454,2.094c-0.302,0.563 -0.661,0.844 -1.078,0.844c-0.083,0 -0.291,-0.042 -0.625,-0.125l-0.406,0.719l-0.562,1.531l-1.407,1.531l-0.656,0.906l-0.875,0.063l-2.906,1.469l-1.344,0.187l-2.281,0.781l-1.813,-0.343l-2.75,0.656c-0.187,0 -1.208,-0.198 -3.062,-0.594c-0.875,-0.187 -1.427,-0.375 -1.656,-0.562l-1.219,-0.782l-1.531,-0.875c-0.646,-0.416 -1.172,-0.953 -1.579,-1.609c-0.406,-0.656 -0.609,-1.255 -0.609,-1.797c0,-0.333 0.354,-0.786 1.063,-1.359c0.708,-0.573 1.489,-1.057 2.343,-1.453l0.688,0.906l0.594,2.75l1.125,0.687l1.812,1.407l0.875,0.281l1.688,0.812l1.156,0l0.75,0.125l1.531,-0.437l2.563,-0.25l1.281,-0.656l1.219,-0.438c0.77,-0.458 1.52,-1.401 2.25,-2.828c0.729,-1.427 1.093,-2.724 1.093,-3.891c0,-0.437 -0.135,-0.822 -0.406,-1.156l-1.219,-1.719l-0.312,-0.781l-0.75,-0.375l-0.406,0.5l-0.688,-0.062l-1.687,-0.25l-1.969,0l-0.5,0l-0.844,-1.219c-0.437,0.5 -0.792,0.818 -1.062,0.953c-0.271,0.135 -0.792,0.266 -1.563,0.391l-1.094,0.187l-0.625,-0.312l-0.781,0l-0.812,-0.625l-1.032,0.187l-0.968,-0.469l-1.344,-0.437c-0.521,-0.167 -0.969,-0.573 -1.344,-1.219c-0.375,-0.646 -0.562,-1.302 -0.562,-1.969c0,-1.02 0.354,-2.104 1.062,-3.25c0.708,-1.145 1.698,-2.197 2.969,-3.156c0.979,-0.75 2.146,-1.489 3.5,-2.219c1.354,-0.729 2.63,-1.291 3.828,-1.687c1.198,-0.396 2.182,-0.594 2.953,-0.594c0.229,0 1.021,0.219 2.375,0.656l0.906,0.313c1.417,-0.25 2.334,-0.375 2.75,-0.375c0.584,0 1.047,0.094 1.391,0.281c0.344,0.188 0.516,0.417 0.516,0.688c0,0.271 -0.297,0.651 -0.891,1.14c-0.594,0.49 -1.339,0.943 -2.234,1.36l-0.969,0.437l-0.813,-0.062l-1.562,-0.063l-1.188,-0.312l-0.531,-1.094l-0.437,0l-0.532,0.562l-0.937,0l-0.906,0l-1.282,0.188l-0.968,-0.25l-0.5,0.375l-2,1.156c-1.396,1.209 -2.094,2.302 -2.094,3.281c0,0.688 0.208,1.136 0.625,1.344l2.062,0.938l0.625,0.343l0,0.75l0.969,0.532l1.031,-0.969l0.5,0.062l5.25,-0.375l2.5,0.563l1.157,-0.188l1.468,0.969l2.188,1.219c0.437,0.292 0.823,0.948 1.156,1.969l0.25,0.843c0.375,1.313 0.563,2.396 0.563,3.25Z" style="fill:none;"/><path d="M393.867,275.47c0,0.125 -0.021,0.229 -0.063,0.313l-0.375,1.593c0,0.021 0.005,0.053 0.016,0.094c0.01,0.042 0.026,0.094 0.047,0.156l-1.344,1.657l-0.781,0.218l-1.219,0.813l-0.5,0.125l-1.406,0.719l-0.125,0l-2,-0.063c-0.354,0 -0.844,0.146 -1.469,0.438l-1.594,0.906l-2.5,0.187l-2.5,-0.187l-0.562,-0.469l-1.844,-0.25l-2.062,-0.562l-2.875,-0.657l-1.344,-1.156l-1.219,-1.25l0.375,-1.094c-0.396,0.167 -0.76,0.25 -1.094,0.25l-0.25,0l-0.562,-0.656l-0.781,-1.344l-0.438,-0.562l-0.187,-1.781l0.25,-0.907l-0.25,-0.5l-0.657,-0.718l0.407,-1.594l-0.157,-2.875l1.094,-1.875l1.344,-2.75l1.75,-1.469l3.125,-3l0.906,-0.656l1.219,-0.875l0.562,-0.188l1.282,-0.968l4.031,-1.282l0.969,-0.25c0.041,0 0.078,0.006 0.109,0.016c0.031,0.01 0.057,0.026 0.078,0.047l1.594,0.687l1.594,-0.437l3,0.5l2.562,-0.375c0.313,0.083 0.656,0.208 1.031,0.375c-0.166,0.667 -0.349,1.109 -0.547,1.328c-0.198,0.219 -0.609,0.464 -1.234,0.734l-0.062,0.688l-1.282,0.781l-0.906,0.438l-0.125,0l-0.844,-0.125l-1.062,0.125l-4.813,-0.75c-0.166,-0.042 -0.406,-0.063 -0.718,-0.063c-0.292,0 -0.5,0.021 -0.625,0.063l-2.625,0.5l-0.844,0c-0.709,0.125 -1.406,0.677 -2.094,1.656l-1.344,0.469l-0.593,1.281l-1.063,0.187c0.083,0.167 0.125,0.313 0.125,0.438l-1.281,2.5l-0.125,1.094l0.062,1.906c0.021,0.917 0.094,1.677 0.219,2.281c0.125,0.604 0.344,1.209 0.656,1.813l-0.25,0.718c-0.208,0.355 -0.312,0.584 -0.312,0.688c0,0.125 0.062,0.281 0.187,0.469c0.625,0.166 0.927,0.25 0.907,0.25c0.187,0.146 0.5,0.531 0.937,1.156l0.844,1.156c0.041,0.084 0.083,0.177 0.125,0.281c0.041,0.105 0.104,0.24 0.187,0.407l0.719,0l0.375,0.531l2.063,1.469l0.875,0.75l1.031,0.312l0.906,0.344l1.406,0.062l3.594,0.375l0.125,0.063c0.354,0 1.094,-0.302 2.219,-0.906l0.594,0.218l2.156,-1.5c0.562,-0.083 1.114,-0.312 1.656,-0.687c0.542,-0.375 1.271,-1.042 2.188,-2c0.27,-0.333 0.531,-0.5 0.781,-0.5c0.166,0 0.312,0.062 0.437,0.187c0.125,0.125 0.188,0.282 0.188,0.469Z" style="fill:none;"/><path d="M404.961,275.845l-0.125,1.656l0.062,1.282c0,0.312 -0.156,0.573 -0.469,0.781l0.188,0.75l-0.688,0.125l-2.062,1.281l-0.813,0.125l-0.968,0.594c-0.084,0 -0.157,0.005 -0.219,0.016c-0.063,0.01 -0.136,0.026 -0.219,0.046c-0.396,0 -0.594,-0.125 -0.594,-0.375l0,-0.781l-0.187,-1.406l0.437,-3.406l0.157,-4.344c0.062,-1.063 0.291,-1.938 0.687,-2.625l-0.375,-0.969c-0.354,-0.646 -0.531,-1.021 -0.531,-1.125c0,-0.333 0.26,-0.937 0.781,-1.812c0.208,-0.313 0.313,-0.657 0.313,-1.032c0,-0.291 -0.313,-0.562 -0.938,-0.812l0.125,-0.531l-0.281,-0.125l0,-0.438l0,-0.5l0.531,-2.187l0,-5.375l0.625,-2.5c0,-0.334 -0.25,-0.698 -0.75,-1.094l0,-1.469l-0.125,-5.625c0,-0.416 0.271,-1.125 0.813,-2.125l0.468,-0.812c-0.771,-0.354 -1.156,-0.677 -1.156,-0.969c0,0.083 0.063,-0.323 0.188,-1.219l-0.657,-0.562l0,-1.219l-0.125,-1.469l0,-0.281l0.532,-1.594l-0.532,-2.219l0.125,-1.093l-0.625,-3.657l0,-0.312l0,-0.188l0.25,-1.031l0.188,-1.281l2.812,-1.531l1.282,-0.969l0.531,-0.125l0.437,0.687l0.063,1.344l0.25,0.906l0.062,0.532l0,0.75l-0.187,2.312l0,0.188l0.062,1.093c0,0.375 -0.041,0.646 -0.125,0.813l-0.75,1.625l-0.093,0.625c0.416,0.021 0.682,0.088 0.796,0.203c0.115,0.115 0.172,0.412 0.172,0.891l0,0.687c0,0.417 -0.25,0.761 -0.75,1.031l0,0.782l-0.062,0.625l0,0.25l0.562,0.906l-0.25,5.969l0,4.281l-0.843,1.656l0.468,2.375l-0.656,1.531c0.063,0.188 0.25,0.428 0.563,0.719l0.531,0.563l0.25,10.125l-0.781,0.875c0.062,0.396 0.093,0.823 0.093,1.281c0,0.729 -0.093,1.417 -0.281,2.062l0.281,0.688l0.875,0l0,1.156l0.657,5Z" style="fill:none;"/><path d="M441.523,275.001c0,0.271 -0.052,0.511 -0.156,0.719l-0.625,1.094l-1.469,2.531l-1.344,0.094l-0.843,0.687c-0.188,0.188 -0.511,0.313 -0.969,0.375l-5.625,1.094l-0.875,0.313l-2,-0.188l-2.875,0.25l-3.25,-0.187l-0.906,0c-0.459,-0.354 -0.74,-0.563 -0.844,-0.625l-3.063,-1.094l-1.031,-0.969l-2.031,-1.406l-1.625,-2.156l-0.625,-0.532c0.25,-0.5 0.375,-0.947 0.375,-1.343c0,-0.167 -0.042,-0.292 -0.125,-0.375l-0.844,-1.344l-0.187,-1.781l-0.063,-1.438c0,-0.479 0.115,-1.114 0.344,-1.906c0.354,-1.25 0.646,-2 0.875,-2.25l1.156,-1.469l0.594,-1.344l1.469,-1.406l1.593,-2.094l1.407,-0.781l2.031,-1.406l1.344,-0.906l0.468,-0.313l0.938,-0.187l2.844,-0.907l2.218,-0.25l1.344,-0.562l0.656,-0.063c1.063,0 1.959,0.573 2.688,1.719c0.396,-0.041 0.687,-0.26 0.875,-0.656l0.844,0.719l1.156,0.625l2.625,2.562c0.333,0.417 0.588,0.776 0.765,1.078c0.177,0.302 0.355,0.62 0.532,0.953c0.177,0.334 0.333,0.698 0.468,1.094c0.136,0.396 0.339,1 0.61,1.813l0.25,0.781l-0.313,0.125l-1.218,-0.25l-1.344,0.437l-1.031,-0.187l-1.157,0.312l-2.187,-0.25l-2.094,0.125l-2.187,-0.375l-3.563,0.063l-1.75,-0.063l-4.219,0.563l-1.531,-0.063l-2.125,0.625l-0.75,0.157l-0.125,0.75c-0.042,0.521 -0.115,0.875 -0.219,1.062c-0.104,0.188 -0.333,0.406 -0.687,0.656l0.062,0.594c0.688,0.521 1.052,0.844 1.094,0.969l0.813,3.187l0.406,0.782c-0.209,0.208 -0.313,0.396 -0.313,0.562l0.063,0.125l1.187,0.375l0.282,0.781c0.208,0.73 0.479,1.178 0.812,1.344l1.688,0.688l0.562,1.218c0.292,0.146 0.76,0.261 1.406,0.344l0.438,0.813l0.969,0.125l2.687,0.968l2.25,-0.437l5.938,-0.969l1.281,-0.781l2,-1.219l1.656,-2.156c0.292,-0.354 0.635,-0.531 1.031,-0.531c0.729,0 1.094,0.323 1.094,0.968Zm-7.375,-14.718c0,-0.334 -0.385,-1.032 -1.156,-2.094l-2.156,-1.563l-0.719,-0.75l-1.031,-0.062l-2.375,-0.188l-0.563,0.125l-1.344,0.75l-1.718,0.407l-2.188,0.812l-0.844,0.313l-1,1.5c-0.625,0.437 -0.968,0.708 -1.031,0.812l-0.125,0.375l3.844,0.281l0.437,-0.062l0.719,-0.219l0.688,0.156l1.843,0.375l0.094,0l2.094,-0.375l0.656,-0.156l0.5,0.719l0.719,0l2.75,-0.563l1.125,0.125c0.521,-0.062 0.781,-0.302 0.781,-0.718Z" style="fill:none;"/><path d="M502.242,277.876l-0.406,1.344l-0.688,-0.062c-0.25,0 -0.427,0.062 -0.531,0.187l-0.625,1.344l-0.844,0.594l-0.25,0.312l-1.156,-0.125l-1.344,0.656l-0.062,0l-1.532,-0.468l-0.187,-0.063l-3.531,0.125l-1,-0.125l-0.344,-0.5c-1.271,0.25 -1.99,0.375 -2.156,0.375l-1.157,-0.062l-0.781,0.125l-0.25,-0.625l-0.375,0l-0.312,0.062l-1.094,0.563l-6.156,0.062l-0.907,0.438c-0.687,-0.459 -1.218,-0.688 -1.593,-0.688l-0.313,0.063l-1.594,0.437l-1.812,-0.375l-5.5,0.188c-0.188,0 -0.969,-0.25 -2.344,-0.75l0.313,-0.719l0.75,-1.781l0.125,-1.688l0.343,-1.531l0,-2.344l0.188,-0.906l-0.125,-7.25l0.125,-1.844l-0.063,-0.687l-0.187,-0.719l1.281,-0.063c-0.229,-0.5 -0.427,-0.854 -0.594,-1.062c-0.166,-0.208 -0.458,-0.469 -0.875,-0.781l-0.156,-0.532l0.156,-2.312l-0.281,-3.969l0.281,-1.531l0.125,-0.625l-0.656,-0.188l-0.25,-0.656l-0.125,-2.031l-0.375,-0.656l-0.062,-0.313l0.062,-0.781l0.25,-0.375l1.719,0.437l-0.5,-0.437c-0.313,-0.229 -0.469,-0.438 -0.469,-0.625c0,-0.104 0.042,-0.281 0.125,-0.531l-0.5,-0.188l-0.625,0.188c-0.062,-1.021 -0.13,-1.698 -0.203,-2.032c-0.073,-0.333 -0.203,-0.531 -0.391,-0.593l-1.218,-0.5l0.312,-0.657c0.146,-0.166 0.49,-0.354 1.031,-0.562l0.594,-0.188c1.021,-0.479 1.802,-0.718 2.344,-0.718c0.021,0 0.041,0 0.062,0c0.021,0 0.052,0.021 0.094,0.062l4.594,0.781l2.125,0.188l1.187,0.375c0.771,-0.292 1.292,-0.438 1.563,-0.438c0.125,0 0.208,0.021 0.25,0.063l4.719,0.5l4.156,-0.25l1.625,0.469l0.937,-0.219l0,-0.375c1.438,-0.146 2.49,-0.333 3.157,-0.563c0.916,-0.354 1.468,-0.531 1.656,-0.531l0.625,0.125c-0.104,0.479 -0.235,0.818 -0.391,1.016c-0.156,0.198 -0.495,0.422 -1.015,0.672c-0.042,0.375 -0.115,0.635 -0.219,0.781c-0.104,0.146 -0.406,0.354 -0.906,0.625c-1.084,0.5 -1.98,0.75 -2.688,0.75l-0.344,0l-1.656,-0.125l-1.406,0.187l-2.875,-0.312l-0.656,-0.063c-0.584,-0.375 -1.157,-0.562 -1.719,-0.562c-0.438,0.5 -1.25,0.75 -2.438,0.75l-0.937,-0.063l-0.156,-0.562l-0.625,0.187l-0.907,0.375l-4.281,-0.375l-0.687,1.032l0.25,0.25l0,0.25l0.125,1.656l-0.25,2.437l0.125,0.907l0.062,0.687l0.625,0.188l4.281,0.406c0.292,0 0.719,0.208 1.282,0.625l0.968,-0.188c0.584,-0.208 1.011,-0.312 1.282,-0.312l0.062,0l3.344,0.187l1.969,0.063l1.781,0c0.375,0 0.692,-0.031 0.953,-0.094c0.26,-0.062 0.547,-0.177 0.859,-0.344l2.375,0.438l0.563,-0.125l1.344,-0.313l2.437,-0.062l2.563,-0.344c0.291,0.084 0.583,0.24 0.875,0.469l0.656,-0.406c0.416,-0.334 0.802,-0.5 1.156,-0.5l0.688,0.062l0.718,-0.062l0,0.968l-0.843,0.563l-1.907,1.656c-0.229,0.188 -0.448,0.281 -0.656,0.281l-0.125,0l-2.094,-0.281l-2.687,0.094l-1.469,-0.344l-5.25,0.344l-0.969,-0.094c-0.229,-0.416 -0.489,-0.625 -0.781,-0.625c-0.167,0 -0.292,0.021 -0.375,0.063l-1.406,0.562l-4.094,-0.437l-2,0.718l-1.406,-0.406l-1.156,0.719l-3.438,-0.25l-0.25,0.437l0.125,1.657l-0.531,1.687l0.281,0.5l0.438,0.563l-0.438,1.343c0.313,0.584 0.5,1.011 0.563,1.282l-0.125,1.031l0.25,2.875l0,0.062c0,0.271 -0.23,0.698 -0.688,1.282c0.542,0.687 0.813,1.25 0.813,1.687c0,0.125 -0.042,0.271 -0.125,0.438l-0.844,1.781l0.906,1.594l0.375,5.968l0.969,0.188l4.219,1.469l1.406,-0.188c0.333,0 0.802,0.167 1.406,0.5c0.417,-0.375 0.719,-0.562 0.906,-0.562l0.125,0l2.875,0.562l1.75,-0.187l1.532,0.312l3.718,-0.25l1.063,0.188l1.812,0.062l0.625,0.219l-0.187,-0.469l0.719,-0.125l2.937,-0.062l0.625,-0.25l3.656,-0.657c0.104,-0.02 0.344,-0.078 0.719,-0.171c0.375,-0.094 0.604,-0.141 0.688,-0.141c0.125,0 0.385,0.062 0.781,0.187Z" style="fill:none;"/><path d="M534.804,279.22c0,0.146 -0.271,0.49 -0.812,1.031l-0.594,0.594c-0.458,0.479 -0.964,0.865 -1.516,1.156c-0.552,0.292 -1.005,0.438 -1.359,0.438c-0.167,0 -0.594,-0.385 -1.281,-1.156l-3.438,-3.844c-0.146,-0.146 -0.552,-0.979 -1.218,-2.5l-0.907,0l-1.218,-1.094c-0.625,-0.729 -1.053,-1.198 -1.282,-1.406c-0.229,-0.208 -0.573,-0.438 -1.031,-0.688l-0.625,-0.406c-0.187,-0.75 -0.552,-1.489 -1.094,-2.219l-0.875,0.5l-0.468,1.219l-1.219,1.031l-1.156,1.532c-0.563,0.708 -1.053,1.177 -1.469,1.406l-0.938,0.562l-0.718,0.844l-2.25,3.656c-0.417,0.646 -1.094,1.157 -2.032,1.532l-0.312,1.156l-0.844,0c-1.146,0 -1.719,-0.427 -1.719,-1.281c0,-0.438 0.209,-0.865 0.625,-1.282l4.157,-3.968l0.843,-0.657l1.844,-2.468l3.219,-3.344l1.156,-1.219l-0.594,-0.875l-1.593,-1.687l-0.438,-1.594l-1.219,-0.375l-1.531,-1.594l-1.562,-1.219l-0.25,-1.468c-0.125,-0.438 -0.355,-0.657 -0.688,-0.657c-0.187,0 -0.406,0.042 -0.656,0.125l-0.5,-0.375c-0.959,-0.729 -1.61,-1.276 -1.953,-1.64c-0.344,-0.365 -0.631,-0.776 -0.86,-1.235l0.688,-0.718c0.646,-0.646 1.182,-1.078 1.609,-1.297c0.427,-0.219 1.11,-0.38 2.047,-0.485l0.25,-0.25l0.313,0l0.468,0.563l1.219,1.406l1.406,2c0.417,0.354 0.625,0.667 0.625,0.938l0,0.281c0.417,0.542 0.719,0.875 0.907,1c0.187,0.125 0.479,0.187 0.875,0.187l1.156,1.438c1.208,1.104 1.812,1.823 1.812,2.156l-0.062,0.969l-0.063,0.062c0,0.167 0.151,0.401 0.453,0.704c0.302,0.302 0.579,0.453 0.829,0.453c0.395,0 0.864,-0.386 1.406,-1.157l0.625,-0.906c0.604,-0.021 1.021,-0.114 1.25,-0.281c0.229,-0.167 0.458,-0.563 0.687,-1.188l-0.218,-0.562l0.531,-0.469c1.146,-0.937 1.739,-1.531 1.781,-1.781l0.25,-1.344l0.969,-1.219l1.406,-1.968l0.906,-0.594c0.646,-0.5 1.219,-0.75 1.719,-0.75c0.479,0 0.719,0.271 0.719,0.812c0,0.25 -0.052,0.448 -0.156,0.594l-1.594,2.156l-1.094,1.688l-1.531,1.656l-2.938,3.375l-2.75,2.969l-0.312,0.937c0.541,0.042 0.916,0.12 1.125,0.235c0.208,0.114 0.448,0.38 0.719,0.797l0.718,0.125l0.625,0.656l2.188,2.344c0.375,0.458 0.927,0.927 1.656,1.406c0.729,0.542 1.094,0.948 1.094,1.219c0,0.146 -0.084,0.302 -0.25,0.468l0.187,0.25c0.521,0 0.927,0.188 1.219,0.563c0.5,0 0.844,0.052 1.031,0.156c0.188,0.104 0.459,0.375 0.813,0.813c0.312,0.375 0.719,0.739 1.219,1.093c1.229,0.834 1.843,1.49 1.843,1.969Z" style="fill:none;"/><path d="M572.429,268.533l-0.625,1.687l-0.312,0.75l-0.906,1.156l-0.657,1.219l-0.812,0.844l-0.594,0.75l-0.437,0.125l-0.844,-0.188l-0.313,0.594c-0.541,0.979 -0.953,1.594 -1.234,1.844c-0.281,0.25 -0.787,0.375 -1.516,0.375l-0.062,0l-0.5,-0.063c-0.084,0.709 -0.38,1.308 -0.891,1.797c-0.51,0.49 -1.349,0.943 -2.515,1.36l-1.719,0.562l-1.406,0.5l-2.813,0.063l-0.781,0.125l-0.781,0.531c-0.459,-0.25 -0.792,-0.385 -1,-0.406c-0.209,-0.021 -0.875,-0.084 -2,-0.188l-0.75,-0.062l0.125,-0.75l-0.719,-0.125l-0.625,0.375l-0.531,0.25l-0.875,0l-1.407,0l-0.593,-0.188l-0.188,0.781l0.125,4.657l-0.437,2.125l-0.063,0.875l0.5,0l0.188,5.781l-0.75,0.125l-0.188,0.5l0.125,0.781l0.375,1.656l-0.187,0.719l0.437,-0.344l0.313,0.188l0.062,2.125l0.219,2.062l0.125,1.407c0,0.396 -0.323,0.625 -0.969,0.687l-0.187,0.438l1.093,0.281l-0.062,0.625l0.312,1.531l0.125,1.031l-0.375,0.594l-0.781,0.625l-0.625,1.031l-0.781,0.25l-1.656,0.782l-0.532,0.062l-1.156,-0.062l-0.062,-1.157l0.062,-1.031l0.219,-2.625l-0.063,-2.625c0.021,-0.271 0.073,-0.489 0.157,-0.656c0.083,-0.167 0.26,-0.354 0.531,-0.563l-0.313,-2.031c0.396,-0.396 0.641,-0.677 0.735,-0.844c0.093,-0.166 0.151,-0.447 0.172,-0.843c-0.355,-0.125 -0.589,-0.25 -0.704,-0.375c-0.114,-0.125 -0.203,-0.313 -0.265,-0.563l0.25,-1.156l-0.125,-0.844l-0.063,-3.312l-0.125,-2.5l0.313,-2.969l0.062,-0.813c0.479,-0.458 0.719,-0.906 0.719,-1.343c0,-0.354 -0.094,-0.907 -0.281,-1.657l-0.688,-0.218l-0.312,-1.063l0,-0.469l0.375,-10.437l0.375,-1.125l-0.125,-1.156l-0.125,-0.844l-0.563,-0.188l0,-0.843l-0.156,-4.594l0,-0.5l0.219,-1.281l-0.344,-2.625c0,-0.729 -0.047,-1.183 -0.141,-1.36c-0.093,-0.177 -0.401,-0.411 -0.921,-0.703c0.062,-0.666 0.187,-1.094 0.375,-1.281l0.625,-0.375l1.468,-1.656l1.344,-0.782l0.781,-0.375c0.396,0.042 0.886,0.313 1.469,0.813l-0.125,0.594l-0.125,0.937l0.063,0.531l0.562,0.063l1.094,-0.594c1.271,-0.646 2.203,-1.073 2.797,-1.281c0.593,-0.208 1.224,-0.313 1.89,-0.313c0.354,0 0.63,0.047 0.828,0.141c0.198,0.094 0.391,0.245 0.579,0.453l0.562,-0.406l0.313,-0.375l0.781,-0.188l1.281,-0.25l3.531,0.063l3,-0.063c0.396,0 0.865,0.323 1.407,0.969c0.083,-0.021 0.166,-0.041 0.25,-0.062c0.083,-0.021 0.145,-0.032 0.187,-0.032c0.167,0 0.531,0.157 1.094,0.469l2.312,1.156c0.417,0.167 0.688,0.355 0.813,0.563l0.531,1.219c0.104,0.166 0.292,0.25 0.563,0.25c0.25,0 0.531,-0.063 0.843,-0.188c0.625,0.479 1.157,1.094 1.594,1.844c0.292,0.521 0.609,1.453 0.953,2.797c0.344,1.344 0.516,2.359 0.516,3.047l0,0.125l-0.188,1.031l-0.062,0.875l0.312,1.344Zm-4.031,-2.813c-0.771,-0.396 -1.24,-0.864 -1.406,-1.406l-0.5,-1.469l-1.594,-2.375l-0.156,-1.281l-0.438,-0.438l-1.656,0.063l-2.5,-1.656l-1.781,-0.188l-1.688,-0.594l-4.531,0.063l-0.719,0l-0.875,0.125l-2.562,0.719l-1.281,0.25l-1.032,0.437l-0.75,0.219c-0.479,0.167 -0.718,0.781 -0.718,1.844l0,0.375c-0.605,1.291 -0.907,2 -0.907,2.125c0,0.125 0.021,0.208 0.063,0.25l0.156,0.25l0.625,0.25l-0.125,1.562l0.125,3.563c0,0.271 -0.187,0.739 -0.562,1.406c0.458,1.021 0.687,1.896 0.687,2.625l-0.125,2.875l-0.062,1.094l0.906,0.468l1.594,0.688l1.281,0.969l0.375,-0.532l0.844,0.344l2.687,0.188l2.281,0.906l2.563,-0.406l1.625,0.062l1.187,-0.5l1.282,-0.594l1.562,-1.125l1.219,-0.781l1.125,-1.406l1.344,-0.969c0.77,-0.5 1.197,-1.01 1.281,-1.531l0.125,-1.219l0.781,-1.531c0.021,-0.042 0.036,-0.078 0.047,-0.109c0.01,-0.032 0.016,-0.058 0.016,-0.079l-0.125,-2.5l-0.063,-0.718l0.375,-0.313Z" style="fill:none;"/><path d="M584.336,275.845l-0.125,1.656l0.062,1.282c0,0.312 -0.156,0.573 -0.469,0.781l0.188,0.75l-0.688,0.125l-2.062,1.281l-0.813,0.125l-0.968,0.594c-0.084,0 -0.157,0.005 -0.219,0.016c-0.063,0.01 -0.136,0.026 -0.219,0.046c-0.396,0 -0.594,-0.125 -0.594,-0.375l0,-0.781l-0.187,-1.406l0.437,-3.406l0.157,-4.344c0.062,-1.063 0.291,-1.938 0.687,-2.625l-0.375,-0.969c-0.354,-0.646 -0.531,-1.021 -0.531,-1.125c0,-0.333 0.26,-0.937 0.781,-1.812c0.208,-0.313 0.313,-0.657 0.313,-1.032c0,-0.291 -0.313,-0.562 -0.938,-0.812l0.125,-0.531l-0.281,-0.125l0,-0.438l0,-0.5l0.531,-2.187l0,-5.375l0.625,-2.5c0,-0.334 -0.25,-0.698 -0.75,-1.094l0,-1.469l-0.125,-5.625c0,-0.416 0.271,-1.125 0.813,-2.125l0.468,-0.812c-0.771,-0.354 -1.156,-0.677 -1.156,-0.969c0,0.083 0.063,-0.323 0.188,-1.219l-0.657,-0.562l0,-1.219l-0.125,-1.469l0,-0.281l0.532,-1.594l-0.532,-2.219l0.125,-1.093l-0.625,-3.657l0,-0.312l0,-0.188l0.25,-1.031l0.188,-1.281l2.812,-1.531l1.282,-0.969l0.531,-0.125l0.437,0.687l0.063,1.344l0.25,0.906l0.062,0.532l0,0.75l-0.187,2.312l0,0.188l0.062,1.093c0,0.375 -0.041,0.646 -0.125,0.813l-0.75,1.625l-0.093,0.625c0.416,0.021 0.682,0.088 0.796,0.203c0.115,0.115 0.172,0.412 0.172,0.891l0,0.687c0,0.417 -0.25,0.761 -0.75,1.031l0,0.782l-0.062,0.625l0,0.25l0.562,0.906l-0.25,5.969l0,4.281l-0.843,1.656l0.468,2.375l-0.656,1.531c0.063,0.188 0.25,0.428 0.563,0.719l0.531,0.563l0.25,10.125l-0.781,0.875c0.062,0.396 0.093,0.823 0.093,1.281c0,0.729 -0.093,1.417 -0.281,2.062l0.281,0.688l0.875,0l0,1.156l0.657,5Z" style="fill:none;"/><path d="M624.773,265.533l-0.687,-0.125l0.125,0.718l-0.719,0.5c0.104,0.375 0.192,0.605 0.265,0.688c0.073,0.083 0.266,0.219 0.579,0.406l0.062,0.625c0,2.271 -0.875,4.729 -2.625,7.375c-0.396,0.584 -0.885,1.198 -1.469,1.844c-0.583,0.646 -0.948,1.073 -1.093,1.281l-0.938,0.25l-5.906,2.75l-3.25,0.125l-2.375,0.594l-2.813,-0.063l-0.968,0.25l-2.813,-0.5l-1.156,-0.062l-0.625,-0.719l-1.75,-0.25l-0.813,-0.437c-0.708,-0.542 -1.302,-0.995 -1.781,-1.36c-0.479,-0.364 -0.786,-0.604 -0.922,-0.718c-0.135,-0.115 -0.245,-0.235 -0.328,-0.36l-0.687,-1.344l-0.969,-0.781l-0.75,-1.969l-0.281,-0.781l0.343,-0.25c0,-0.291 0.042,-0.489 0.125,-0.594c0.084,-0.104 0.271,-0.208 0.563,-0.312l-0.188,-0.5l-1.031,-0.656l0,-1.282c0,-0.895 0.104,-1.781 0.313,-2.656c0.208,-0.875 0.572,-1.885 1.093,-3.031c0.813,-1.833 1.417,-2.875 1.813,-3.125l1.281,-0.844l0.688,-1.219c0.25,-0.437 0.552,-0.729 0.906,-0.875l2.937,-1.562l1.657,-1.344l2,-0.75l3.5,-1.219l2.906,-0.25l2.281,-0.062c1.292,0 1.938,0.354 1.938,1.062c0.354,0.313 0.583,0.469 0.687,0.469c0.313,0 0.656,-0.302 1.031,-0.906l0.782,0.187l2.031,0.719l0.844,0.688l1.156,0.718l1.156,1.782c0.313,0.396 0.927,0.593 1.844,0.593c0.604,0.75 1.01,1.49 1.219,2.219c0.208,0.729 0.437,2.073 0.687,4.031l0.125,1.032Zm-4.531,0.781l-1.156,-3.594l-0.188,-1.594l-0.312,-0.593l-0.188,0c-0.167,0 -0.302,-0.032 -0.406,-0.094c-0.104,-0.063 -0.229,-0.177 -0.375,-0.344l-1.531,-1.906l-0.5,-0.781l-2.625,-1.219c-0.25,-0.417 -0.464,-0.724 -0.641,-0.922c-0.177,-0.198 -0.391,-0.297 -0.641,-0.297c-0.271,0 -0.698,0.104 -1.281,0.313c-0.583,-0.25 -1.01,-0.375 -1.281,-0.375l-0.906,0.125l-1.532,0.062l-2.125,0.781l-0.5,-0.437l-0.375,0.5l-2.125,1.281l-3.906,3.375l-0.75,0.656c-0.167,1.063 -0.646,2.282 -1.437,3.657l-0.438,0.75l0,0.25c0,0.458 -0.073,0.76 -0.219,0.906c-0.146,0.146 -0.437,0.25 -0.875,0.312c-0.083,0.334 -0.125,0.49 -0.125,0.469c0.021,0.042 0.037,0.078 0.047,0.11c0.011,0.031 0.016,0.057 0.016,0.078l0.969,1.093l0.125,0.688c-0.646,0.542 -0.969,0.906 -0.969,1.094c0,0 0.041,0.125 0.125,0.375c0.187,-0.209 0.364,-0.313 0.531,-0.313c0.188,0 0.313,0.063 0.375,0.188l0.719,2.312l1.594,2.625l-0.188,1.594c0.167,0.167 0.354,0.25 0.563,0.25c0.25,0 0.51,-0.125 0.781,-0.375l0.625,0.187l3.781,2.313l3.844,0.375l2.187,0.312l2.469,-0.437l1.625,-0.375l2.031,-2.063l1.469,-0.437l0.719,-0.781l1.656,-3.438l0.844,-0.719c0.291,-0.291 0.437,-0.541 0.437,-0.75l0,-0.156l-0.5,-1.469l0.563,-3.562Z" style="fill:none;"/><path d="M652.429,255.22c0,0.104 -0.041,0.198 -0.125,0.281l-1.781,1.407l-0.969,1l-0.562,0.218l-0.844,-0.531l-0.562,-0.562l-1.875,-0.063l-1.782,-0.719l-0.687,-0.187c-0.271,0.458 -0.552,0.745 -0.844,0.859c-0.292,0.115 -0.885,0.172 -1.781,0.172l-1.031,0.438l-0.782,-0.25l-0.625,0.5l-2.5,1.937c-0.416,0.542 -0.656,1.542 -0.718,3l-0.063,2.375l-0.687,0.438c0.416,0.708 0.625,1.396 0.625,2.062l0.468,0l0.063,0.875l0.125,4.031l0.062,2.125l-0.125,1.907c-0.646,0.375 -0.968,0.677 -0.968,0.906c0,0.042 0.083,0.229 0.25,0.562l0.843,-0.187l-0.062,0.281l0.25,1.25l0,0.156c0,0.313 -0.167,0.636 -0.5,0.969c-0.334,0.334 -0.677,0.521 -1.031,0.563l-1.219,0.125l-1.844,0.968l-0.781,-0.468l0.125,-0.625l0.437,-1.813l-0.187,-2.406l0.187,-0.344l0.657,0l0,-0.375l-0.063,-0.562l-0.375,-0.907l-0.094,-1.281l-0.25,-1.094l0,-0.062l0,-0.844l0.063,-1c0.083,-0.104 0.172,-0.213 0.265,-0.328c0.094,-0.115 0.219,-0.286 0.375,-0.516c0.157,-0.229 0.329,-0.51 0.516,-0.843l0.313,-0.75l-0.063,-0.313c-0.979,0 -1.469,-0.219 -1.469,-0.656l0.125,-2.375l-0.187,-2.344c0.062,-0.208 0.198,-0.406 0.406,-0.594l0,-0.906l-0.406,-0.375l-0.125,-0.75l-0.063,-1.687l-0.687,-1.344c0.146,-0.75 0.479,-1.385 1,-1.906l1.937,-1.032l1.157,-0.75c0.583,0.167 0.984,0.365 1.203,0.594c0.218,0.229 0.328,0.604 0.328,1.125l0,1.031c0,0.771 0.166,1.157 0.5,1.157l0.125,0l1.594,-0.844l1.562,-0.594l2.688,-1.469l0.875,-0.375l0.718,0.188l1.407,-0.438c0.812,-0.25 1.427,-0.375 1.843,-0.375l1.344,0.125c0.417,0.584 0.76,0.875 1.031,0.875c0.042,-0.02 0.073,-0.036 0.094,-0.046c0.021,-0.011 0.052,-0.016 0.094,-0.016l0.719,-0.375c0.166,-0.083 0.291,-0.125 0.375,-0.125c0.52,0 1.01,0.281 1.468,0.844c0.334,0.396 0.5,0.75 0.5,1.062Z" style="fill:none;"/><path d="M681.992,275.001c0,0.271 -0.052,0.511 -0.156,0.719l-0.625,1.094l-1.469,2.531l-1.344,0.094l-0.844,0.687c-0.187,0.188 -0.51,0.313 -0.968,0.375l-5.625,1.094l-0.875,0.313l-2,-0.188l-2.875,0.25l-3.25,-0.187l-0.907,0c-0.458,-0.354 -0.739,-0.563 -0.843,-0.625l-3.063,-1.094l-1.031,-0.969l-2.031,-1.406l-1.625,-2.156l-0.625,-0.532c0.25,-0.5 0.375,-0.947 0.375,-1.343c0,-0.167 -0.042,-0.292 -0.125,-0.375l-0.844,-1.344l-0.188,-1.781l-0.062,-1.438c0,-0.479 0.114,-1.114 0.344,-1.906c0.354,-1.25 0.645,-2 0.875,-2.25l1.156,-1.469l0.594,-1.344l1.468,-1.406l1.594,-2.094l1.406,-0.781l2.032,-1.406l1.343,-0.906l0.469,-0.313l0.938,-0.187l2.843,-0.907l2.219,-0.25l1.344,-0.562l0.656,-0.063c1.063,0 1.958,0.573 2.688,1.719c0.395,-0.041 0.687,-0.26 0.875,-0.656l0.843,0.719l1.157,0.625l2.625,2.562c0.333,0.417 0.588,0.776 0.765,1.078c0.177,0.302 0.354,0.62 0.531,0.953c0.177,0.334 0.334,0.698 0.469,1.094c0.136,0.396 0.339,1 0.61,1.813l0.25,0.781l-0.313,0.125l-1.219,-0.25l-1.343,0.437l-1.032,-0.187l-1.156,0.312l-2.187,-0.25l-2.094,0.125l-2.188,-0.375l-3.562,0.063l-1.75,-0.063l-4.219,0.563l-1.531,-0.063l-2.125,0.625l-0.75,0.157l-0.125,0.75c-0.042,0.521 -0.115,0.875 -0.219,1.062c-0.104,0.188 -0.333,0.406 -0.687,0.656l0.062,0.594c0.688,0.521 1.052,0.844 1.094,0.969l0.812,3.187l0.407,0.782c-0.209,0.208 -0.313,0.396 -0.313,0.562l0.063,0.125l1.187,0.375l0.281,0.781c0.209,0.73 0.479,1.178 0.813,1.344l1.687,0.688l0.563,1.218c0.291,0.146 0.76,0.261 1.406,0.344l0.438,0.813l0.968,0.125l2.688,0.968l2.25,-0.437l5.937,-0.969l1.282,-0.781l2,-1.219l1.656,-2.156c0.291,-0.354 0.635,-0.531 1.031,-0.531c0.729,0 1.094,0.323 1.094,0.968Zm-7.375,-14.718c0,-0.334 -0.386,-1.032 -1.156,-2.094l-2.157,-1.563l-0.718,-0.75l-1.032,-0.062l-2.375,-0.188l-0.562,0.125l-1.344,0.75l-1.719,0.407l-2.187,0.812l-0.844,0.313l-1,1.5c-0.625,0.437 -0.969,0.708 -1.031,0.812l-0.125,0.375l3.844,0.281l0.437,-0.062l0.719,-0.219l0.687,0.156l1.844,0.375l0.094,0l2.094,-0.375l0.656,-0.156l0.5,0.719l0.719,0l2.75,-0.563l1.125,0.125c0.52,-0.062 0.781,-0.302 0.781,-0.718Z" style="fill:none;"/><path d="M709.211,255.22c0,0.104 -0.042,0.198 -0.125,0.281l-1.782,1.407l-0.968,1l-0.563,0.218l-0.844,-0.531l-0.562,-0.562l-1.875,-0.063l-1.781,-0.719l-0.688,-0.187c-0.271,0.458 -0.552,0.745 -0.844,0.859c-0.291,0.115 -0.885,0.172 -1.781,0.172l-1.031,0.438l-0.781,-0.25l-0.625,0.5l-2.5,1.937c-0.417,0.542 -0.657,1.542 -0.719,3l-0.063,2.375l-0.687,0.438c0.416,0.708 0.625,1.396 0.625,2.062l0.469,0l0.062,0.875l0.125,4.031l0.063,2.125l-0.125,1.907c-0.646,0.375 -0.969,0.677 -0.969,0.906c0,0.042 0.083,0.229 0.25,0.562l0.844,-0.187l-0.063,0.281l0.25,1.25l0,0.156c0,0.313 -0.167,0.636 -0.5,0.969c-0.333,0.334 -0.677,0.521 -1.031,0.563l-1.219,0.125l-1.844,0.968l-0.781,-0.468l0.125,-0.625l0.438,-1.813l-0.188,-2.406l0.188,-0.344l0.656,0l0,-0.375l-0.063,-0.562l-0.375,-0.907l-0.093,-1.281l-0.25,-1.094l0,-0.062l0,-0.844l0.062,-1c0.083,-0.104 0.172,-0.213 0.266,-0.328c0.093,-0.115 0.218,-0.286 0.375,-0.516c0.156,-0.229 0.328,-0.51 0.515,-0.843l0.313,-0.75l-0.063,-0.313c-0.979,0 -1.468,-0.219 -1.468,-0.656l0.125,-2.375l-0.188,-2.344c0.063,-0.208 0.198,-0.406 0.406,-0.594l0,-0.906l-0.406,-0.375l-0.125,-0.75l-0.062,-1.687l-0.688,-1.344c0.146,-0.75 0.479,-1.385 1,-1.906l1.938,-1.032l1.156,-0.75c0.583,0.167 0.984,0.365 1.203,0.594c0.219,0.229 0.328,0.604 0.328,1.125l0,1.031c0,0.771 0.167,1.157 0.5,1.157l0.125,0l1.594,-0.844l1.562,-0.594l2.688,-1.469l0.875,-0.375l0.719,0.188l1.406,-0.438c0.812,-0.25 1.427,-0.375 1.844,-0.375l1.343,0.125c0.417,0.584 0.761,0.875 1.032,0.875c0.041,-0.02 0.072,-0.036 0.093,-0.046c0.021,-0.011 0.052,-0.016 0.094,-0.016l0.719,-0.375c0.166,-0.083 0.291,-0.125 0.375,-0.125c0.521,0 1.01,0.281 1.469,0.844c0.333,0.396 0.5,0.75 0.5,1.062Z" style="fill:none;"/></g><g transform="matrix(0.964111,0,0,3.5718,8.66913,-569.175)"><path d="M292.554,278.47c0,0.688 -0.343,1.427 -1.031,2.219c-0.562,0.604 -1.01,0.906 -1.344,0.906c-0.041,0 -0.187,-0.041 -0.437,-0.125l-0.563,0.375c-0.458,0.354 -0.823,0.531 -1.093,0.531l-0.5,-0.062l0.062,-0.781l0.25,-1.782l-0.062,-1.281l0.562,-3.781l-0.312,-1.656l-0.188,-3.657l-0.187,-1.281l0.062,-3.125l-0.125,-2.062l0.125,-1.219l-0.469,-4.031l0.407,-0.813l-0.532,-0.219l0,-0.75l-0.437,-1.875l0.062,-1.781l-0.312,-0.75l-0.781,0.188l-0.25,0.375l0.125,0.906l-1.657,2.5l-0.062,0.687l-0.531,0.5l-0.313,0.844l-0.437,0.656l-0.188,1.125l-0.844,1.875l-0.125,0.688c-0.687,0.562 -1.156,1.073 -1.406,1.531l-1.031,2.313l-2.813,4.812l-2,3.719l-0.5,0.75l-1.843,1.719c-0.23,0.187 -0.344,0.364 -0.344,0.531c0,0 0.01,0.01 0.031,0.031c0.021,0.021 0.042,0.052 0.063,0.094c0.125,0.5 0.187,0.823 0.187,0.969l-0.062,0.312c-0.396,0.063 -0.683,0.182 -0.86,0.36c-0.177,0.177 -0.338,0.463 -0.484,0.859c-0.271,0.729 -0.495,1.234 -0.672,1.516c-0.177,0.281 -0.406,0.494 -0.688,0.64c-0.281,0.146 -0.703,0.281 -1.265,0.406c-0.542,-0.604 -0.854,-1 -0.938,-1.187c-0.083,-0.188 -0.156,-0.5 -0.218,-0.938l-0.25,-0.25c0,-0.437 -0.261,-0.781 -0.782,-1.031l-0.25,0.25l-0.468,-0.812l-0.75,-2.063l-0.657,-0.875l-0.687,-1.937l-0.781,-1.157c0.27,-0.5 0.406,-0.968 0.406,-1.406c0,-0.333 -0.073,-0.562 -0.219,-0.687l-1,-0.844l-3.906,-7.75l-0.969,-2.031l0.063,0l0.187,-0.844l-0.5,-1.031l-0.187,-0.938l-0.657,0.313l-0.375,-0.657c-0.646,-1.104 -1.052,-1.864 -1.218,-2.281c-0.167,-0.416 -0.375,-1.041 -0.625,-1.875c-0.542,0 -0.886,-0.166 -1.032,-0.5l-0.468,1.031l-0.5,0l-0.125,0.25c0.291,0.438 0.437,0.865 0.437,1.282l-0.187,2.375c-0.021,0.375 -0.047,0.672 -0.079,0.89c-0.031,0.219 -0.083,0.386 -0.156,0.5c-0.073,0.115 -0.224,0.328 -0.453,0.641l0.75,1.531l-0.125,0.781l-0.062,2.219l-0.188,1.344l0.188,6.75l-0.375,1c0.291,0.604 0.437,1.208 0.437,1.812l0,0.625c-0.542,0.063 -0.896,0.198 -1.062,0.407c-0.167,0.208 -0.282,0.625 -0.344,1.25l1.156,0.406l0.063,0.687l0,0.719c0,0.625 -0.084,1.011 -0.25,1.156l-2.375,1.594l-1.157,0.938l-0.437,0.093l-0.656,-0.093l-0.063,-0.375l-0.125,-0.563l0.594,-1.469l0,-3.031l0.5,-3.75l-0.063,-2l-0.062,-0.687l0.125,-0.969l-0.063,-0.781c0.313,-0.229 0.5,-0.573 0.563,-1.032l0.344,-0.187c-0.063,-0.396 -0.136,-0.646 -0.219,-0.75l-0.375,-0.781c0,-0.104 -0.005,-0.188 -0.016,-0.25c-0.01,-0.063 -0.026,-0.125 -0.047,-0.188c0,-0.312 0.177,-0.656 0.532,-1.031c-0.355,-0.604 -0.532,-1.135 -0.532,-1.594l0,-0.187l0.188,-3.844l-0.188,-3.344l0.063,-0.687l1.031,0.312c0.208,-0.271 0.313,-0.5 0.313,-0.687l0,-0.219l-1.407,-0.125l-0.125,-1.531l1.032,-0.063l0.125,-0.625c0,-0.375 -0.303,-0.677 -0.907,-0.906l-0.312,-1.719l0.312,0l0.063,-0.406l-0.5,-3.063l0.062,-1.468l-0.562,-1.219c0,-0.417 0.375,-0.802 1.125,-1.156l0.594,0.125l0.375,-0.813l0.656,-0.281l1.406,-1.063c0.313,-0.229 0.583,-0.343 0.813,-0.343l0.656,0.156c0.021,0.396 0.088,0.682 0.203,0.859c0.114,0.177 0.359,0.36 0.734,0.547c0.042,0.271 0.104,0.516 0.188,0.735c0.083,0.218 0.224,0.484 0.422,0.796c0.198,0.313 0.474,0.761 0.828,1.344l-0.281,0.688l-0.313,1.031l0.125,0.375l0.969,0.469l0.75,2.343l-0.625,0.969l0.375,0.188l0.25,0.656c0.625,0.042 1.146,0.427 1.562,1.156l1,2.219l1.157,3.281c-0.542,0.479 -0.813,0.865 -0.813,1.156l0.313,0.75l0.687,0.063c0.354,0.042 0.583,0.115 0.688,0.219c0.104,0.104 0.218,0.333 0.343,0.687l-0.562,0.906c0.229,0.292 0.437,0.438 0.625,0.438l0.375,0l0.406,0.562c0.813,1.521 1.219,2.438 1.219,2.75l-0.25,0.969l-0.219,0.719l0.594,0.312l0.625,0.125l0.719,0.969l1.218,1.281l0.313,1.219l0.687,0.625l0.844,2.063l0.719,0.75l1,2l0.531,0.437l0.75,-0.719l2.25,-2.531l1.156,-2l1.032,-1.906l1.531,-2.625l2.875,-6.719l1.156,-1.75l0.313,-1.969l1.593,-3.593l0.25,-0.969l0.407,-0.125l0.375,-0.313l0,-0.25l0.5,-0.25l-0.063,-0.531l-0.562,-0.25c0.166,-0.875 0.375,-1.385 0.625,-1.531l0.593,-0.25l0.563,-0.469c-0.25,-0.437 -0.563,-0.906 -0.938,-1.406c0.334,-0.458 0.5,-0.833 0.5,-1.125c0,-0.146 -0.021,-0.26 -0.062,-0.344l0.562,-0.625l0.969,-1.469l1.844,-1.531c0.791,-0.687 1.271,-1.031 1.437,-1.031l0.75,0.187l-0.187,2.125l0.25,0.25l0.594,-0.062c0.583,0 0.875,0.167 0.875,0.5l-0.063,1.219l-0.25,1.031l-0.375,-0.125l-0.125,0.562l0.438,1.157l0.125,6.656l0,0.312c0,0.334 -0.084,0.615 -0.25,0.844l-0.844,1.156c-0.084,0.084 -0.125,0.334 -0.125,0.75c0.166,0.25 0.333,0.412 0.5,0.485c0.166,0.073 0.427,0.109 0.781,0.109l0.063,1.156l-0.125,5.157l0.5,2.25l0.281,3.906l0.25,2.625c0,0.354 -0.084,0.781 -0.25,1.281c0.271,0.334 0.437,0.615 0.5,0.844c0.062,0.229 0.125,0.823 0.187,1.781l0.125,2.438l0,0.062Z" style="fill:#971400;fill-rule:nonzero;"/><path d="M329.148,279.501c-0.146,0.542 -0.458,0.917 -0.937,1.125l-3.594,1.563c-0.646,-0.375 -0.969,-0.979 -0.969,-1.813l0.063,-1.781l-0.563,-0.125l-2.062,0.969l-2.875,1.406l-1.157,0.563l-3.781,0.718l-1.219,0.375l-0.312,0c-0.209,0 -0.354,-0.02 -0.438,-0.062l-1.156,-0.469l-1.406,0.406l-1.281,-1.093l-2.5,0.375c-0.25,-0.104 -0.615,-0.292 -1.094,-0.563c-0.479,-0.271 -0.886,-0.573 -1.219,-0.906c-0.937,-1.042 -1.406,-2.104 -1.406,-3.188c0,-0.333 0.219,-0.677 0.656,-1.031l-1.031,-0.375l-0.063,-1.219l-0.062,-1.687c0,-0.5 0.083,-0.917 0.25,-1.25l0.594,-1.094l-0.594,-1.75l0.062,-1.844l-0.062,-2.125c0.021,-0.125 0.239,-0.843 0.656,-2.156l0,-0.469l-0.594,0.282l-0.375,-0.407l0,-0.625l0.063,-3.781c0,-0.583 -0.063,-1.031 -0.188,-1.344l-0.25,-0.375c0,-0.041 -0.005,-0.078 -0.015,-0.109c-0.011,-0.031 -0.026,-0.057 -0.047,-0.078c0,-0.354 0.25,-0.677 0.75,-0.969l0.375,-0.187l2.312,-0.969c0.75,-0.292 1.261,-0.438 1.532,-0.438c0.312,0 0.593,0.292 0.843,0.875l0.313,0.719c-0.417,1.167 -0.625,2.25 -0.625,3.25l0.187,1.813l-0.062,0.75l-0.531,1.531c-0.021,0.562 -0.042,0.953 -0.063,1.172c-0.021,0.219 -0.042,0.411 -0.062,0.578c0,0.312 0.062,0.625 0.187,0.937l0.531,0.907l-0.718,2.375l0.25,0.75l-0.25,1.343l-0.25,1.813c0,0.167 0.02,0.292 0.062,0.375l0.438,0.781l0.218,3.313c0.125,0.604 0.391,1.031 0.797,1.281c0.406,0.25 1.245,0.573 2.516,0.969l2.312,0.625c0.417,0.083 1.115,0.125 2.094,0.125c0.708,0 1.229,-0.063 1.563,-0.188l1.781,-0.687l1.906,0.5c0.333,-0.104 0.552,-0.448 0.656,-1.032l1.032,-0.562l1.406,-1.938l1.156,-0.937c0.313,-0.417 0.5,-1 0.563,-1.75l0.25,-3.188l0.25,-0.687l-0.688,-0.719l0.063,-1.156l0.125,-4.938l-0.188,-1.656l-0.312,-1.906c0,-0.313 0.187,-0.656 0.562,-1.031l-0.125,-0.563l-0.5,-0.062l-0.156,-0.969l0,-0.25l0.281,-0.969l0,-0.656l0.5,0.156l3.469,-1.219c0.021,0 0.041,-0.01 0.062,-0.031c0.021,-0.021 0.042,-0.031 0.063,-0.031c0.229,0 0.422,0.193 0.578,0.578c0.156,0.385 0.234,0.891 0.234,1.516l-0.25,6.343l-0.437,4.875l-0.844,-0.343c-0.25,0.583 -0.375,0.989 -0.375,1.218l0.188,0.657c0.25,-0.084 0.437,-0.125 0.562,-0.125c0.188,0 0.344,0.052 0.469,0.156c0.125,0.104 0.187,0.24 0.187,0.406l-0.312,5.875l0.625,1.094l0.312,3.031c0.104,0.125 0.245,0.287 0.422,0.485c0.177,0.197 0.401,0.505 0.672,0.921Z" style="fill:#971400;fill-rule:nonzero;"/><path d="M360.836,272.251c0,0.834 -0.152,1.532 -0.454,2.094c-0.302,0.563 -0.661,0.844 -1.078,0.844c-0.083,0 -0.291,-0.042 -0.625,-0.125l-0.406,0.719l-0.562,1.531l-1.407,1.531l-0.656,0.906l-0.875,0.063l-2.906,1.469l-1.344,0.187l-2.281,0.781l-1.813,-0.343l-2.75,0.656c-0.187,0 -1.208,-0.198 -3.062,-0.594c-0.875,-0.187 -1.427,-0.375 -1.656,-0.562l-1.219,-0.782l-1.531,-0.875c-0.646,-0.416 -1.172,-0.953 -1.579,-1.609c-0.406,-0.656 -0.609,-1.255 -0.609,-1.797c0,-0.333 0.354,-0.786 1.063,-1.359c0.708,-0.573 1.489,-1.057 2.343,-1.453l0.688,0.906l0.594,2.75l1.125,0.687l1.812,1.407l0.875,0.281l1.688,0.812l1.156,0l0.75,0.125l1.531,-0.437l2.563,-0.25l1.281,-0.656l1.219,-0.438c0.77,-0.458 1.52,-1.401 2.25,-2.828c0.729,-1.427 1.093,-2.724 1.093,-3.891c0,-0.437 -0.135,-0.822 -0.406,-1.156l-1.219,-1.719l-0.312,-0.781l-0.75,-0.375l-0.406,0.5l-0.688,-0.062l-1.687,-0.25l-1.969,0l-0.5,0l-0.844,-1.219c-0.437,0.5 -0.792,0.818 -1.062,0.953c-0.271,0.135 -0.792,0.266 -1.563,0.391l-1.094,0.187l-0.625,-0.312l-0.781,0l-0.812,-0.625l-1.032,0.187l-0.968,-0.469l-1.344,-0.437c-0.521,-0.167 -0.969,-0.573 -1.344,-1.219c-0.375,-0.646 -0.562,-1.302 -0.562,-1.969c0,-1.02 0.354,-2.104 1.062,-3.25c0.708,-1.145 1.698,-2.197 2.969,-3.156c0.979,-0.75 2.146,-1.489 3.5,-2.219c1.354,-0.729 2.63,-1.291 3.828,-1.687c1.198,-0.396 2.182,-0.594 2.953,-0.594c0.229,0 1.021,0.219 2.375,0.656l0.906,0.313c1.417,-0.25 2.334,-0.375 2.75,-0.375c0.584,0 1.047,0.094 1.391,0.281c0.344,0.188 0.516,0.417 0.516,0.688c0,0.271 -0.297,0.651 -0.891,1.14c-0.594,0.49 -1.339,0.943 -2.234,1.36l-0.969,0.437l-0.813,-0.062l-1.562,-0.063l-1.188,-0.312l-0.531,-1.094l-0.437,0l-0.532,0.562l-0.937,0l-0.906,0l-1.282,0.188l-0.968,-0.25l-0.5,0.375l-2,1.156c-1.396,1.209 -2.094,2.302 -2.094,3.281c0,0.688 0.208,1.136 0.625,1.344l2.062,0.938l0.625,0.343l0,0.75l0.969,0.532l1.031,-0.969l0.5,0.062l5.25,-0.375l2.5,0.563l1.157,-0.188l1.468,0.969l2.188,1.219c0.437,0.292 0.823,0.948 1.156,1.969l0.25,0.843c0.375,1.313 0.563,2.396 0.563,3.25Z" style="fill:#971400;fill-rule:nonzero;"/><path d="M393.867,275.47c0,0.125 -0.021,0.229 -0.063,0.313l-0.375,1.593c0,0.021 0.005,0.053 0.016,0.094c0.01,0.042 0.026,0.094 0.047,0.156l-1.344,1.657l-0.781,0.218l-1.219,0.813l-0.5,0.125l-1.406,0.719l-0.125,0l-2,-0.063c-0.354,0 -0.844,0.146 -1.469,0.438l-1.594,0.906l-2.5,0.187l-2.5,-0.187l-0.562,-0.469l-1.844,-0.25l-2.062,-0.562l-2.875,-0.657l-1.344,-1.156l-1.219,-1.25l0.375,-1.094c-0.396,0.167 -0.76,0.25 -1.094,0.25l-0.25,0l-0.562,-0.656l-0.781,-1.344l-0.438,-0.562l-0.187,-1.781l0.25,-0.907l-0.25,-0.5l-0.657,-0.718l0.407,-1.594l-0.157,-2.875l1.094,-1.875l1.344,-2.75l1.75,-1.469l3.125,-3l0.906,-0.656l1.219,-0.875l0.562,-0.188l1.282,-0.968l4.031,-1.282l0.969,-0.25c0.041,0 0.078,0.006 0.109,0.016c0.031,0.01 0.057,0.026 0.078,0.047l1.594,0.687l1.594,-0.437l3,0.5l2.562,-0.375c0.313,0.083 0.656,0.208 1.031,0.375c-0.166,0.667 -0.349,1.109 -0.547,1.328c-0.198,0.219 -0.609,0.464 -1.234,0.734l-0.062,0.688l-1.282,0.781l-0.906,0.438l-0.125,0l-0.844,-0.125l-1.062,0.125l-4.813,-0.75c-0.166,-0.042 -0.406,-0.063 -0.718,-0.063c-0.292,0 -0.5,0.021 -0.625,0.063l-2.625,0.5l-0.844,0c-0.709,0.125 -1.406,0.677 -2.094,1.656l-1.344,0.469l-0.593,1.281l-1.063,0.187c0.083,0.167 0.125,0.313 0.125,0.438l-1.281,2.5l-0.125,1.094l0.062,1.906c0.021,0.917 0.094,1.677 0.219,2.281c0.125,0.604 0.344,1.209 0.656,1.813l-0.25,0.718c-0.208,0.355 -0.312,0.584 -0.312,0.688c0,0.125 0.062,0.281 0.187,0.469c0.625,0.166 0.927,0.25 0.907,0.25c0.187,0.146 0.5,0.531 0.937,1.156l0.844,1.156c0.041,0.084 0.083,0.177 0.125,0.281c0.041,0.105 0.104,0.24 0.187,0.407l0.719,0l0.375,0.531l2.063,1.469l0.875,0.75l1.031,0.312l0.906,0.344l1.406,0.062l3.594,0.375l0.125,0.063c0.354,0 1.094,-0.302 2.219,-0.906l0.594,0.218l2.156,-1.5c0.562,-0.083 1.114,-0.312 1.656,-0.687c0.542,-0.375 1.271,-1.042 2.188,-2c0.27,-0.333 0.531,-0.5 0.781,-0.5c0.166,0 0.312,0.062 0.437,0.187c0.125,0.125 0.188,0.282 0.188,0.469Z" style="fill:#971400;fill-rule:nonzero;"/><path d="M404.961,275.845l-0.125,1.656l0.062,1.282c0,0.312 -0.156,0.573 -0.469,0.781l0.188,0.75l-0.688,0.125l-2.062,1.281l-0.813,0.125l-0.968,0.594c-0.084,0 -0.157,0.005 -0.219,0.016c-0.063,0.01 -0.136,0.026 -0.219,0.046c-0.396,0 -0.594,-0.125 -0.594,-0.375l0,-0.781l-0.187,-1.406l0.437,-3.406l0.157,-4.344c0.062,-1.063 0.291,-1.938 0.687,-2.625l-0.375,-0.969c-0.354,-0.646 -0.531,-1.021 -0.531,-1.125c0,-0.333 0.26,-0.937 0.781,-1.812c0.208,-0.313 0.313,-0.657 0.313,-1.032c0,-0.291 -0.313,-0.562 -0.938,-0.812l0.125,-0.531l-0.281,-0.125l0,-0.438l0,-0.5l0.531,-2.187l0,-5.375l0.625,-2.5c0,-0.334 -0.25,-0.698 -0.75,-1.094l0,-1.469l-0.125,-5.625c0,-0.416 0.271,-1.125 0.813,-2.125l0.468,-0.812c-0.771,-0.354 -1.156,-0.677 -1.156,-0.969c0,0.083 0.063,-0.323 0.188,-1.219l-0.657,-0.562l0,-1.219l-0.125,-1.469l0,-0.281l0.532,-1.594l-0.532,-2.219l0.125,-1.093l-0.625,-3.657l0,-0.312l0,-0.188l0.25,-1.031l0.188,-1.281l2.812,-1.531l1.282,-0.969l0.531,-0.125l0.437,0.687l0.063,1.344l0.25,0.906l0.062,0.532l0,0.75l-0.187,2.312l0,0.188l0.062,1.093c0,0.375 -0.041,0.646 -0.125,0.813l-0.75,1.625l-0.093,0.625c0.416,0.021 0.682,0.088 0.796,0.203c0.115,0.115 0.172,0.412 0.172,0.891l0,0.687c0,0.417 -0.25,0.761 -0.75,1.031l0,0.782l-0.062,0.625l0,0.25l0.562,0.906l-0.25,5.969l0,4.281l-0.843,1.656l0.468,2.375l-0.656,1.531c0.063,0.188 0.25,0.428 0.563,0.719l0.531,0.563l0.25,10.125l-0.781,0.875c0.062,0.396 0.093,0.823 0.093,1.281c0,0.729 -0.093,1.417 -0.281,2.062l0.281,0.688l0.875,0l0,1.156l0.657,5Z" style="fill:#971400;fill-rule:nonzero;"/><path d="M441.523,275.001c0,0.271 -0.052,0.511 -0.156,0.719l-0.625,1.094l-1.469,2.531l-1.344,0.094l-0.843,0.687c-0.188,0.188 -0.511,0.313 -0.969,0.375l-5.625,1.094l-0.875,0.313l-2,-0.188l-2.875,0.25l-3.25,-0.187l-0.906,0c-0.459,-0.354 -0.74,-0.563 -0.844,-0.625l-3.063,-1.094l-1.031,-0.969l-2.031,-1.406l-1.625,-2.156l-0.625,-0.532c0.25,-0.5 0.375,-0.947 0.375,-1.343c0,-0.167 -0.042,-0.292 -0.125,-0.375l-0.844,-1.344l-0.187,-1.781l-0.063,-1.438c0,-0.479 0.115,-1.114 0.344,-1.906c0.354,-1.25 0.646,-2 0.875,-2.25l1.156,-1.469l0.594,-1.344l1.469,-1.406l1.593,-2.094l1.407,-0.781l2.031,-1.406l1.344,-0.906l0.468,-0.313l0.938,-0.187l2.844,-0.907l2.218,-0.25l1.344,-0.562l0.656,-0.063c1.063,0 1.959,0.573 2.688,1.719c0.396,-0.041 0.687,-0.26 0.875,-0.656l0.844,0.719l1.156,0.625l2.625,2.562c0.333,0.417 0.588,0.776 0.765,1.078c0.177,0.302 0.355,0.62 0.532,0.953c0.177,0.334 0.333,0.698 0.468,1.094c0.136,0.396 0.339,1 0.61,1.813l0.25,0.781l-0.313,0.125l-1.218,-0.25l-1.344,0.437l-1.031,-0.187l-1.157,0.312l-2.187,-0.25l-2.094,0.125l-2.187,-0.375l-3.563,0.063l-1.75,-0.063l-4.219,0.563l-1.531,-0.063l-2.125,0.625l-0.75,0.157l-0.125,0.75c-0.042,0.521 -0.115,0.875 -0.219,1.062c-0.104,0.188 -0.333,0.406 -0.687,0.656l0.062,0.594c0.688,0.521 1.052,0.844 1.094,0.969l0.813,3.187l0.406,0.782c-0.209,0.208 -0.313,0.396 -0.313,0.562l0.063,0.125l1.187,0.375l0.282,0.781c0.208,0.73 0.479,1.178 0.812,1.344l1.688,0.688l0.562,1.218c0.292,0.146 0.76,0.261 1.406,0.344l0.438,0.813l0.969,0.125l2.687,0.968l2.25,-0.437l5.938,-0.969l1.281,-0.781l2,-1.219l1.656,-2.156c0.292,-0.354 0.635,-0.531 1.031,-0.531c0.729,0 1.094,0.323 1.094,0.968Zm-7.375,-14.718c0,-0.334 -0.385,-1.032 -1.156,-2.094l-2.156,-1.563l-0.719,-0.75l-1.031,-0.062l-2.375,-0.188l-0.563,0.125l-1.344,0.75l-1.718,0.407l-2.188,0.812l-0.844,0.313l-1,1.5c-0.625,0.437 -0.968,0.708 -1.031,0.812l-0.125,0.375l3.844,0.281l0.437,-0.062l0.719,-0.219l0.688,0.156l1.843,0.375l0.094,0l2.094,-0.375l0.656,-0.156l0.5,0.719l0.719,0l2.75,-0.563l1.125,0.125c0.521,-0.062 0.781,-0.302 0.781,-0.718Z" style="fill:#971400;fill-rule:nonzero;"/><path d="M502.242,277.876l-0.406,1.344l-0.688,-0.062c-0.25,0 -0.427,0.062 -0.531,0.187l-0.625,1.344l-0.844,0.594l-0.25,0.312l-1.156,-0.125l-1.344,0.656l-0.062,0l-1.532,-0.468l-0.187,-0.063l-3.531,0.125l-1,-0.125l-0.344,-0.5c-1.271,0.25 -1.99,0.375 -2.156,0.375l-1.157,-0.062l-0.781,0.125l-0.25,-0.625l-0.375,0l-0.312,0.062l-1.094,0.563l-6.156,0.062l-0.907,0.438c-0.687,-0.459 -1.218,-0.688 -1.593,-0.688l-0.313,0.063l-1.594,0.437l-1.812,-0.375l-5.5,0.188c-0.188,0 -0.969,-0.25 -2.344,-0.75l0.313,-0.719l0.75,-1.781l0.125,-1.688l0.343,-1.531l0,-2.344l0.188,-0.906l-0.125,-7.25l0.125,-1.844l-0.063,-0.687l-0.187,-0.719l1.281,-0.063c-0.229,-0.5 -0.427,-0.854 -0.594,-1.062c-0.166,-0.208 -0.458,-0.469 -0.875,-0.781l-0.156,-0.532l0.156,-2.312l-0.281,-3.969l0.281,-1.531l0.125,-0.625l-0.656,-0.188l-0.25,-0.656l-0.125,-2.031l-0.375,-0.656l-0.062,-0.313l0.062,-0.781l0.25,-0.375l1.719,0.437l-0.5,-0.437c-0.313,-0.229 -0.469,-0.438 -0.469,-0.625c0,-0.104 0.042,-0.281 0.125,-0.531l-0.5,-0.188l-0.625,0.188c-0.062,-1.021 -0.13,-1.698 -0.203,-2.032c-0.073,-0.333 -0.203,-0.531 -0.391,-0.593l-1.218,-0.5l0.312,-0.657c0.146,-0.166 0.49,-0.354 1.031,-0.562l0.594,-0.188c1.021,-0.479 1.802,-0.718 2.344,-0.718c0.021,0 0.041,0 0.062,0c0.021,0 0.052,0.021 0.094,0.062l4.594,0.781l2.125,0.188l1.187,0.375c0.771,-0.292 1.292,-0.438 1.563,-0.438c0.125,0 0.208,0.021 0.25,0.063l4.719,0.5l4.156,-0.25l1.625,0.469l0.937,-0.219l0,-0.375c1.438,-0.146 2.49,-0.333 3.157,-0.563c0.916,-0.354 1.468,-0.531 1.656,-0.531l0.625,0.125c-0.104,0.479 -0.235,0.818 -0.391,1.016c-0.156,0.198 -0.495,0.422 -1.015,0.672c-0.042,0.375 -0.115,0.635 -0.219,0.781c-0.104,0.146 -0.406,0.354 -0.906,0.625c-1.084,0.5 -1.98,0.75 -2.688,0.75l-0.344,0l-1.656,-0.125l-1.406,0.187l-2.875,-0.312l-0.656,-0.063c-0.584,-0.375 -1.157,-0.562 -1.719,-0.562c-0.438,0.5 -1.25,0.75 -2.438,0.75l-0.937,-0.063l-0.156,-0.562l-0.625,0.187l-0.907,0.375l-4.281,-0.375l-0.687,1.032l0.25,0.25l0,0.25l0.125,1.656l-0.25,2.437l0.125,0.907l0.062,0.687l0.625,0.188l4.281,0.406c0.292,0 0.719,0.208 1.282,0.625l0.968,-0.188c0.584,-0.208 1.011,-0.312 1.282,-0.312l0.062,0l3.344,0.187l1.969,0.063l1.781,0c0.375,0 0.692,-0.031 0.953,-0.094c0.26,-0.062 0.547,-0.177 0.859,-0.344l2.375,0.438l0.563,-0.125l1.344,-0.313l2.437,-0.062l2.563,-0.344c0.291,0.084 0.583,0.24 0.875,0.469l0.656,-0.406c0.416,-0.334 0.802,-0.5 1.156,-0.5l0.688,0.062l0.718,-0.062l0,0.968l-0.843,0.563l-1.907,1.656c-0.229,0.188 -0.448,0.281 -0.656,0.281l-0.125,0l-2.094,-0.281l-2.687,0.094l-1.469,-0.344l-5.25,0.344l-0.969,-0.094c-0.229,-0.416 -0.489,-0.625 -0.781,-0.625c-0.167,0 -0.292,0.021 -0.375,0.063l-1.406,0.562l-4.094,-0.437l-2,0.718l-1.406,-0.406l-1.156,0.719l-3.438,-0.25l-0.25,0.437l0.125,1.657l-0.531,1.687l0.281,0.5l0.438,0.563l-0.438,1.343c0.313,0.584 0.5,1.011 0.563,1.282l-0.125,1.031l0.25,2.875l0,0.062c0,0.271 -0.23,0.698 -0.688,1.282c0.542,0.687 0.813,1.25 0.813,1.687c0,0.125 -0.042,0.271 -0.125,0.438l-0.844,1.781l0.906,1.594l0.375,5.968l0.969,0.188l4.219,1.469l1.406,-0.188c0.333,0 0.802,0.167 1.406,0.5c0.417,-0.375 0.719,-0.562 0.906,-0.562l0.125,0l2.875,0.562l1.75,-0.187l1.532,0.312l3.718,-0.25l1.063,0.188l1.812,0.062l0.625,0.219l-0.187,-0.469l0.719,-0.125l2.937,-0.062l0.625,-0.25l3.656,-0.657c0.104,-0.02 0.344,-0.078 0.719,-0.171c0.375,-0.094 0.604,-0.141 0.688,-0.141c0.125,0 0.385,0.062 0.781,0.187Z" style="fill:#971400;fill-rule:nonzero;"/><path d="M534.804,279.22c0,0.146 -0.271,0.49 -0.812,1.031l-0.594,0.594c-0.458,0.479 -0.964,0.865 -1.516,1.156c-0.552,0.292 -1.005,0.438 -1.359,0.438c-0.167,0 -0.594,-0.385 -1.281,-1.156l-3.438,-3.844c-0.146,-0.146 -0.552,-0.979 -1.218,-2.5l-0.907,0l-1.218,-1.094c-0.625,-0.729 -1.053,-1.198 -1.282,-1.406c-0.229,-0.208 -0.573,-0.438 -1.031,-0.688l-0.625,-0.406c-0.187,-0.75 -0.552,-1.489 -1.094,-2.219l-0.875,0.5l-0.468,1.219l-1.219,1.031l-1.156,1.532c-0.563,0.708 -1.053,1.177 -1.469,1.406l-0.938,0.562l-0.718,0.844l-2.25,3.656c-0.417,0.646 -1.094,1.157 -2.032,1.532l-0.312,1.156l-0.844,0c-1.146,0 -1.719,-0.427 -1.719,-1.281c0,-0.438 0.209,-0.865 0.625,-1.282l4.157,-3.968l0.843,-0.657l1.844,-2.468l3.219,-3.344l1.156,-1.219l-0.594,-0.875l-1.593,-1.687l-0.438,-1.594l-1.219,-0.375l-1.531,-1.594l-1.562,-1.219l-0.25,-1.468c-0.125,-0.438 -0.355,-0.657 -0.688,-0.657c-0.187,0 -0.406,0.042 -0.656,0.125l-0.5,-0.375c-0.959,-0.729 -1.61,-1.276 -1.953,-1.64c-0.344,-0.365 -0.631,-0.776 -0.86,-1.235l0.688,-0.718c0.646,-0.646 1.182,-1.078 1.609,-1.297c0.427,-0.219 1.11,-0.38 2.047,-0.485l0.25,-0.25l0.313,0l0.468,0.563l1.219,1.406l1.406,2c0.417,0.354 0.625,0.667 0.625,0.938l0,0.281c0.417,0.542 0.719,0.875 0.907,1c0.187,0.125 0.479,0.187 0.875,0.187l1.156,1.438c1.208,1.104 1.812,1.823 1.812,2.156l-0.062,0.969l-0.063,0.062c0,0.167 0.151,0.401 0.453,0.704c0.302,0.302 0.579,0.453 0.829,0.453c0.395,0 0.864,-0.386 1.406,-1.157l0.625,-0.906c0.604,-0.021 1.021,-0.114 1.25,-0.281c0.229,-0.167 0.458,-0.563 0.687,-1.188l-0.218,-0.562l0.531,-0.469c1.146,-0.937 1.739,-1.531 1.781,-1.781l0.25,-1.344l0.969,-1.219l1.406,-1.968l0.906,-0.594c0.646,-0.5 1.219,-0.75 1.719,-0.75c0.479,0 0.719,0.271 0.719,0.812c0,0.25 -0.052,0.448 -0.156,0.594l-1.594,2.156l-1.094,1.688l-1.531,1.656l-2.938,3.375l-2.75,2.969l-0.312,0.937c0.541,0.042 0.916,0.12 1.125,0.235c0.208,0.114 0.448,0.38 0.719,0.797l0.718,0.125l0.625,0.656l2.188,2.344c0.375,0.458 0.927,0.927 1.656,1.406c0.729,0.542 1.094,0.948 1.094,1.219c0,0.146 -0.084,0.302 -0.25,0.468l0.187,0.25c0.521,0 0.927,0.188 1.219,0.563c0.5,0 0.844,0.052 1.031,0.156c0.188,0.104 0.459,0.375 0.813,0.813c0.312,0.375 0.719,0.739 1.219,1.093c1.229,0.834 1.843,1.49 1.843,1.969Z" style="fill:#971400;fill-rule:nonzero;"/><path d="M572.429,268.533l-0.625,1.687l-0.312,0.75l-0.906,1.156l-0.657,1.219l-0.812,0.844l-0.594,0.75l-0.437,0.125l-0.844,-0.188l-0.313,0.594c-0.541,0.979 -0.953,1.594 -1.234,1.844c-0.281,0.25 -0.787,0.375 -1.516,0.375l-0.062,0l-0.5,-0.063c-0.084,0.709 -0.38,1.308 -0.891,1.797c-0.51,0.49 -1.349,0.943 -2.515,1.36l-1.719,0.562l-1.406,0.5l-2.813,0.063l-0.781,0.125l-0.781,0.531c-0.459,-0.25 -0.792,-0.385 -1,-0.406c-0.209,-0.021 -0.875,-0.084 -2,-0.188l-0.75,-0.062l0.125,-0.75l-0.719,-0.125l-0.625,0.375l-0.531,0.25l-0.875,0l-1.407,0l-0.593,-0.188l-0.188,0.781l0.125,4.657l-0.437,2.125l-0.063,0.875l0.5,0l0.188,5.781l-0.75,0.125l-0.188,0.5l0.125,0.781l0.375,1.656l-0.187,0.719l0.437,-0.344l0.313,0.188l0.062,2.125l0.219,2.062l0.125,1.407c0,0.396 -0.323,0.625 -0.969,0.687l-0.187,0.438l1.093,0.281l-0.062,0.625l0.312,1.531l0.125,1.031l-0.375,0.594l-0.781,0.625l-0.625,1.031l-0.781,0.25l-1.656,0.782l-0.532,0.062l-1.156,-0.062l-0.062,-1.157l0.062,-1.031l0.219,-2.625l-0.063,-2.625c0.021,-0.271 0.073,-0.489 0.157,-0.656c0.083,-0.167 0.26,-0.354 0.531,-0.563l-0.313,-2.031c0.396,-0.396 0.641,-0.677 0.735,-0.844c0.093,-0.166 0.151,-0.447 0.172,-0.843c-0.355,-0.125 -0.589,-0.25 -0.704,-0.375c-0.114,-0.125 -0.203,-0.313 -0.265,-0.563l0.25,-1.156l-0.125,-0.844l-0.063,-3.312l-0.125,-2.5l0.313,-2.969l0.062,-0.813c0.479,-0.458 0.719,-0.906 0.719,-1.343c0,-0.354 -0.094,-0.907 -0.281,-1.657l-0.688,-0.218l-0.312,-1.063l0,-0.469l0.375,-10.437l0.375,-1.125l-0.125,-1.156l-0.125,-0.844l-0.563,-0.188l0,-0.843l-0.156,-4.594l0,-0.5l0.219,-1.281l-0.344,-2.625c0,-0.729 -0.047,-1.183 -0.141,-1.36c-0.093,-0.177 -0.401,-0.411 -0.921,-0.703c0.062,-0.666 0.187,-1.094 0.375,-1.281l0.625,-0.375l1.468,-1.656l1.344,-0.782l0.781,-0.375c0.396,0.042 0.886,0.313 1.469,0.813l-0.125,0.594l-0.125,0.937l0.063,0.531l0.562,0.063l1.094,-0.594c1.271,-0.646 2.203,-1.073 2.797,-1.281c0.593,-0.208 1.224,-0.313 1.89,-0.313c0.354,0 0.63,0.047 0.828,0.141c0.198,0.094 0.391,0.245 0.579,0.453l0.562,-0.406l0.313,-0.375l0.781,-0.188l1.281,-0.25l3.531,0.063l3,-0.063c0.396,0 0.865,0.323 1.407,0.969c0.083,-0.021 0.166,-0.041 0.25,-0.062c0.083,-0.021 0.145,-0.032 0.187,-0.032c0.167,0 0.531,0.157 1.094,0.469l2.312,1.156c0.417,0.167 0.688,0.355 0.813,0.563l0.531,1.219c0.104,0.166 0.292,0.25 0.563,0.25c0.25,0 0.531,-0.063 0.843,-0.188c0.625,0.479 1.157,1.094 1.594,1.844c0.292,0.521 0.609,1.453 0.953,2.797c0.344,1.344 0.516,2.359 0.516,3.047l0,0.125l-0.188,1.031l-0.062,0.875l0.312,1.344Zm-4.031,-2.813c-0.771,-0.396 -1.24,-0.864 -1.406,-1.406l-0.5,-1.469l-1.594,-2.375l-0.156,-1.281l-0.438,-0.438l-1.656,0.063l-2.5,-1.656l-1.781,-0.188l-1.688,-0.594l-4.531,0.063l-0.719,0l-0.875,0.125l-2.562,0.719l-1.281,0.25l-1.032,0.437l-0.75,0.219c-0.479,0.167 -0.718,0.781 -0.718,1.844l0,0.375c-0.605,1.291 -0.907,2 -0.907,2.125c0,0.125 0.021,0.208 0.063,0.25l0.156,0.25l0.625,0.25l-0.125,1.562l0.125,3.563c0,0.271 -0.187,0.739 -0.562,1.406c0.458,1.021 0.687,1.896 0.687,2.625l-0.125,2.875l-0.062,1.094l0.906,0.468l1.594,0.688l1.281,0.969l0.375,-0.532l0.844,0.344l2.687,0.188l2.281,0.906l2.563,-0.406l1.625,0.062l1.187,-0.5l1.282,-0.594l1.562,-1.125l1.219,-0.781l1.125,-1.406l1.344,-0.969c0.77,-0.5 1.197,-1.01 1.281,-1.531l0.125,-1.219l0.781,-1.531c0.021,-0.042 0.036,-0.078 0.047,-0.109c0.01,-0.032 0.016,-0.058 0.016,-0.079l-0.125,-2.5l-0.063,-0.718l0.375,-0.313Z" style="fill:#971400;fill-rule:nonzero;"/><path d="M584.336,275.845l-0.125,1.656l0.062,1.282c0,0.312 -0.156,0.573 -0.469,0.781l0.188,0.75l-0.688,0.125l-2.062,1.281l-0.813,0.125l-0.968,0.594c-0.084,0 -0.157,0.005 -0.219,0.016c-0.063,0.01 -0.136,0.026 -0.219,0.046c-0.396,0 -0.594,-0.125 -0.594,-0.375l0,-0.781l-0.187,-1.406l0.437,-3.406l0.157,-4.344c0.062,-1.063 0.291,-1.938 0.687,-2.625l-0.375,-0.969c-0.354,-0.646 -0.531,-1.021 -0.531,-1.125c0,-0.333 0.26,-0.937 0.781,-1.812c0.208,-0.313 0.313,-0.657 0.313,-1.032c0,-0.291 -0.313,-0.562 -0.938,-0.812l0.125,-0.531l-0.281,-0.125l0,-0.438l0,-0.5l0.531,-2.187l0,-5.375l0.625,-2.5c0,-0.334 -0.25,-0.698 -0.75,-1.094l0,-1.469l-0.125,-5.625c0,-0.416 0.271,-1.125 0.813,-2.125l0.468,-0.812c-0.771,-0.354 -1.156,-0.677 -1.156,-0.969c0,0.083 0.063,-0.323 0.188,-1.219l-0.657,-0.562l0,-1.219l-0.125,-1.469l0,-0.281l0.532,-1.594l-0.532,-2.219l0.125,-1.093l-0.625,-3.657l0,-0.312l0,-0.188l0.25,-1.031l0.188,-1.281l2.812,-1.531l1.282,-0.969l0.531,-0.125l0.437,0.687l0.063,1.344l0.25,0.906l0.062,0.532l0,0.75l-0.187,2.312l0,0.188l0.062,1.093c0,0.375 -0.041,0.646 -0.125,0.813l-0.75,1.625l-0.093,0.625c0.416,0.021 0.682,0.088 0.796,0.203c0.115,0.115 0.172,0.412 0.172,0.891l0,0.687c0,0.417 -0.25,0.761 -0.75,1.031l0,0.782l-0.062,0.625l0,0.25l0.562,0.906l-0.25,5.969l0,4.281l-0.843,1.656l0.468,2.375l-0.656,1.531c0.063,0.188 0.25,0.428 0.563,0.719l0.531,0.563l0.25,10.125l-0.781,0.875c0.062,0.396 0.093,0.823 0.093,1.281c0,0.729 -0.093,1.417 -0.281,2.062l0.281,0.688l0.875,0l0,1.156l0.657,5Z" style="fill:#971400;fill-rule:nonzero;"/><path d="M624.773,265.533l-0.687,-0.125l0.125,0.718l-0.719,0.5c0.104,0.375 0.192,0.605 0.265,0.688c0.073,0.083 0.266,0.219 0.579,0.406l0.062,0.625c0,2.271 -0.875,4.729 -2.625,7.375c-0.396,0.584 -0.885,1.198 -1.469,1.844c-0.583,0.646 -0.948,1.073 -1.093,1.281l-0.938,0.25l-5.906,2.75l-3.25,0.125l-2.375,0.594l-2.813,-0.063l-0.968,0.25l-2.813,-0.5l-1.156,-0.062l-0.625,-0.719l-1.75,-0.25l-0.813,-0.437c-0.708,-0.542 -1.302,-0.995 -1.781,-1.36c-0.479,-0.364 -0.786,-0.604 -0.922,-0.718c-0.135,-0.115 -0.245,-0.235 -0.328,-0.36l-0.687,-1.344l-0.969,-0.781l-0.75,-1.969l-0.281,-0.781l0.343,-0.25c0,-0.291 0.042,-0.489 0.125,-0.594c0.084,-0.104 0.271,-0.208 0.563,-0.312l-0.188,-0.5l-1.031,-0.656l0,-1.282c0,-0.895 0.104,-1.781 0.313,-2.656c0.208,-0.875 0.572,-1.885 1.093,-3.031c0.813,-1.833 1.417,-2.875 1.813,-3.125l1.281,-0.844l0.688,-1.219c0.25,-0.437 0.552,-0.729 0.906,-0.875l2.937,-1.562l1.657,-1.344l2,-0.75l3.5,-1.219l2.906,-0.25l2.281,-0.062c1.292,0 1.938,0.354 1.938,1.062c0.354,0.313 0.583,0.469 0.687,0.469c0.313,0 0.656,-0.302 1.031,-0.906l0.782,0.187l2.031,0.719l0.844,0.688l1.156,0.718l1.156,1.782c0.313,0.396 0.927,0.593 1.844,0.593c0.604,0.75 1.01,1.49 1.219,2.219c0.208,0.729 0.437,2.073 0.687,4.031l0.125,1.032Zm-4.531,0.781l-1.156,-3.594l-0.188,-1.594l-0.312,-0.593l-0.188,0c-0.167,0 -0.302,-0.032 -0.406,-0.094c-0.104,-0.063 -0.229,-0.177 -0.375,-0.344l-1.531,-1.906l-0.5,-0.781l-2.625,-1.219c-0.25,-0.417 -0.464,-0.724 -0.641,-0.922c-0.177,-0.198 -0.391,-0.297 -0.641,-0.297c-0.271,0 -0.698,0.104 -1.281,0.313c-0.583,-0.25 -1.01,-0.375 -1.281,-0.375l-0.906,0.125l-1.532,0.062l-2.125,0.781l-0.5,-0.437l-0.375,0.5l-2.125,1.281l-3.906,3.375l-0.75,0.656c-0.167,1.063 -0.646,2.282 -1.437,3.657l-0.438,0.75l0,0.25c0,0.458 -0.073,0.76 -0.219,0.906c-0.146,0.146 -0.437,0.25 -0.875,0.312c-0.083,0.334 -0.125,0.49 -0.125,0.469c0.021,0.042 0.037,0.078 0.047,0.11c0.011,0.031 0.016,0.057 0.016,0.078l0.969,1.093l0.125,0.688c-0.646,0.542 -0.969,0.906 -0.969,1.094c0,0 0.041,0.125 0.125,0.375c0.187,-0.209 0.364,-0.313 0.531,-0.313c0.188,0 0.313,0.063 0.375,0.188l0.719,2.312l1.594,2.625l-0.188,1.594c0.167,0.167 0.354,0.25 0.563,0.25c0.25,0 0.51,-0.125 0.781,-0.375l0.625,0.187l3.781,2.313l3.844,0.375l2.187,0.312l2.469,-0.437l1.625,-0.375l2.031,-2.063l1.469,-0.437l0.719,-0.781l1.656,-3.438l0.844,-0.719c0.291,-0.291 0.437,-0.541 0.437,-0.75l0,-0.156l-0.5,-1.469l0.563,-3.562Z" style="fill:#971400;fill-rule:nonzero;"/><path d="M652.429,255.22c0,0.104 -0.041,0.198 -0.125,0.281l-1.781,1.407l-0.969,1l-0.562,0.218l-0.844,-0.531l-0.562,-0.562l-1.875,-0.063l-1.782,-0.719l-0.687,-0.187c-0.271,0.458 -0.552,0.745 -0.844,0.859c-0.292,0.115 -0.885,0.172 -1.781,0.172l-1.031,0.438l-0.782,-0.25l-0.625,0.5l-2.5,1.937c-0.416,0.542 -0.656,1.542 -0.718,3l-0.063,2.375l-0.687,0.438c0.416,0.708 0.625,1.396 0.625,2.062l0.468,0l0.063,0.875l0.125,4.031l0.062,2.125l-0.125,1.907c-0.646,0.375 -0.968,0.677 -0.968,0.906c0,0.042 0.083,0.229 0.25,0.562l0.843,-0.187l-0.062,0.281l0.25,1.25l0,0.156c0,0.313 -0.167,0.636 -0.5,0.969c-0.334,0.334 -0.677,0.521 -1.031,0.563l-1.219,0.125l-1.844,0.968l-0.781,-0.468l0.125,-0.625l0.437,-1.813l-0.187,-2.406l0.187,-0.344l0.657,0l0,-0.375l-0.063,-0.562l-0.375,-0.907l-0.094,-1.281l-0.25,-1.094l0,-0.062l0,-0.844l0.063,-1c0.083,-0.104 0.172,-0.213 0.265,-0.328c0.094,-0.115 0.219,-0.286 0.375,-0.516c0.157,-0.229 0.329,-0.51 0.516,-0.843l0.313,-0.75l-0.063,-0.313c-0.979,0 -1.469,-0.219 -1.469,-0.656l0.125,-2.375l-0.187,-2.344c0.062,-0.208 0.198,-0.406 0.406,-0.594l0,-0.906l-0.406,-0.375l-0.125,-0.75l-0.063,-1.687l-0.687,-1.344c0.146,-0.75 0.479,-1.385 1,-1.906l1.937,-1.032l1.157,-0.75c0.583,0.167 0.984,0.365 1.203,0.594c0.218,0.229 0.328,0.604 0.328,1.125l0,1.031c0,0.771 0.166,1.157 0.5,1.157l0.125,0l1.594,-0.844l1.562,-0.594l2.688,-1.469l0.875,-0.375l0.718,0.188l1.407,-0.438c0.812,-0.25 1.427,-0.375 1.843,-0.375l1.344,0.125c0.417,0.584 0.76,0.875 1.031,0.875c0.042,-0.02 0.073,-0.036 0.094,-0.046c0.021,-0.011 0.052,-0.016 0.094,-0.016l0.719,-0.375c0.166,-0.083 0.291,-0.125 0.375,-0.125c0.52,0 1.01,0.281 1.468,0.844c0.334,0.396 0.5,0.75 0.5,1.062Z" style="fill:#971400;fill-rule:nonzero;"/><path d="M681.992,275.001c0,0.271 -0.052,0.511 -0.156,0.719l-0.625,1.094l-1.469,2.531l-1.344,0.094l-0.844,0.687c-0.187,0.188 -0.51,0.313 -0.968,0.375l-5.625,1.094l-0.875,0.313l-2,-0.188l-2.875,0.25l-3.25,-0.187l-0.907,0c-0.458,-0.354 -0.739,-0.563 -0.843,-0.625l-3.063,-1.094l-1.031,-0.969l-2.031,-1.406l-1.625,-2.156l-0.625,-0.532c0.25,-0.5 0.375,-0.947 0.375,-1.343c0,-0.167 -0.042,-0.292 -0.125,-0.375l-0.844,-1.344l-0.188,-1.781l-0.062,-1.438c0,-0.479 0.114,-1.114 0.344,-1.906c0.354,-1.25 0.645,-2 0.875,-2.25l1.156,-1.469l0.594,-1.344l1.468,-1.406l1.594,-2.094l1.406,-0.781l2.032,-1.406l1.343,-0.906l0.469,-0.313l0.938,-0.187l2.843,-0.907l2.219,-0.25l1.344,-0.562l0.656,-0.063c1.063,0 1.958,0.573 2.688,1.719c0.395,-0.041 0.687,-0.26 0.875,-0.656l0.843,0.719l1.157,0.625l2.625,2.562c0.333,0.417 0.588,0.776 0.765,1.078c0.177,0.302 0.354,0.62 0.531,0.953c0.177,0.334 0.334,0.698 0.469,1.094c0.136,0.396 0.339,1 0.61,1.813l0.25,0.781l-0.313,0.125l-1.219,-0.25l-1.343,0.437l-1.032,-0.187l-1.156,0.312l-2.187,-0.25l-2.094,0.125l-2.188,-0.375l-3.562,0.063l-1.75,-0.063l-4.219,0.563l-1.531,-0.063l-2.125,0.625l-0.75,0.157l-0.125,0.75c-0.042,0.521 -0.115,0.875 -0.219,1.062c-0.104,0.188 -0.333,0.406 -0.687,0.656l0.062,0.594c0.688,0.521 1.052,0.844 1.094,0.969l0.812,3.187l0.407,0.782c-0.209,0.208 -0.313,0.396 -0.313,0.562l0.063,0.125l1.187,0.375l0.281,0.781c0.209,0.73 0.479,1.178 0.813,1.344l1.687,0.688l0.563,1.218c0.291,0.146 0.76,0.261 1.406,0.344l0.438,0.813l0.968,0.125l2.688,0.968l2.25,-0.437l5.937,-0.969l1.282,-0.781l2,-1.219l1.656,-2.156c0.291,-0.354 0.635,-0.531 1.031,-0.531c0.729,0 1.094,0.323 1.094,0.968Zm-7.375,-14.718c0,-0.334 -0.386,-1.032 -1.156,-2.094l-2.157,-1.563l-0.718,-0.75l-1.032,-0.062l-2.375,-0.188l-0.562,0.125l-1.344,0.75l-1.719,0.407l-2.187,0.812l-0.844,0.313l-1,1.5c-0.625,0.437 -0.969,0.708 -1.031,0.812l-0.125,0.375l3.844,0.281l0.437,-0.062l0.719,-0.219l0.687,0.156l1.844,0.375l0.094,0l2.094,-0.375l0.656,-0.156l0.5,0.719l0.719,0l2.75,-0.563l1.125,0.125c0.52,-0.062 0.781,-0.302 0.781,-0.718Z" style="fill:#971400;fill-rule:nonzero;"/><path d="M709.211,255.22c0,0.104 -0.042,0.198 -0.125,0.281l-1.782,1.407l-0.968,1l-0.563,0.218l-0.844,-0.531l-0.562,-0.562l-1.875,-0.063l-1.781,-0.719l-0.688,-0.187c-0.271,0.458 -0.552,0.745 -0.844,0.859c-0.291,0.115 -0.885,0.172 -1.781,0.172l-1.031,0.438l-0.781,-0.25l-0.625,0.5l-2.5,1.937c-0.417,0.542 -0.657,1.542 -0.719,3l-0.063,2.375l-0.687,0.438c0.416,0.708 0.625,1.396 0.625,2.062l0.469,0l0.062,0.875l0.125,4.031l0.063,2.125l-0.125,1.907c-0.646,0.375 -0.969,0.677 -0.969,0.906c0,0.042 0.083,0.229 0.25,0.562l0.844,-0.187l-0.063,0.281l0.25,1.25l0,0.156c0,0.313 -0.167,0.636 -0.5,0.969c-0.333,0.334 -0.677,0.521 -1.031,0.563l-1.219,0.125l-1.844,0.968l-0.781,-0.468l0.125,-0.625l0.438,-1.813l-0.188,-2.406l0.188,-0.344l0.656,0l0,-0.375l-0.063,-0.562l-0.375,-0.907l-0.093,-1.281l-0.25,-1.094l0,-0.062l0,-0.844l0.062,-1c0.083,-0.104 0.172,-0.213 0.266,-0.328c0.093,-0.115 0.218,-0.286 0.375,-0.516c0.156,-0.229 0.328,-0.51 0.515,-0.843l0.313,-0.75l-0.063,-0.313c-0.979,0 -1.468,-0.219 -1.468,-0.656l0.125,-2.375l-0.188,-2.344c0.063,-0.208 0.198,-0.406 0.406,-0.594l0,-0.906l-0.406,-0.375l-0.125,-0.75l-0.062,-1.687l-0.688,-1.344c0.146,-0.75 0.479,-1.385 1,-1.906l1.938,-1.032l1.156,-0.75c0.583,0.167 0.984,0.365 1.203,0.594c0.219,0.229 0.328,0.604 0.328,1.125l0,1.031c0,0.771 0.167,1.157 0.5,1.157l0.125,0l1.594,-0.844l1.562,-0.594l2.688,-1.469l0.875,-0.375l0.719,0.188l1.406,-0.438c0.812,-0.25 1.427,-0.375 1.844,-0.375l1.343,0.125c0.417,0.584 0.761,0.875 1.032,0.875c0.041,-0.02 0.072,-0.036 0.093,-0.046c0.021,-0.011 0.052,-0.016 0.094,-0.016l0.719,-0.375c0.166,-0.083 0.291,-0.125 0.375,-0.125c0.521,0 1.01,0.281 1.469,0.844c0.333,0.396 0.5,0.75 0.5,1.062Z" style="fill:#971400;fill-rule:nonzero;"/></g></g></svg>
